<?xml version="1.0" encoding="UTF-8"?>
<!DOCTYPE svg PUBLIC "-//W3C//DTD SVG 1.1//EN" "http://www.w3.org/Graphics/SVG/1.1/DTD/svg11.dtd">
<!-- Creator: CorelDRAW X8 -->
<svg xmlns="http://www.w3.org/2000/svg" xml:space="preserve" width="3978px" height="6845px" version="1.1" style="shape-rendering:geometricPrecision; text-rendering:geometricPrecision; image-rendering:optimizeQuality; fill-rule:evenodd; clip-rule:evenodd"
viewBox="0 0 3978 6845"
 xmlns:xlink="http://www.w3.org/1999/xlink">
 <defs>
  <style type="text/css">
   <![CDATA[
    .fil1 {fill:#FEFEFE;fill-rule:nonzero}
    .fil2 {fill:#373435;fill-rule:nonzero}
    .fil3 {fill:#776A5E;fill-rule:nonzero}
    .fil4 {fill:#82B89F;fill-rule:nonzero}
    .fil0 {fill:#ADDED8;fill-rule:nonzero}
   ]]>
  </style>
 </defs>
 <g id="Layer_x0020_1">
  <metadata id="CorelCorpID_0Corel-Layer"/>
  <g id="_585528240">
   <polygon class="fil0" points="4046,4743 4046,4729 4080,4716 4046,4703 4046,4689 4095,4710 4095,4722 "/>
   <path class="fil1" d="M2400 5135c-39,-203 -66,-407 -71,-611 53,246 108,491 169,734 4,19 9,37 14,56 12,165 53,329 78,494 22,146 34,294 56,439 -68,-373 -172,-739 -246,-1112zm-48 -2878c-13,81 -15,163 -14,246 0,94 2,188 4,282 -8,-173 -20,-346 -65,-512 24,-5 49,-11 75,-16zm-129 -252c2,-4 3,-8 3,-12 -1,-69 -23,-136 -53,-200 26,30 52,59 81,88 21,20 48,-10 31,-32 -88,-110 -157,-234 -227,-356 -34,-59 -68,-119 -103,-178 -30,-50 -72,-89 -83,-145 116,101 194,255 275,382 85,132 184,256 263,393 -63,10 -127,33 -187,60zm-94 51c1,-8 -1,-16 -10,-22 -81,-50 -146,-126 -202,-206 56,46 112,93 173,133 29,26 61,48 97,62 0,0 0,0 0,0 -20,11 -39,22 -58,33zm-75 856c-3,-10 -5,-19 -7,-29 -26,-123 -48,-249 -48,-375 0,-62 5,-163 75,-176 10,-2 17,-7 22,-12 4,0 9,-1 13,-2 2,-1 4,-1 6,-2 -88,185 -86,389 -61,596zm493 -969c-5,-1 -11,-2 -17,-3 1,-2 2,-5 1,-8 -2,-86 -7,-173 -17,-260 13,90 23,181 33,271zm95 -117c6,28 12,57 15,85 1,10 1,20 0,30 0,0 0,0 0,0 -10,10 -12,24 -7,35 -5,-1 -9,-3 -14,-4 -3,-1 -5,0 -7,1 -6,-4 -13,-7 -19,-10 3,-105 -3,-209 -13,-312 16,58 32,116 45,175zm557 1867c-4,-163 -5,-325 -16,-487 -10,-147 -39,-287 -65,-431 -30,-171 -61,-427 -281,-443 -42,-3 -73,11 -97,36 -1,-8 -3,-15 -4,-22 -5,-24 -21,-39 -40,-45 0,-9 0,-19 0,-28 0,-14 -3,-25 -8,-34 3,0 6,1 9,2 32,9 54,-21 50,-49 -10,-64 -15,-147 -61,-192 4,-1 8,-2 12,-4 40,-23 27,-83 21,-119 -14,-77 -38,-154 -61,-229 -26,-87 -54,-173 -82,-260 -10,-34 -23,-73 -32,-110 -3,-21 -6,-42 -10,-62 -5,-34 -62,-26 -58,8 1,13 3,27 5,41 -8,-38 -16,-76 -24,-114 -4,-19 -34,-19 -38,0 -2,10 -3,21 -4,31 -12,-39 -25,-77 -39,-115 -2,-5 -11,-5 -10,1 7,137 44,272 70,406 3,16 5,32 8,48 1,4 1,8 2,13 13,134 13,270 35,403 -2,0 -3,0 -4,0 -88,-149 -201,-281 -298,-424 -45,-65 -90,-129 -139,-192 -53,-68 -114,-126 -174,-188 -8,-7 -19,-1 -20,9 -1,14 0,28 2,42 -14,-23 -49,-18 -51,12 -2,23 15,49 24,71 20,45 41,90 62,134 33,69 68,135 108,201 61,100 144,216 167,337 -9,-6 -17,-13 -26,-20 -75,-98 -112,-219 -189,-316 -15,-19 -42,-2 -43,18 -6,75 42,153 84,214 -46,-36 -91,-73 -137,-109 -16,-11 -35,11 -26,26 21,33 41,68 63,101 -23,-22 -45,-46 -66,-71 -8,-8 -23,3 -16,13 59,91 140,166 228,231 20,17 42,33 66,46 1,1 3,1 4,2 -18,12 -35,24 -50,36 -12,9 -13,29 -5,41 9,14 14,31 19,47 -10,15 -18,32 -25,49 -1,4 -2,7 -2,11 -84,22 -116,117 -126,195 -16,130 6,264 30,392 44,233 112,461 186,686 18,52 98,44 97,-13 -1,-212 -49,-420 -72,-630 -18,-172 -20,-352 46,-510 44,213 40,435 52,651 3,56 7,112 11,168 -1,15 -1,30 -2,46 -9,57 -16,115 -16,173 0,28 12,50 30,66 9,110 22,219 39,329 -44,-4 -93,20 -106,66 -98,361 -87,723 -33,1085 -1,-7 -3,-14 -4,-21 -46,-211 -92,-420 -157,-625 -24,-73 -109,-77 -152,-20 -88,119 -97,286 -96,429 0,30 1,59 2,88 -20,-64 -42,-128 -70,-191 -20,-46 -92,-51 -123,-16 -93,104 -99,256 -95,388 4,141 30,279 45,417 6,61 15,121 24,182 -34,-90 -75,-178 -125,-262 -41,-69 -141,-37 -145,39 -10,177 17,351 46,524 -34,-116 -74,-230 -140,-332 -34,-54 -140,-57 -151,19 -8,61 -10,121 -8,181 -8,-19 -17,-38 -27,-57 -26,-50 -110,-52 -135,0 -38,79 -50,159 -50,241 -15,-28 -33,-54 -55,-79 -27,-31 -87,-16 -95,25 -23,117 -8,232 4,348 -41,-84 -83,-166 -146,-237 -31,-34 -84,-6 -86,36 -4,93 8,185 18,278 -15,-34 -30,-69 -44,-103 1,-9 -2,-19 -12,-26 0,0 0,0 0,0 -3,-7 -6,-15 -9,-22 -11,-25 -56,-13 -52,14 0,3 0,5 1,8 0,0 0,0 0,0 0,0 0,0 0,0 1,11 4,18 8,24 36,103 69,208 125,303 22,37 73,18 76,-21 9,-95 -1,-190 -8,-285 49,94 85,195 143,282 32,47 96,26 101,-27 10,-95 -4,-191 -13,-286 1,7 3,15 5,22 20,99 39,198 85,289 27,52 120,44 130,-16 14,-88 8,-175 -2,-263 37,160 84,314 207,436 35,35 112,35 135,-17 22,-53 29,-108 25,-162 11,20 22,39 34,58 44,71 143,38 150,-41 16,-196 -17,-388 -50,-580 67,242 113,493 209,725 38,91 162,79 171,-23 34,-383 -121,-754 -167,-1129 -17,-134 -39,-268 -53,-402 -3,-39 -9,-87 -10,-137 15,66 27,133 39,199 28,155 59,308 95,462 71,307 128,623 283,902 47,85 169,42 174,-47 10,-198 -70,-386 -112,-577 -47,-211 -95,-423 -128,-637 -23,-151 -41,-306 -50,-458 -2,-41 -4,-85 -4,-130 25,112 45,224 67,335 35,181 82,358 127,537 78,312 153,670 374,917 28,32 81,36 117,15 36,-21 49,-58 45,-97 11,55 23,109 38,163 24,82 118,92 170,48 1,0 1,0 2,0 3,0 6,-1 9,-1 0,2 -1,4 -1,7 0,-1 -2,16 -3,19 0,2 0,4 -1,6 -20,17 -33,43 -27,76 2,13 7,26 10,40 6,36 42,53 73,56 97,11 97,-169 104,-226 18,-141 31,-284 45,-426 0,-2 0,-4 0,-6 5,-8 8,-17 9,-26 10,-68 13,-134 12,-201 20,-214 38,-429 53,-644 37,-516 57,-1035 42,-1552z"/>
   <path class="fil2" d="M993 5468c198,-244 336,-542 445,-834 118,-314 192,-643 242,-975 0,-2 -3,-3 -4,-1 -64,317 -146,631 -257,934 -56,152 -122,300 -197,443 -75,144 -166,276 -257,410 -12,18 15,39 28,23z"/>
   <path class="fil3" d="M423 6155c1,-5 -3,-10 -8,-8 -37,13 -71,33 -105,52 -15,8 -56,23 -58,44 -1,3 2,8 6,10 6,3 11,1 18,0 6,-2 8,-8 8,-13 4,-3 8,-7 11,-9 15,-10 31,-19 46,-28 22,-14 45,-27 68,-39 -15,67 -93,115 -159,138 37,-33 80,-59 122,-87 8,-5 1,-16 -7,-12 -57,28 -114,62 -155,112 -6,7 -1,18 9,15 83,-22 186,-85 204,-175z"/>
   <path class="fil3" d="M487 6233c-65,26 -121,68 -177,109 8,-10 16,-20 25,-30 8,-9 -4,-22 -13,-13 -27,27 -50,57 -74,86 -8,10 2,26 14,19 81,-47 150,-111 232,-155 8,-5 2,-20 -7,-16z"/>
   <path class="fil2" d="M2082 2439c-93,472 -24,955 50,1424 39,248 92,492 150,735 27,117 52,236 82,352 29,113 53,227 101,334 12,26 47,9 49,-14 16,-168 -29,-338 -74,-499 -50,-177 -106,-351 -147,-531 -85,-375 -123,-764 -20,-1138 56,601 205,1184 334,1772 42,192 82,386 119,579 8,38 71,366 -24,334 -26,-9 -37,32 -12,41 146,48 125,-167 115,-250 -20,-158 -60,-316 -93,-471 -135,-637 -324,-1263 -405,-1911 -6,-51 -12,-103 -16,-154 -1,-13 -19,-16 -23,-3 -115,369 -88,757 -16,1132 35,183 84,362 136,540 40,141 74,282 78,427 -20,-66 -36,-134 -54,-201 -30,-116 -56,-234 -84,-351 -58,-238 -111,-475 -153,-716 -81,-469 -157,-953 -84,-1428 1,-6 -8,-9 -9,-3z"/>
   <path class="fil2" d="M3450 1955c-2,7 -3,13 -5,20 -38,-23 -54,-52 -20,-90 12,-14 28,-24 45,-33 -5,35 -12,69 -20,103zm222 126c-69,52 -194,45 -246,115 20,-56 38,-112 54,-169 68,20 150,29 192,54zm-53 291c-23,18 -60,23 -85,30 -39,10 -79,19 -115,38 -47,26 -64,93 -8,118 66,31 145,6 213,25 47,13 -33,39 -47,43 -41,12 -83,19 -124,26 -28,4 -55,12 -81,24 3,-105 -1,-211 -4,-317 0,-3 1,-5 2,-8 11,-31 22,-62 33,-93 -5,92 149,83 216,114zm-320 355c2,-55 8,-109 16,-163 5,67 9,116 13,139 -10,7 -20,15 -29,24zm70 170c43,11 86,11 130,15 70,6 109,41 116,114 8,73 -28,128 -77,179 -34,37 -70,72 -106,108 0,0 0,0 0,-1 -98,-125 -124,-278 -132,-433 0,-4 0,-7 -1,-11 21,14 47,24 70,29zm-218 784c-4,-242 -19,-484 -63,-724 -16,-85 -38,-169 -59,-253 -16,-68 -25,-137 -39,-205 -12,-62 -28,-125 -60,-180 -29,-48 -102,-37 -153,-35 1,0 1,-1 1,-1 8,-40 1,-83 -3,-124 0,0 1,0 2,-1 213,-99 405,-240 544,-429 -21,189 -21,440 -15,642 -16,48 -30,96 -41,146 -32,146 -27,308 -12,456 14,124 41,291 152,368 -6,7 -13,14 -19,20 -94,98 -168,205 -235,320zm285 -2210c1,0 2,-1 3,-1 27,48 34,121 38,161 3,26 5,51 5,77 -13,13 -21,30 -25,50 -1,9 3,19 12,21 3,1 7,2 10,2 -1,12 -2,25 -4,37 -41,15 -79,37 -92,75 -22,61 5,95 52,117 -20,71 -46,140 -73,209 -1,-53 -3,-105 -3,-158 -1,-130 0,-260 13,-389 0,-6 1,-14 2,-23 2,-3 4,-6 6,-9 1,-3 -3,-5 -4,-3 -1,1 -1,1 -2,2 5,-59 14,-154 62,-168zm18 -97c43,46 86,95 137,132 23,16 46,32 69,49 26,19 37,34 5,55 -36,26 -95,40 -141,66 -6,-103 -29,-252 -103,-267 12,-10 24,-21 33,-35zm100 421c-9,3 -20,5 -31,8 0,-6 1,-12 1,-18 76,0 150,-31 226,-33 -59,26 -139,30 -196,43zm-952 113c3,-1 6,-3 7,-7 1,-5 1,-9 1,-14 0,-2 -1,-4 -2,-5 0,-1 0,-2 0,-4 -1,-14 -3,-29 -4,-43 -3,-27 -3,-53 -6,-79 -10,-107 -31,-211 -47,-316 -21,-129 -58,-306 -190,-366 0,0 0,0 0,0 54,6 108,-5 162,6 72,15 99,80 104,146 5,65 -8,130 -16,195 -21,-112 -53,-227 -136,-307 -4,-3 -10,2 -7,6 84,109 108,247 127,381 10,72 21,143 39,213 20,74 43,147 51,224 -24,-10 -49,-18 -70,-25 -4,-2 -9,-3 -13,-5zm-12 -24c1,0 1,-1 2,-2 -1,1 -1,2 -2,2zm-154 25c0,-1 0,-1 0,-1 0,-1 -1,-2 -1,-3 4,1 7,1 11,1 -3,1 -7,2 -10,3zm-75 34c-58,-201 -155,-385 -255,-569 115,173 240,342 305,541 0,1 1,2 1,2 -17,8 -34,17 -51,26zm-86 48c11,-36 -26,-94 -38,-125 -27,-67 -55,-133 -82,-199 -83,-205 -205,-391 -293,-593 128,106 193,264 252,415 29,73 57,143 96,212 47,83 101,166 117,261 -16,10 -32,19 -48,27 -1,1 -3,2 -4,2zm-57 29c-4,-6 -7,-13 -11,-19 -77,-145 -174,-280 -256,-422 -83,-147 -150,-298 -189,-463 -1,-4 -8,-3 -8,1 3,56 15,111 32,165 -26,-52 -55,-101 -86,-145 15,-7 30,-13 45,-20 36,-15 72,-30 106,-49 70,206 197,390 272,595 22,61 47,120 71,180 12,32 25,64 37,96 4,11 7,23 12,34 2,6 7,21 9,15 -2,6 1,10 5,13 -13,6 -26,13 -39,19zm-362 -174c-6,-7 -45,-43 -39,-52 11,-17 20,-35 27,-53 6,-17 11,-34 15,-51 58,53 115,105 171,159 30,29 59,59 87,91 27,29 48,63 75,92 -39,17 -78,34 -118,49 -78,-75 -149,-153 -218,-235zm-13 -421c22,47 47,93 71,137 61,112 128,223 198,332 -18,-17 -36,-34 -52,-49 -62,-59 -130,-112 -199,-162 4,-22 7,-44 8,-67 3,-63 -7,-128 -26,-191zm250 -66c55,120 112,240 161,362 -47,-82 -86,-164 -121,-251 -21,-52 -44,-108 -70,-162 10,16 21,32 31,48 -1,0 -2,2 -1,3zm1547 454c60,-11 131,-20 179,-62 10,-8 5,-27 -8,-30 -97,-16 -190,32 -285,31 0,-11 0,-25 0,-42 58,-42 167,-45 189,-117 11,-36 -45,-65 -68,-81 -66,-49 -126,-105 -185,-162 0,0 0,0 0,0 0,-2 -1,-4 -3,-4 -1,0 -1,0 -2,0 -3,-3 -5,-5 -8,-8 -2,-2 -5,-3 -8,-3 -94,-22 -147,-116 -230,-159 -9,-5 -23,5 -16,15 24,33 50,64 76,95 -26,-24 -52,-47 -82,-63 -7,-5 -15,4 -11,11 9,15 13,33 20,49 2,4 7,1 6,-2 -3,-10 -4,-19 -6,-29 42,40 82,91 137,110 9,2 13,-8 8,-14 -30,-37 -60,-74 -88,-112 43,39 82,84 131,114 -43,12 -77,40 -91,80 -45,-56 -86,-115 -125,-175 -3,-3 -7,-3 -9,0 -14,19 -14,36 -7,52 -2,0 -4,-1 -6,-1 -4,-1 -8,3 -6,7 7,15 28,24 41,33 0,0 0,0 0,0 4,2 8,-3 5,-7 -6,-8 -14,-18 -24,-26 -6,-14 -6,-30 1,-45 40,62 78,125 125,182 -3,18 -2,39 5,61 1,3 6,2 5,-1 -5,-21 -6,-39 -3,-55 6,-1 11,-9 6,-15 0,0 -1,-1 -1,-2 14,-40 53,-66 102,-78 9,5 19,9 29,12 5,2 9,1 13,-1 0,0 0,0 0,0 -11,18 -32,27 -49,37 -1,0 -2,1 -3,1 -1,0 -2,0 -3,0 -2,1 -4,3 -5,5 -23,12 -49,29 -55,54 -1,7 6,11 11,7 15,-13 26,-29 42,-41 3,-2 6,-4 10,-6 13,4 24,13 34,24 -54,0 -86,104 -104,252 -66,80 -135,155 -217,223 -101,82 -216,146 -335,197 -3,-42 -3,-83 1,-125 0,-4 -6,-6 -8,-3 -1,-1 -1,-2 -2,-3 -9,-13 -22,-25 -37,-34 76,-112 209,-167 327,-223 102,-50 227,-117 264,-233 2,-4 -5,-7 -7,-3 -129,231 -452,227 -591,447 -5,-77 -28,-150 -49,-224 -18,-63 -29,-127 -40,-191 0,-121 43,-243 15,-363 -13,-54 -50,-87 -99,-108 -68,-29 -148,3 -219,-6 -7,-1 -8,11 -1,13 11,3 22,5 33,6 -3,0 -5,4 -2,7 139,87 154,283 177,428 15,99 30,198 35,298 0,16 -4,75 13,96 -10,-3 -20,-5 -30,-7 0,-1 0,-1 0,-1 7,-68 0,-140 -5,-208 -6,-84 -17,-167 -33,-250 -24,-125 -64,-295 -184,-364 -6,-4 -11,5 -5,9 115,82 146,258 168,387 24,141 22,280 26,422 -29,-2 -57,0 -86,9 -86,-263 -279,-465 -423,-696 0,-1 0,-1 0,-1 14,-3 13,-27 -3,-27 -8,0 -13,5 -14,11 -35,-49 -77,-92 -129,-121 -2,-1 -4,0 -5,1 0,-1 -1,-2 -1,-3 13,-8 25,-16 37,-26 3,7 9,13 19,13 25,0 28,-32 11,-41 5,-6 10,-12 14,-18 42,-58 39,-139 23,-204 -1,-4 -7,-4 -7,1 3,107 -8,196 -105,256 -3,-8 -7,-16 -10,-24 -1,-2 -4,-2 -3,1 2,9 5,18 8,26 -50,30 -107,46 -159,69 0,0 0,0 0,0 -33,15 -64,33 -90,59 -64,65 -80,166 -86,252 -9,120 -11,245 -5,364 9,163 39,323 40,487 1,146 -5,291 19,436 10,55 23,109 27,165 5,54 6,109 7,163 2,105 4,209 27,312 21,93 65,186 151,234 11,6 25,-10 14,-18 -173,-144 -157,-388 -164,-592 -5,-117 -31,-226 -44,-342 -18,-150 -5,-302 -10,-453 -5,-164 -40,-326 -41,-490 -1,-111 -3,-227 15,-336 8,-49 24,-97 51,-138 25,-39 60,-63 99,-81 97,190 238,459 91,653 -4,5 -1,12 2,16 78,98 158,203 256,283 -5,2 -11,4 -16,6 -7,2 -6,14 2,13 2,0 4,0 7,0 -1,0 -2,1 -1,3 11,26 17,52 20,81 2,26 -4,52 -1,78 1,7 10,9 13,2 20,-51 -5,-119 -28,-164 -1,0 -1,-1 -1,-1 8,-1 16,-2 24,-3 6,3 13,1 17,-3 59,-13 114,-35 169,-62 33,-15 65,-32 97,-49 3,0 6,-2 7,-4 7,-3 13,-6 19,-10 35,-18 76,-33 106,-60 2,-2 3,-5 2,-7 34,5 69,15 99,24 40,12 74,30 109,48 4,6 10,9 17,8 13,7 26,13 40,19 6,3 13,0 17,-4 -8,41 -11,82 -12,124 0,30 -1,62 0,93 -23,-19 -58,-33 -78,-38 -70,-19 -147,-6 -217,7 -83,15 -165,39 -247,60 -61,15 -125,35 -188,37 -83,-41 -143,235 -153,276 -34,140 -56,285 -76,429 -29,-135 18,-281 35,-416 43,-342 -136,-683 -20,-1020 0,0 -1,0 -1,0 -123,322 31,653 -3,982 -16,153 -78,318 -40,470 16,66 54,124 70,190 21,87 -11,172 -14,258 0,13 18,15 22,3 21,-67 28,-143 27,-213 -1,-67 -28,-128 -54,-188 -6,-13 -11,-26 -15,-39 27,-123 45,-248 74,-371 7,-34 69,-331 136,-347 7,1 13,2 19,3 0,0 0,0 0,0 2,1 3,1 4,0 41,4 83,-5 123,-12 77,-15 153,-37 230,-55 76,-17 154,-31 231,-28 31,1 62,7 89,21 22,12 32,38 53,49 0,0 0,1 0,2 2,6 10,8 15,6 0,1 1,2 3,2 38,4 74,11 110,21 25,6 39,60 46,80 22,61 32,127 43,191 23,141 62,279 85,421 53,313 53,632 47,948 -9,442 -39,883 -73,1324 -18,242 -39,484 -62,725 -19,203 -50,406 -58,609 0,0 1,0 1,1 -100,66 -202,-188 -271,-228 -4,-3 -12,-3 -15,2 -58,74 -83,160 -109,248 -30,-62 -34,-136 -46,-203 -2,-11 -20,-13 -24,-3 -26,58 -39,121 -60,181 -12,-46 -18,-93 -27,-138 -2,-12 -21,-15 -27,-4 -31,64 -42,136 -67,202 -20,-70 -10,-150 -20,-222 -2,-12 -17,-10 -23,-3 -48,63 -67,141 -108,206 -6,-63 4,-127 6,-191 1,-15 -23,-23 -29,-8 -24,53 -41,108 -63,161 -1,-80 12,-161 9,-242 -1,-14 -20,-16 -25,-3 -37,91 -33,204 -83,290 -16,-106 3,-212 -2,-319 -1,-13 -21,-21 -27,-7 -67,139 -81,316 -186,435 -68,-124 18,-295 6,-428 -1,-13 -18,-23 -28,-11 -60,67 -103,146 -143,226 5,-62 11,-124 2,-187 -2,-12 -19,-15 -27,-7 -63,63 -113,136 -165,207 15,-68 33,-135 41,-204 1,-15 -19,-21 -29,-11 -54,50 -89,114 -127,175 28,-78 63,-153 87,-232 3,-9 -6,-20 -16,-16 -92,39 -151,121 -205,204 19,-50 44,-98 64,-147 6,-14 -13,-26 -24,-19 -55,35 -98,83 -138,134 11,-33 21,-65 26,-99 2,-16 -14,-27 -27,-16 -28,25 -53,51 -77,79 21,-44 39,-89 53,-136 2,-9 -7,-20 -16,-17 -38,14 -72,35 -102,60 8,-19 15,-39 22,-59 3,-12 -10,-21 -20,-15 -80,44 -138,117 -207,175 54,-71 115,-137 161,-213 5,-9 -4,-24 -15,-19 -144,56 -282,128 -406,220 24,-30 49,-60 71,-92 6,-8 -7,-14 -12,-7 -41,53 -89,102 -130,155 0,1 0,1 0,1 0,0 0,0 0,0 -1,0 -2,1 -2,2 -9,11 9,21 18,14 132,-103 277,-190 432,-254 -59,85 -134,158 -189,246 -8,13 8,28 21,21 93,-53 155,-144 240,-206 -10,29 -23,56 -37,83 -53,62 -94,139 -121,210 -7,16 20,27 28,12 34,-64 72,-125 105,-189 36,-45 77,-84 125,-108 -27,85 -74,161 -112,241 -9,18 15,32 26,15 39,-56 81,-111 129,-160 -13,51 -34,99 -53,149 -6,14 17,28 26,15 47,-61 92,-127 150,-178 -28,63 -58,126 -72,195 -4,18 18,26 29,12 68,-93 125,-208 224,-271 -26,103 -92,195 -118,298 -4,16 17,30 29,17 58,-66 93,-148 147,-216 -13,72 -35,143 -48,215 -2,15 17,32 29,17 63,-78 118,-164 184,-239 6,76 -11,151 -13,227 -1,18 24,24 32,9 49,-87 87,-180 146,-260 -5,139 -78,300 8,421 7,9 20,12 29,3 105,-101 128,-254 172,-390 -3,96 -15,191 7,286 2,11 20,17 28,7 49,-58 62,-131 74,-205 -6,59 -14,118 -8,177 2,17 24,26 34,9 23,-41 38,-85 53,-130 -3,45 -3,89 5,133 2,11 18,16 25,7 53,-63 71,-145 110,-215 7,80 -11,161 25,237 5,12 24,11 30,0 33,-61 41,-130 61,-196 7,46 12,92 28,136 4,12 24,18 31,4 28,-57 37,-120 54,-180 10,68 14,136 53,195 8,13 26,10 30,-4 31,-89 46,-187 99,-267 84,70 156,324 290,218 10,2 21,-2 23,-14 40,-191 51,-392 69,-586 23,-241 43,-482 61,-723 34,-441 63,-883 68,-1325 1,-93 2,-187 0,-280 78,-125 182,-236 279,-346 73,-84 190,-163 207,-280 12,-83 -21,-161 -104,-185 -45,-13 -211,-14 -235,-70 0,-10 0,-20 0,-30 1,-4 3,-9 6,-14 44,-76 137,-85 213,-100 40,-7 155,-21 159,-78 5,-60 -96,-57 -133,-59 -37,-2 -75,-1 -111,-12 -58,-18 24,-61 44,-67 58,-19 160,-20 192,-82 5,-10 2,-21 -8,-27 -33,-25 -77,-32 -117,-40 -36,-7 -112,-15 -99,-66 27,-104 205,-76 266,-154 7,-9 6,-19 -3,-26 -27,-20 -139,-38 -218,-69 13,-53 24,-106 31,-161 41,-11 86,-16 120,-22z"/>
   <path class="fil4" d="M3232 1192c-16,5 -32,7 -49,7 39,-20 79,-46 122,-49 -17,22 -48,34 -73,42zm-14 -111c-5,13 -13,25 -21,37 7,-12 14,-25 21,-37zm-128 291c10,-21 21,-42 33,-63 -8,22 -19,44 -33,63zm13 -117c-2,3 -5,5 -7,8 -23,22 -50,40 -77,57 20,-32 47,-54 84,-65zm-126 -79c38,0 74,22 111,36 -39,-6 -75,-19 -111,-36zm135 -98c4,23 4,46 4,68 -6,-22 -9,-47 -4,-68zm222 38c-37,-3 -77,11 -112,32 1,-2 2,-3 3,-5 28,-39 44,-87 45,-135 0,-14 -19,-23 -28,-12 -42,48 -75,105 -86,167 -1,2 -2,3 -4,4 0,-11 -1,-21 -1,-29 0,-39 -2,-79 -19,-114 -5,-11 -20,-12 -28,-4 -28,28 -29,69 -24,107 3,16 10,38 22,55 -61,-29 -121,-64 -188,-29 -13,6 -12,27 0,34 45,24 96,47 148,49 -54,21 -92,66 -107,131 -4,16 14,34 30,23 22,-15 53,-33 82,-54 -19,31 -33,64 -42,101 -5,19 15,33 32,25 70,-35 114,-134 121,-209 0,-2 -1,-5 -2,-7 28,-1 58,-10 76,-16 41,-15 91,-45 100,-91 2,-12 -5,-22 -18,-23z"/>
   <path class="fil4" d="M2587 2072c-12,11 -27,20 -42,26 -3,1 -5,2 -7,3 20,-35 48,-62 80,-84 -3,21 -14,39 -31,55zm-81 -2c-17,-32 -29,-66 -19,-99 12,19 18,40 20,63 2,12 1,24 -1,36zm136 -78c-1,-8 -12,-11 -17,-8 -39,27 -73,57 -95,99 7,-48 -14,-101 -37,-139 -4,-6 -12,-7 -17,-2 -49,43 -9,109 28,150 0,4 0,8 0,11 -19,-9 -44,-12 -62,-21 -19,-9 -34,-20 -47,-34 36,11 72,25 97,50 2,3 6,-1 4,-4 -21,-49 -87,-64 -131,-86 -11,-6 -26,3 -22,16 12,34 38,58 68,77 24,16 77,42 106,30 1,0 2,-1 3,-2 1,1 2,2 3,3 29,15 71,-24 90,-44 24,-27 34,-61 29,-96z"/>
   <path class="fil4" d="M2382 2107c-23,1 -47,3 -70,1 -15,0 -17,21 -4,26 26,8 52,12 78,1 14,-6 14,-29 -4,-28z"/>
   <path class="fil4" d="M2322 2147c-13,0 -13,20 0,20 13,0 13,-20 0,-20z"/>
   <path class="fil4" d="M2305 2174c-1,-11 -8,-19 -19,-19 -11,0 -17,8 -19,19 0,1 0,2 0,3 -1,10 10,19 19,19 10,0 21,-9 19,-19 0,-1 0,-2 0,-3z"/>
   <path class="fil4" d="M2226 2169c-24,0 -24,36 0,36 23,0 23,-36 0,-36z"/>
   <path class="fil4" d="M2170 2189c-23,0 -23,36 0,36 23,0 23,-36 0,-36z"/>
   <path class="fil4" d="M2089 2178c-25,0 -25,39 0,39 25,0 25,-39 0,-39z"/>
   <path class="fil4" d="M2079 2151c-14,0 -14,21 0,21 14,0 14,-21 0,-21z"/>
   <path class="fil4" d="M2162 2166c0,-2 -1,-4 -1,-6 -5,-21 -32,-27 -46,-13 -14,15 -8,42 12,46 2,1 4,1 6,2 18,4 34,-11 29,-29z"/>
   <path class="fil4" d="M2205 2126c-26,0 -26,41 0,41 27,0 27,-41 0,-41z"/>
   <path class="fil4" d="M2288 2125c-2,-3 -3,-4 -6,-6 4,3 -2,-2 -3,-3 -4,-2 -8,-4 -13,-3 -6,0 -12,4 -13,10 -2,6 1,13 8,16 1,2 2,3 4,4 7,4 15,3 21,-2 4,-4 5,-11 2,-16z"/>
   <path class="fil4" d="M2651 2085c-15,0 -15,22 0,22 15,0 15,-22 0,-22z"/>
   <path class="fil4" d="M2671 2020c-26,0 -26,40 0,40 26,0 26,-40 0,-40z"/>
   <path class="fil4" d="M2732 2078c-13,0 -18,10 -17,20 -4,-3 -9,-4 -14,-4 -21,0 -34,28 -17,43 0,0 0,0 0,0 10,10 25,10 35,0 0,0 0,0 0,0 7,-7 9,-16 7,-24 2,1 4,1 6,1 23,0 23,-36 0,-36z"/>
   <path class="fil4" d="M2752 2114c-23,0 -23,35 0,35 23,0 23,-35 0,-35z"/>
   <path class="fil4" d="M2048 2228c-25,0 -25,40 0,40 26,0 26,-40 0,-40z"/>
   <path class="fil4" d="M2139 2227c-1,-6 -8,-13 -14,-14 -9,-2 -16,-1 -24,3 -14,7 -16,29 -5,40 11,11 32,9 40,-5 4,-8 5,-15 3,-24z"/>
   <path class="fil4" d="M2353 2048c-8,-8 -16,-6 -26,-5 -17,3 -17,33 0,35 10,1 18,3 26,-5 7,-7 7,-18 0,-25z"/>
   <path class="fil4" d="M2413 2125c-22,0 -22,34 0,34 22,0 22,-34 0,-34z"/>
   <path class="fil4" d="M2187 2080c-2,1 -4,2 -6,2 -10,3 -14,17 -6,24 8,8 21,4 24,-6 1,-2 1,-4 2,-6 2,-8 -6,-16 -14,-14z"/>
   <path class="fil4" d="M2276 2051c-25,0 -25,39 0,39 25,0 25,-39 0,-39z"/>
   <path class="fil4" d="M2139 2083c-11,0 -20,12 -16,23 0,1 0,3 1,4 4,16 27,16 31,0 1,-1 1,-3 1,-4 4,-11 -5,-23 -17,-23z"/>
   <path class="fil4" d="M2338 2163c-2,1 -4,1 -5,2 -10,1 -18,6 -18,17 0,12 11,18 21,16 10,-1 17,-8 20,-17 3,-10 -8,-21 -18,-18z"/>
   <path class="fil4" d="M2474 2135c-22,0 -22,33 0,33 21,0 21,-33 0,-33z"/>
   <path class="fil4" d="M2408 1981c-19,0 -19,28 0,28 18,0 18,-28 0,-28z"/>
   <path class="fil4" d="M2528 1936c-2,-1 -3,-1 -5,-2 -9,-3 -19,6 -19,15 0,10 10,19 19,15 2,0 3,-1 5,-1 13,-5 13,-22 0,-27z"/>
   <path class="fil4" d="M2542 1993c-11,3 -16,16 -11,26 7,11 24,11 30,0 9,-13 -4,-30 -19,-26z"/>
   <path class="fil4" d="M2577 1977c0,1 1,3 1,4 1,7 12,7 14,0 0,-1 0,-3 1,-4 2,-13 -18,-13 -16,0z"/>
   <path class="fil4" d="M2620 2116c-20,0 -20,31 0,31 21,0 21,-31 0,-31z"/>
   <path class="fil4" d="M2565 2132c-6,1 -9,3 -14,5 -9,6 -11,19 -3,26 8,8 20,6 26,-3 3,-4 5,-8 5,-13 0,-8 -7,-15 -14,-15z"/>
   <path class="fil4" d="M2697 2155c0,-1 -1,-2 -2,-3 0,0 0,0 0,0 -1,-1 -1,-2 -2,-2 0,-1 0,-1 0,-2 -2,-12 -21,-12 -24,0 0,1 0,1 0,2 0,0 -1,1 -1,1 0,0 0,0 0,0 -4,4 -6,9 -6,14 0,4 2,9 6,13 3,4 8,6 13,6 5,0 10,-2 14,-6 3,-3 4,-7 5,-11 0,-4 0,-8 -3,-12z"/>
   <path class="fil4" d="M2712 2004c-21,0 -21,32 0,32 20,0 20,-32 0,-32z"/>
   <path class="fil4" d="M1927 1037c-28,0 -28,43 0,43 27,0 27,-43 0,-43z"/>
   <path class="fil4" d="M1952 1108c-20,0 -20,32 0,32 21,0 21,-32 0,-32z"/>
   <path class="fil4" d="M1998 1143c-22,0 -22,33 0,33 21,0 21,-33 0,-33z"/>
   <path class="fil4" d="M2053 1200c-19,0 -19,30 0,30 20,0 20,-30 0,-30z"/>
   <path class="fil4" d="M2119 1218c-23,0 -23,35 0,35 23,0 23,-35 0,-35z"/>
   <path class="fil4" d="M2185 1211c-25,0 -25,39 0,39 25,0 25,-39 0,-39z"/>
   <path class="fil4" d="M2231 1194c-2,1 -4,2 -5,3 -7,2 -12,6 -14,13 -2,7 0,14 5,19 5,5 12,6 19,5 7,-2 11,-7 13,-14 1,-2 2,-4 2,-6 5,-11 -8,-24 -20,-20z"/>
   <path class="fil4" d="M2303 1175c-1,-2 -2,-3 -4,-5 -7,-7 -18,-7 -26,0 -1,2 -2,3 -3,5 -9,12 2,29 16,29 14,0 25,-17 17,-29z"/>
   <path class="fil4" d="M2296 1090c-23,0 -23,37 0,37 24,0 24,-37 0,-37z"/>
   <path class="fil4" d="M2314 1060c1,-7 -3,-15 -13,-15 -2,0 -5,1 -6,2 -10,1 -17,11 -15,21 3,9 12,16 21,15 7,0 13,-4 15,-11 1,-4 0,-8 -2,-12z"/>
   <path class="fil4" d="M2145 1383c-5,-7 -16,-11 -24,-6 -7,4 -11,12 -9,20 3,11 16,17 26,11 9,-5 12,-16 7,-25z"/>
   <path class="fil4" d="M2180 1415c-23,0 -23,36 0,36 23,0 23,-36 0,-36z"/>
   <path class="fil4" d="M2261 1427c-10,-10 -26,-7 -34,5 -1,2 -3,4 -4,6 -11,17 11,39 28,28 2,-2 4,-3 6,-4 12,-8 15,-24 4,-35z"/>
   <path class="fil4" d="M2327 1403c-2,-5 -9,-9 -15,-9 -6,0 -10,3 -14,6 -3,3 -5,5 -7,8 4,-5 1,-2 0,-1 -8,9 -8,23 0,31 8,8 23,9 31,0 2,-3 5,-6 6,-9 4,-9 4,-17 -1,-26z"/>
   <path class="fil4" d="M2364 1365c-3,-4 -7,-7 -12,-8 -13,-2 -22,7 -20,20 1,5 4,9 8,12 7,6 17,8 24,0 8,-7 6,-17 0,-24z"/>
   <path class="fil4" d="M2357 1291c-20,0 -20,31 0,31 20,0 20,-31 0,-31z"/>
   <path class="fil4" d="M2352 1228c-22,0 -22,35 0,35 23,0 23,-35 0,-35z"/>
   <path class="fil4" d="M2332 1154c-21,0 -21,32 0,32 21,0 21,-32 0,-32z"/>
   <path class="fil1" d="M3568 3977c-57,-84 -120,-163 -170,-253 -50,-90 -89,-186 -120,-285 -63,-198 -88,-406 -94,-613 -7,-209 4,-424 38,-630 38,-235 139,-456 171,-691 46,173 35,349 10,525 -23,164 -49,327 -61,492 -12,168 -21,341 -8,509 13,154 84,299 149,436 5,10 21,3 17,-7 -60,-156 -137,-296 -146,-467 -10,-168 3,-341 20,-509 17,-169 45,-337 65,-506 19,-164 17,-329 -39,-486 -2,-6 -12,-3 -10,3 -2,0 -3,1 -4,3 -32,114 -63,229 -101,342 -41,119 -79,239 -103,364 -39,208 -52,425 -49,637 3,212 31,425 93,628 58,190 153,403 303,538 20,18 56,-6 39,-30z"/>
   <path class="fil1" d="M3132 918c-24,0 -24,37 0,37 23,0 23,-37 0,-37z"/>
   <path class="fil1" d="M2975 784c-34,0 -34,53 0,53 34,0 34,-53 0,-53z"/>
   <path class="fil1" d="M3030 841c-19,0 -19,30 0,30 20,0 20,-30 0,-30z"/>
   <path class="fil1" d="M3101 795c-13,0 -13,21 0,21 14,0 14,-21 0,-21z"/>
   <path class="fil1" d="M3208 746c-24,0 -24,37 0,37 23,0 23,-37 0,-37z"/>
   <path class="fil1" d="M3127 823c-29,0 -29,45 0,45 29,0 29,-45 0,-45z"/>
   <path class="fil1" d="M2985 689c-19,0 -19,30 0,30 19,0 19,-30 0,-30z"/>
   <path class="fil1" d="M3122 700c-19,0 -19,28 0,28 18,0 18,-28 0,-28z"/>
   <path class="fil1" d="M3147 582c-13,0 -13,21 0,21 13,0 13,-21 0,-21z"/>
   <path class="fil1" d="M2782 807c-10,0 -10,16 0,16 11,0 11,-16 0,-16z"/>
   <path class="fil1" d="M2762 906c-19,0 -19,31 0,31 20,0 20,-31 0,-31z"/>
   <path class="fil1" d="M2899 847c-31,0 -31,48 0,48 30,0 30,-48 0,-48z"/>
   <path class="fil1" d="M2998 898c-4,-13 -22,-13 -26,0 -3,8 -1,15 6,20 4,2 10,2 14,0 7,-5 8,-12 6,-20z"/>
   <path class="fil1" d="M2858 958c-18,0 -18,29 0,29 19,0 19,-29 0,-29z"/>
   <path class="fil1" d="M3218 913c-11,0 -11,17 0,17 11,0 11,-17 0,-17z"/>
   <path class="fil1" d="M3279 1032c-22,0 -22,32 0,32 21,0 21,-32 0,-32z"/>
   <path class="fil2" d="M2017 171c91,-13 181,-30 273,-26 52,2 110,12 142,57 31,42 28,99 63,138 8,9 24,0 20,-11 -14,-47 -32,-120 -67,-156 -32,-33 -74,-48 -119,-53 -107,-10 -212,16 -316,36 -10,2 -6,16 4,15z"/>
   <path class="fil2" d="M1761 419c15,-18 32,-34 50,-47 34,-25 43,3 43,35 0,61 -90,124 -165,135 0,-1 0,-2 1,-2 11,-47 41,-86 71,-121zm113 -19c0,0 0,0 0,0 0,0 0,0 0,-1 0,0 0,1 0,1zm99 -230c-32,38 -61,89 -80,143 -6,-74 9,-137 80,-143zm-186 417c-5,30 -17,69 -44,80 -6,-32 11,-65 44,-80zm-132 -20c-8,45 -3,93 32,118 13,8 26,12 39,11 6,15 17,29 33,41 5,3 13,2 17,-3 2,-1 3,-4 4,-6 51,27 113,29 162,-7 15,-11 2,-33 -15,-25 -50,24 -96,28 -146,1 -5,-3 -12,-3 -17,2 -1,1 -1,2 -2,4 -4,-4 -7,-8 -10,-13 20,-9 36,-26 45,-47 9,-23 12,-46 11,-71 0,-6 -6,-11 -12,-9 -51,16 -81,62 -77,106 0,0 -1,0 -1,0 -41,-8 -40,-62 -34,-101 4,-1 8,-1 12,-2 72,-10 154,-63 174,-135 1,-3 2,-7 3,-11 -3,58 12,113 50,155 12,13 29,-1 27,-15 -7,-38 -34,-115 -48,-191 3,-21 7,-41 12,-60 10,-42 28,-83 52,-120 20,-30 2,7 -3,20 -5,16 -8,34 -10,51 -10,106 26,225 97,309 -5,8 -6,21 -7,27 0,4 5,5 7,2 3,-6 5,-14 8,-20 28,30 60,56 97,73 9,5 17,-8 8,-13 -149,-87 -252,-301 -180,-468 8,-1 7,-12 0,-13 -122,-15 -133,94 -115,207 -9,-21 -27,-34 -56,-19 -57,29 -108,94 -135,151 -7,13 -13,29 -17,47 -32,-2 -58,-18 -68,-51 -12,-41 18,-95 38,-129 18,-28 44,-54 67,-53 -1,16 10,32 40,46 8,4 17,-2 15,-11 -6,-22 -17,-41 -32,-52 0,-2 1,-4 1,-6 14,-12 29,-19 46,-23 6,-2 4,-10 -2,-9 -24,6 -45,17 -57,31 -4,-1 -9,-2 -13,-3 -28,-24 -40,-58 -19,-94 25,-42 78,-50 121,-31 3,2 6,-3 3,-5 -46,-33 -104,-24 -136,23 -28,39 -17,82 14,109 -9,3 -19,8 -30,16 -49,42 -89,115 -88,181 1,56 47,81 95,85z"/>
   <path class="fil2" d="M2467 420c0,-3 -6,-4 -6,-1 -13,80 -37,163 -3,241 6,14 16,26 28,36 18,15 3,27 -5,50 -23,66 -22,138 -37,206 0,1 0,1 0,2 -103,15 -190,-57 -231,-149 2,-3 5,-6 7,-9 4,-7 0,-20 -9,-21 -28,-5 -55,-6 -81,-3 37,-30 71,-65 83,-111 15,-57 -53,-89 -94,-106 -1,0 -1,2 -1,2 61,28 118,75 67,141 -29,37 -73,64 -113,88 -11,7 -4,27 10,23 33,-11 65,-13 97,-9 -40,39 -103,52 -139,101 -7,9 3,26 15,25 28,-3 80,-12 91,25 8,29 -7,69 -14,97 -2,10 3,21 14,24 27,7 46,6 73,-3 20,-7 12,-35 -8,-31 -13,3 -25,3 -37,1 8,-38 16,-79 0,-115 -13,-29 -47,-35 -79,-35 34,-28 79,-42 110,-74 38,100 156,201 262,148 5,-2 4,-7 2,-10 21,-83 22,-169 52,-250 2,-4 -1,-9 -4,-11 -82,-54 -53,-189 -50,-272z"/>
   <path class="fil2" d="M2009 1486c-70,-129 -139,-259 -179,-401 0,0 0,0 0,0 24,129 80,249 139,364 31,62 63,122 92,184 17,34 32,68 46,103 12,30 18,65 38,91 4,5 13,4 13,-4 3,-51 -34,-111 -55,-156 -29,-62 -62,-121 -94,-181z"/>
   <path class="fil2" d="M2423 1720c6,48 12,106 40,148 7,9 20,3 18,-7 -13,-60 -29,-117 -37,-178 -8,-76 -13,-152 -22,-227 -15,-132 -40,-267 -126,-372 -1,-1 -3,1 -2,2 87,120 99,282 110,425 6,69 10,139 19,209z"/>
   <path class="fil2" d="M2132 1983c-18,-9 -38,-13 -56,-22 -30,-14 -57,-33 -83,-52 -53,-39 -105,-83 -151,-130 -5,-5 -12,2 -8,8 46,56 98,105 155,149 31,24 97,81 140,64 7,-2 10,-13 3,-17z"/>
   <path class="fil2" d="M2703 913c30,-30 54,5 62,36 -4,-4 -10,-6 -15,-3 -19,15 -37,43 -31,69 4,22 20,23 35,16 -1,21 -14,28 -36,17 -17,-8 -27,-25 -32,-42 -8,-30 -5,-70 17,-93zm30 156c26,2 32,-20 28,-41 4,-2 8,-5 11,-8 50,-42 18,-150 -53,-140 -61,8 -70,98 -49,143 12,24 35,45 63,46z"/>
   <path class="fil2" d="M2826 880c13,-29 45,-46 76,-50 13,-1 27,2 32,13 -5,0 -10,1 -15,3 -22,8 -46,26 -56,47 -4,9 0,18 8,22 0,0 0,1 0,1 -15,2 -34,3 -45,-7 -9,-7 -4,-21 0,-29zm79 35c10,-2 20,-5 29,-11 -9,9 -20,15 -29,11zm71 42c17,-19 52,-32 77,-23 -3,1 -6,2 -9,3 -20,7 -12,38 9,32 1,0 1,0 2,0 -1,4 -1,8 1,11 -9,3 -18,6 -27,8 -8,-8 -17,-9 -27,2 -1,1 -2,2 -2,3 -2,0 -4,0 -5,0 -27,2 -40,-14 -19,-36zm59 140c0,1 0,1 0,1 -16,-2 -28,-39 -30,-47 -1,-5 -1,-15 1,-24 8,-2 16,-3 23,-6 9,23 9,54 6,76zm66 -58c17,-7 19,1 4,23 -8,9 -19,16 -28,22 -3,2 -6,4 -9,6 -4,1 -7,2 -10,3 -1,0 -1,0 -2,0 6,-20 32,-44 45,-54zm18 125c2,5 4,11 4,17 0,1 0,1 0,1 0,0 0,0 0,0 -24,-10 -44,-39 -60,-59 3,-2 6,-4 9,-7 21,-4 40,29 47,48zm-186 -169c-1,0 -2,-1 -2,-1 0,0 1,-1 1,-1 0,1 1,1 1,2zm-28 57c-1,1 -1,1 -2,2 0,-1 0,-1 0,-1 1,0 1,-1 2,-1zm-55 -24c-5,-13 -3,-26 4,-38 7,-12 28,-31 42,-18 9,7 7,18 3,28 0,0 0,0 -1,0 -10,7 -17,18 -20,31 -3,0 -6,0 -10,0 -6,0 -9,4 -9,8 -4,-2 -7,-5 -9,-11zm88 231c-6,5 -8,15 -1,21 -8,17 -25,31 -45,35 -1,0 -1,1 -2,1 -2,-2 -4,-4 -6,-6 -6,-5 -10,-9 -11,-12 5,0 11,-1 18,-3 5,-1 8,-7 7,-12 -10,-29 -41,-41 -45,-7 -8,-4 -12,-13 -10,-28 3,-17 15,-43 34,-44 10,0 13,11 21,13 20,6 30,0 39,23 2,6 3,12 4,17 -1,1 -2,1 -3,2zm30 62c-10,18 -31,18 -47,13 -10,-3 -18,-8 -25,-14 25,-1 43,-15 51,-35 10,4 19,5 27,5 1,10 -2,24 -6,31zm-135 -141c-28,0 -35,-33 -36,-55 0,-7 -6,-9 -11,-8 0,-7 -2,-16 -6,-27 -1,-2 -3,-5 -5,-6 5,-6 15,-8 28,-5 17,4 26,12 28,22 -15,13 -24,32 -19,56 2,10 15,13 22,6 13,-15 21,-32 23,-48 14,-7 29,-3 24,20 -5,24 -23,45 -48,45zm169 -65c-25,5 -49,-1 -68,-17 25,-7 48,-4 68,17zm-187 -195c17,11 39,5 56,-2 4,12 10,19 18,24 -20,0 -40,14 -51,28 -13,20 -20,51 -3,70 10,12 22,15 34,12 3,1 5,2 8,2 1,9 4,18 9,26 3,5 11,8 17,4 19,-13 46,-37 55,-64 8,4 16,6 24,7 -2,16 1,32 8,49 9,19 25,40 45,41 -18,37 -45,85 -84,79 6,-33 32,-55 61,-70 2,-1 5,-2 8,-4 5,-3 1,-12 -5,-10 -2,1 -5,1 -7,2 0,-1 0,-1 -1,-2 -22,-35 -55,-38 -93,-28 -5,2 -9,9 -5,14 15,21 37,33 61,35 -25,16 -43,40 -46,73 0,0 0,1 0,1 -1,0 -3,-1 -5,-2 -11,-4 -24,-15 -37,-18 14,-14 24,-34 26,-55 4,-40 -26,-51 -54,-43 -6,-16 -20,-28 -44,-34 -20,-5 -42,-2 -56,12 -6,6 -10,13 -11,20 -36,13 -56,44 -43,87 12,43 49,90 96,91 4,0 4,-6 0,-6 -68,-5 -117,-119 -52,-148 2,10 6,20 10,29 3,6 14,7 19,2 1,-1 2,-2 3,-4 -5,33 14,66 51,69 4,1 7,1 10,0 -21,29 -18,79 18,89 1,3 2,6 3,9 -21,-10 -44,-15 -66,-5 -17,7 -29,25 -24,43 5,27 41,33 64,33 9,1 22,1 29,-6 9,-10 -3,-19 -12,-18 -17,1 -33,3 -49,-1 -16,-5 -26,-23 -13,-37 20,-20 52,-12 75,-1 17,30 56,56 86,49 35,-8 60,-41 53,-78 0,0 -1,-1 -1,-1 19,5 37,7 57,7 11,0 10,-15 0,-16 -19,-2 -35,-7 -51,-14 0,-6 0,-13 -2,-22 -1,-8 -14,-12 -20,-5 -4,6 -8,11 -11,17 -7,-2 -14,-1 -22,2 0,-3 -1,-6 -1,-9 -2,-8 -6,-16 -12,-23 50,17 85,-27 107,-72 21,25 51,62 83,62 24,1 23,-30 19,-46 -6,-24 -25,-53 -48,-67 32,-25 61,-58 22,-83 -21,-13 -50,17 -69,47 -2,-15 -5,-31 -9,-45 19,-8 38,-19 54,-31 9,-4 17,-11 25,-22 1,-1 2,-2 2,-3 4,-4 4,-11 0,-15 -2,-3 -4,-5 -7,-6 -18,-8 -37,-11 -56,-7 2,-2 2,-5 0,-7 -36,-31 -115,4 -129,45 -2,1 -5,2 -7,3 -2,-6 -6,-13 -11,-19 -2,-3 -5,-5 -8,-7 10,0 21,-2 31,-7 28,-13 43,-41 37,-71 -1,-7 -4,-13 -9,-17 1,-33 -30,-53 -63,-50 -44,3 -87,34 -99,78 -4,13 -1,31 12,40z"/>
   <path class="fil2" d="M3002 741c18,28 20,63 34,93 0,0 0,1 0,1 -2,3 -4,6 -6,9 -14,-12 -26,-26 -37,-40 -8,-11 -13,-22 -17,-34 -6,-15 10,-53 26,-29zm53 15c16,15 17,30 5,47 -1,1 -1,2 -2,3 -2,2 -4,5 -6,8 -1,-3 -2,-6 -2,-9 -3,-16 -2,-32 5,-49zm121 119c-20,13 -56,6 -85,-3 0,0 0,0 0,-1 6,-4 13,-9 21,-16 7,-4 14,-8 21,-12 9,-5 19,-8 30,-9 19,-2 26,31 13,41zm-150 -18c3,5 12,8 18,3 0,0 0,0 0,0 21,-25 40,-52 67,-71 20,0 24,5 11,16 -5,7 -12,13 -19,19 -2,2 -4,4 -6,6 -10,6 -19,13 -27,20 -3,4 -5,8 -4,12 -2,-1 -4,-2 -5,-3 -15,-7 -34,13 -19,25 33,29 168,59 170,-16 2,-51 -25,-66 -57,-62 7,-13 6,-27 -7,-39 -20,-18 -44,-7 -65,12 1,-15 -3,-31 -13,-45 -2,-3 -6,-4 -9,-1 -11,9 -19,20 -23,33 -13,-39 -33,-78 -62,-60 -67,42 -6,128 50,151z"/>
   <path class="fil3" d="M2928 644c1,-2 2,-3 4,-4 8,-10 -5,-23 -15,-15 -1,1 -2,3 -4,4 -10,9 6,25 15,15z"/>
   <path class="fil2" d="M3009 672c9,0 9,-15 0,-15 -9,0 -9,15 0,15z"/>
   <path class="fil3" d="M3121 721c1,0 1,-1 0,-1 -1,0 -1,1 0,1z"/>
   <g>
    <path class="fil2" d="M2749 800c-3,0 -7,1 -10,4 -5,4 -6,14 0,18 6,5 13,8 21,3 7,-4 9,-12 7,-19 -2,-8 -12,-11 -18,-6z"/>
    <path class="fil2" d="M2792 756c10,0 10,-15 0,-15 -10,0 -10,15 0,15z"/>
    <path class="fil2" d="M2868 758c-20,-3 -34,23 -19,38 15,15 41,1 38,-19 0,-11 -8,-19 -19,-19z"/>
    <path class="fil2" d="M2850 681c4,4 11,-3 7,-7 -1,-2 -2,-3 -3,-5 -6,-8 -17,3 -9,9 2,1 3,2 5,3z"/>
    <path class="fil2" d="M2927 729c3,-5 5,-11 5,-16 0,-17 -26,-22 -30,-5 -1,0 -1,0 -1,1 -7,5 -6,17 0,23 8,9 20,6 26,-3z"/>
    <path class="fil2" d="M2748 695c1,-1 3,-1 4,-1 13,-4 13,-23 0,-27 -1,0 -3,0 -4,-1 -9,-3 -19,5 -19,14 0,10 10,18 19,15z"/>
   </g>
   <path class="fil3" d="M2848 532c0,0 0,1 0,1 1,0 1,-1 0,-1z"/>
   <path class="fil3" d="M2870 582c8,-12 -3,-24 -15,-16 -6,4 -8,13 -3,18 6,6 14,4 18,-2z"/>
   <path class="fil3" d="M3015 628c3,0 6,-1 9,-2 4,-2 4,-9 0,-11 -3,-2 -6,-2 -9,-2 -13,-2 -13,17 0,15z"/>
   <path class="fil2" d="M3113 676c15,0 15,-23 0,-23 -15,0 -15,23 0,23z"/>
   <path class="fil2" d="M3044 722c6,5 13,6 20,4 2,0 3,-1 5,-1 17,-2 17,-30 0,-33 -2,0 -3,-1 -5,-1 -7,-2 -14,-1 -20,4 -4,4 -5,9 -5,14 0,4 1,9 5,13z"/>
   <path class="fil3" d="M3281 892c19,0 19,-30 0,-30 -19,0 -19,30 0,30z"/>
   <path class="fil2" d="M3173 961c-10,0 -10,16 0,16 11,0 11,-16 0,-16z"/>
   <path class="fil2" d="M3248 1072c-18,-1 -36,-13 -51,-24 4,1 8,1 12,-1 10,-7 20,-14 28,-22 9,-2 18,1 27,9 17,16 6,39 -16,38zm-72 -70c-3,6 5,11 9,7 16,-15 33,-26 53,-30 -3,6 -7,12 -12,17 -15,4 -29,14 -38,29 -3,4 -3,8 -2,12 -7,-9 -13,-19 -22,-24 -8,-5 -18,0 -21,8 -10,30 39,58 60,68 26,12 61,20 84,-2 23,-23 13,-67 -13,-83 -5,-3 -11,-6 -17,-8 4,-9 7,-19 8,-31 0,-6 -6,-12 -12,-12 -34,3 -57,22 -77,49z"/>
   <g>
    <g>
     <path class="fil2" d="M1934 1100c19,0 19,-29 0,-29 -18,0 -18,29 0,29z"/>
     <path class="fil2" d="M1991 1148c18,0 18,-29 0,-29 -19,0 -19,29 0,29z"/>
     <path class="fil2" d="M2043 1144c-8,-5 -18,-2 -22,5 -3,6 -6,13 -6,19 1,8 5,15 13,17 5,1 10,1 14,-1 7,-5 10,-12 7,-19 0,-1 1,-2 1,-3 3,-7 -1,-15 -7,-18z"/>
    </g>
    <path class="fil2" d="M2118 1178c0,-9 -7,-16 -15,-16 -9,0 -16,7 -16,16 0,8 7,15 16,15 8,0 15,-7 15,-15z"/>
    <path class="fil2" d="M2163 1205c2,0 5,-1 7,-2 4,-2 6,-5 7,-9 1,-2 0,-4 0,-7 0,0 0,0 0,0 -1,-1 -1,-2 -1,-2 0,-1 -1,-2 -2,-3 0,-1 -1,-1 -1,-1 0,-1 0,-1 0,-1 -5,-7 -15,-7 -20,0 0,0 0,0 0,1 -1,0 -1,0 -1,1 -1,1 -2,2 -2,3 0,0 -1,1 -1,2 0,0 0,0 0,0 0,3 -1,5 0,7 1,4 3,7 7,9 2,1 5,2 7,2z"/>
    <path class="fil2" d="M2219 1156c-23,0 -23,35 0,35 23,0 23,-35 0,-35z"/>
    <path class="fil2" d="M2256 1134c-11,10 -2,28 11,28 14,0 22,-18 12,-28 -1,-1 -2,-1 -2,-2 -6,-5 -14,-5 -19,0 -1,1 -2,1 -2,2z"/>
    <path class="fil2" d="M2275 1060c-17,0 -17,27 0,27 17,0 17,-27 0,-27z"/>
   </g>
   <g>
    <path class="fil2" d="M2059 1234c-1,1 -1,1 -1,1 -2,1 -3,3 -4,4 -7,14 15,22 19,8 -1,1 0,-1 1,-2 1,-2 2,-5 2,-7 -1,-10 -14,-12 -17,-4z"/>
    <path class="fil2" d="M2111 1292c12,0 23,-13 19,-25 -1,-2 -2,-4 -2,-6 -6,-16 -28,-16 -34,0 -1,2 -1,4 -2,6 -4,12 7,25 19,25z"/>
    <path class="fil2" d="M2171 1298c20,0 20,-32 0,-32 -20,0 -20,32 0,32z"/>
    <path class="fil2" d="M2223 1296c19,0 19,-29 0,-29 -19,0 -19,29 0,29z"/>
    <path class="fil2" d="M2279 1267c-1,-2 -1,-4 -1,-5 -2,-5 -5,-9 -9,-10 -3,-1 -7,-2 -10,-1 0,1 -1,1 -1,1 -1,0 -2,0 -2,1 -2,1 -4,1 -6,2 -42,19 42,61 29,12z"/>
    <path class="fil2" d="M2302 1244c0,0 0,-1 0,-1 5,-4 7,-12 5,-19 0,-7 -7,-14 -14,-14 -7,-2 -15,0 -19,5 -1,0 -1,0 -1,0 -7,8 -8,21 0,29 8,8 21,7 29,0z"/>
    <path class="fil2" d="M2311 1162c-15,0 -15,23 0,23 15,0 15,-23 0,-23z"/>
    <path class="fil2" d="M2295 1126c16,0 16,-25 0,-25 -16,0 -16,25 0,25z"/>
   </g>
   <path class="fil4" d="M2066 391c-5,3 -10,6 -15,9 0,0 1,0 1,-1 32,-35 22,-91 5,-130 -3,-8 -17,-6 -18,2 -3,17 -4,34 -5,51 -1,21 -10,38 -15,58 -4,15 12,29 25,24 -7,5 -13,9 -20,13 -1,-10 -4,-21 -6,-31 -4,-25 -10,-49 -25,-70 -4,-6 -13,-2 -11,5 3,23 4,46 5,70 0,4 0,10 0,15 -10,-12 -20,-24 -27,-39 -6,-13 -30,-7 -28,8 3,26 15,52 33,72 4,4 9,6 14,6 1,3 4,6 9,7 37,5 72,-17 97,-44 12,-13 -3,-33 -19,-25z"/>
   <path class="fil4" d="M2049 464c-26,-7 -55,1 -75,19 -3,-2 -6,-5 -8,-7 -11,-11 -20,-24 -28,-37 -8,-14 -26,-4 -24,10 4,24 19,50 40,66 -1,7 3,13 8,16 0,1 0,2 -1,4 -2,-1 -4,-1 -6,-1 -21,-6 -41,-12 -64,-15 -5,-1 -9,7 -6,11 13,21 29,33 52,42 8,4 17,7 26,9 1,4 2,8 3,12 8,24 30,58 57,58 9,0 14,-8 13,-16 -4,-21 -28,-36 -39,-54 5,-1 9,-4 13,-7 6,-6 6,-17 0,-24 -8,-7 -18,-10 -28,-12 0,-3 -1,-6 -1,-8 1,0 2,0 3,0 9,3 15,-3 17,-10 2,-1 3,-1 5,-2 14,-4 29,-5 43,-10 21,-7 23,-37 0,-44z"/>
  </g>
 </g>
</svg>
