<?xml version="1.0" encoding="UTF-8"?>
<!DOCTYPE svg PUBLIC "-//W3C//DTD SVG 1.1//EN" "http://www.w3.org/Graphics/SVG/1.1/DTD/svg11.dtd">
<!-- Creator: CorelDRAW X8 -->
<svg xmlns="http://www.w3.org/2000/svg" xml:space="preserve" width="3840px" height="6238px" version="1.1" style="shape-rendering:geometricPrecision; text-rendering:geometricPrecision; image-rendering:optimizeQuality; fill-rule:evenodd; clip-rule:evenodd"
viewBox="0 0 3840 6238"
 xmlns:xlink="http://www.w3.org/1999/xlink">
 <defs>
  <style type="text/css">
   <![CDATA[
    .fil0 {fill:#FEFEFE;fill-rule:nonzero}
    .fil2 {fill:#FEFEFE;fill-rule:nonzero}
    .fil1 {fill:#373435;fill-rule:nonzero}
    .fil3 {fill:#FBD2CD;fill-rule:nonzero}
    .fil5 {fill:#776A5E;fill-rule:nonzero}
    .fil4 {fill:#82B89F;fill-rule:nonzero}
   ]]>
  </style>
 </defs>
 <g id="Layer_x0020_1">
  <metadata id="CorelCorpID_0Corel-Layer"/>
  <g id="_738193120">
   <path class="fil0" d="M413 5765c43,-10 79,-26 95,-70 17,-45 21,-94 30,-141 6,-37 45,-47 75,-35 -3,-76 -11,-152 4,-228 7,-40 59,-57 92,-38 82,49 123,129 158,213 19,45 35,102 65,146 7,-54 -10,-118 -19,-163 -18,-91 -41,-183 -23,-277 8,-46 80,-66 110,-29 81,99 118,217 156,336 17,56 23,128 47,187 22,-75 -7,-170 -26,-242 -30,-116 -81,-241 -57,-363 10,-53 75,-56 110,-29 143,112 211,289 265,456 22,71 42,142 57,215 7,32 14,82 29,123 12,-48 8,-105 1,-157 -11,-27 -22,-54 -31,-80 -41,-114 -69,-233 -99,-350 -10,-41 24,-74 59,-78 -2,-35 28,-61 59,-64 14,-11 31,-15 50,-9 30,9 57,25 82,44 -6,-21 -11,-42 -16,-64 -14,-59 53,-93 98,-56 9,7 18,16 27,24 10,-14 20,-28 29,-42 -1,-4 -2,-7 -2,-11 -9,-42 24,-72 57,-72 25,-37 49,-74 74,-110 0,0 0,-1 0,-1 329,196 742,254 1094,85 -35,89 -74,177 -115,264 -1,4 -3,7 -4,11 -1,3 -2,5 -4,8 -50,109 -91,223 -123,339 24,99 49,198 50,297 0,19 -12,33 -27,41 13,25 26,50 38,78 13,32 -26,66 -57,56 -24,-8 -43,-21 -60,-37 -15,14 -33,25 -54,29 -305,56 -628,43 -928,-37 -15,-4 -29,-10 -41,-19 -16,-9 -30,-22 -41,-37 -12,40 -31,77 -60,109 -19,20 -55,25 -78,10 -127,-82 -130,-275 -169,-406 -30,-96 -61,-197 -109,-287 14,51 29,103 41,155 29,127 39,280 -72,372 -29,24 -65,26 -94,0 -56,-50 -80,-123 -98,-196 -7,46 -25,91 -58,130 -19,23 -55,23 -79,10 -79,-41 -117,-122 -148,-200 -14,-34 -27,-73 -43,-109 2,72 7,145 -8,217 -10,45 -69,54 -100,26 -1,-1 -1,-2 -2,-3 -6,19 -13,39 -22,57 -30,60 -94,91 -156,106 -68,17 -96,-87 -29,-104z"/>
   <path class="fil1" d="M669 5534c8,18 19,35 30,51 -9,-17 -20,-34 -30,-51zm1405 -783c-5,-23 -9,-46 -12,-70 -8,5 -16,8 -24,12 -11,4 -19,-9 -9,-16 9,-7 19,-13 29,-19 -2,-12 -4,-24 -7,-36 -3,-11 14,-16 17,-5 3,9 6,19 9,28 15,-11 29,-24 39,-40 -28,0 -56,-3 -83,-9 -24,-6 -46,-18 -62,-34 0,24 1,49 0,73 12,-13 25,-25 39,-35 7,-5 16,6 9,12 -19,18 -34,39 -48,61 -1,19 -2,37 -4,56 3,4 5,8 6,14 28,16 65,15 101,8zm127 44c7,-9 15,-17 23,-24 -2,-1 -3,-3 -4,-5 -10,-31 -17,-64 -22,-97 -6,9 -12,18 -18,27 2,1 4,4 5,8 3,9 5,17 7,26 3,9 -3,15 -10,18 -1,1 -1,1 -2,1 2,17 10,33 21,46zm176 80c-2,-14 -2,-28 -3,-38 -1,-6 -2,-12 -3,-18 -17,17 -35,32 -55,39 15,4 28,8 40,11 7,2 14,4 21,6zm317 42c2,0 3,0 4,0 -1,-19 -3,-38 -6,-57 -21,20 -44,36 -71,44 -9,2 -18,-11 -10,-17 26,-21 54,-38 77,-62 -2,-18 -4,-37 -6,-55 -1,-9 15,-12 17,-2 1,13 4,25 6,38 14,-17 26,-35 37,-53 -25,1 -49,2 -74,3 -15,0 -35,1 -56,0 -16,25 -35,47 -54,69 -3,2 -5,5 -8,8 6,25 11,50 14,74 44,5 87,8 130,10zm119 0c3,-1 7,-1 11,-1 -4,-17 -6,-36 -7,-54 -9,5 -18,9 -28,8 -6,0 -12,-7 -8,-13 8,-11 19,-15 30,-23 2,-1 4,-2 5,-3 0,-28 0,-55 -1,-81 0,-1 0,-2 0,-3 -7,1 -15,1 -23,2 -8,1 -16,1 -25,2 -14,29 -33,61 -55,88 5,26 9,52 9,79 31,0 61,-1 92,-1zm164 -3c-1,-1 -2,-2 -2,-4 -11,-34 -10,-71 -13,-107 -12,20 -22,42 -32,64 -5,12 -22,3 -20,-9 6,-39 28,-82 59,-115 -12,2 -25,2 -36,3 -3,0 -6,1 -9,1 -23,23 -42,49 -64,74 -5,6 -11,13 -18,20 3,26 6,51 9,76 41,1 85,3 126,-3zm98 -125c11,-11 25,-19 40,-23 -2,-27 -3,-55 -7,-82 0,-1 0,-1 0,-2 -6,5 -12,11 -18,16 -14,14 -24,30 -39,42 -8,6 -18,-4 -16,-12 1,-6 3,-11 6,-16 -24,17 -44,39 -61,62 12,42 21,91 18,133 0,1 -1,2 -1,3 14,-3 28,-7 40,-12 61,-26 2,-74 38,-109zm100 -28c3,-37 20,-72 42,-106 -6,-26 -9,-53 -6,-80 -3,0 -6,0 -9,0 -11,34 -37,57 -63,80 -4,3 -7,6 -10,9 8,32 14,65 15,97 10,-1 20,-1 31,0zm20 2c17,2 34,6 50,10 0,-3 0,-5 1,-7 1,-2 2,-3 4,-2 -9,-22 -16,-46 -22,-68 -10,23 -20,46 -33,67zm89 -196c-21,4 -42,6 -62,7 1,20 5,39 11,58 16,-23 34,-45 51,-65zm-179 11c5,19 11,38 16,58 22,-18 43,-37 60,-60 -25,0 -51,1 -76,2zm-59 114c4,-2 8,-2 12,-3 14,-15 31,-28 45,-38 -4,-24 -9,-48 -13,-72 -28,1 -55,4 -83,10 23,33 52,63 39,103zm-219 55c1,1 2,2 2,3 3,21 6,42 8,62 5,-4 9,-8 13,-12 18,-19 35,-37 55,-53 -26,1 -52,-1 -78,0zm-549 93c2,-1 5,-3 7,-4 -5,-29 -4,-60 -4,-91 -2,4 -5,7 -8,10 -16,19 -33,40 -53,56 16,13 36,23 56,32 1,-1 1,-2 2,-3zm88 -120c-17,-7 -33,-15 -46,-24 -7,10 -15,21 -23,31 1,10 2,20 3,30 2,23 6,46 9,68 7,-2 13,-5 19,-9 14,-9 27,-20 40,-31 -2,-22 -3,-43 -2,-65zm46 153c0,3 0,6 1,10 40,9 80,16 121,21 -2,-16 -4,-32 -5,-47 -12,11 -25,22 -39,28 -10,4 -17,-8 -13,-16 11,-19 31,-35 48,-51 -1,-13 -3,-26 -6,-39 -3,-10 11,-14 15,-5 3,9 6,19 8,28 15,-15 30,-31 45,-46 -63,-1 -139,-8 -201,-29 1,14 3,27 5,40 19,-13 40,-22 65,-18 9,2 6,15 -2,16 -21,1 -40,15 -58,31 2,10 4,20 6,30 3,16 6,32 10,47zm-144 -278c0,0 -1,0 -2,0 -15,18 -34,35 -50,52 -1,1 -1,2 -2,3 9,35 19,70 26,106 3,-3 6,-6 9,-10 11,-10 22,-21 32,-32 -1,-12 -2,-23 -4,-34 -1,-7 10,-10 12,-3 1,8 3,15 4,23 5,-5 9,-10 14,-15 -25,-22 -40,-52 -39,-90zm-58 39c14,-13 29,-26 44,-38 -17,2 -34,4 -52,5 1,1 2,2 2,4 2,10 4,19 6,29zm-64 89c5,-28 29,-54 49,-74 0,0 0,0 0,0 -1,-14 -3,-29 -4,-42 -1,-2 0,-4 1,-5 -19,2 -38,3 -57,3 -7,27 -28,48 -51,64 6,25 11,50 13,76 18,-5 36,-11 52,-16 -2,-2 -3,-4 -3,-6zm-1826 930c74,12 144,66 203,108 24,17 47,35 70,52 -47,-65 -95,-130 -121,-208 -4,-14 11,-30 26,-25 138,52 253,151 390,203 10,-72 -43,-142 -89,-193 -27,-31 -58,-60 -91,-86 39,59 73,119 95,187 7,21 -19,41 -38,29 -91,-61 -173,-181 -169,-294 -29,-42 -57,-85 -83,-129 -12,-22 16,-42 34,-26 197,172 378,365 624,469 107,45 213,89 323,127 91,33 187,63 285,72 -19,-40 -51,-77 -74,-110 -58,-79 -123,-154 -191,-226 -59,-63 -122,-124 -192,-175 -67,-1 -139,-19 -213,-58 -16,-9 -20,-33 -6,-45 52,-48 124,-23 179,6 21,11 41,23 61,37 283,-16 473,-381 568,-629 6,-15 18,-21 31,-21 0,-4 0,-7 0,-10 -6,-1 -12,-8 -9,-15 3,-6 6,-11 9,-17 3,-41 8,-82 9,-122 1,-4 3,-6 6,-8 -23,-32 -29,-74 -5,-115 5,-9 20,-5 20,6 -1,36 -12,71 16,101 22,24 62,30 92,34 68,8 136,-2 203,-5 9,0 14,9 13,17 -29,144 271,137 353,137 58,0 116,-8 174,-7 44,1 89,3 133,1 23,-1 43,-2 62,-17 43,-34 -23,-86 -41,-108 -7,-8 -4,-18 6,-22 97,-38 204,-22 306,-13 1,0 2,1 3,2 2,-2 4,-5 6,-7 4,-5 12,2 9,7 -20,32 -39,65 -58,97 -2,3 -4,6 -5,9 3,9 7,17 10,26 8,18 18,38 24,58 1,-2 1,-4 2,-6 2,-10 19,-8 18,3 -14,109 -47,216 -59,326 -6,48 -10,105 23,146 29,36 83,49 124,66 56,24 142,81 130,153 -9,52 -75,67 -117,79 -58,16 -158,41 -120,122 16,33 50,53 64,88 15,38 5,77 -13,112 -36,67 -118,102 -186,124 -88,29 -182,41 -274,47 -45,3 -89,3 -134,2 -23,0 -22,-33 0,-35 167,-17 368,-12 511,-111 33,-23 67,-68 61,-111 -5,-39 -53,-69 -70,-104 -28,-59 4,-115 57,-143 52,-27 122,-27 168,-62 25,-20 -6,-58 -20,-75 -31,-37 -84,-53 -128,-71 -86,-36 -120,-98 -115,-190 5,-105 38,-210 66,-312 -1,-1 -1,-2 -2,-3 -2,3 -6,5 -11,5 -39,-6 -74,-11 -110,-4 0,5 -1,9 -1,13 -2,10 -20,10 -22,0 0,-2 -1,-4 -1,-6 0,0 0,0 0,0 -42,14 -14,37 -18,68 -7,57 -78,72 -124,79 -59,8 -120,11 -181,11 -25,87 -77,164 -100,252 -30,115 6,241 23,356 19,124 23,273 -102,343 -97,54 -224,37 -328,21 -117,-18 -237,-43 -352,-73 -19,-5 -14,-31 4,-32 102,-7 210,32 309,52 106,21 235,45 338,0 153,-68 98,-282 78,-406 -14,-90 -22,-180 -1,-270 21,-87 79,-160 110,-244 -47,0 -93,-3 -138,-6 -120,-9 -245,-28 -357,-74 -56,-22 -117,-60 -128,-117 -57,21 -135,41 -187,15 -87,263 -285,588 -555,644 39,34 76,69 111,104 79,80 153,165 221,254 8,11 17,22 26,34 142,-214 310,-410 437,-634 2,-3 6,0 5,3 -121,228 -274,442 -429,649 32,41 63,88 72,135 4,19 -9,39 -30,39 -109,-1 -215,-34 -317,-68 -116,-39 -229,-87 -342,-135 -95,-41 -180,-94 -260,-154 32,54 50,117 26,176 -4,12 -17,22 -30,17 -133,-49 -240,-148 -369,-203 49,95 127,172 180,265 11,21 -13,47 -34,33 -103,-66 -187,-157 -296,-217 -47,-25 -131,-58 -141,24 -8,68 33,148 68,204 10,17 -15,31 -26,15 -43,-63 -80,-142 -78,-219 2,-67 56,-97 116,-88z"/>
   <g>
    <polygon class="fil2" points="3521,4420 3521,4407 3555,4393 3521,4380 3521,4366 3570,4387 3570,4399 "/>
    <polygon class="fil2" points="3388,4421 3388,4408 3354,4394 3388,4381 3388,4367 3339,4388 3339,4400 "/>
    <path class="fil0" d="M1203 3481c0,-5 1,-10 2,-16 2,-17 10,-30 22,-39 2,-3 4,-6 6,-8 -16,1 -29,10 -31,37 -1,9 -1,18 1,26zm205 -32c5,2 10,4 15,6 0,-1 0,-3 1,-5 1,-6 2,-10 4,-15 -10,2 -19,4 -28,5 3,3 6,6 8,9zm-254 -97c36,-34 80,-33 125,-20 23,6 45,16 69,22 31,9 71,-6 101,-13 77,-18 197,-53 219,46 10,6 14,20 8,31 -2,3 -4,6 -6,10 -1,14 -5,25 -12,35 -1,6 -2,12 -2,18 6,16 11,33 13,50 2,-10 5,-20 8,-30 15,-48 53,-106 -8,-133 -17,-8 -5,-34 12,-29 144,41 -4,186 44,270 15,26 -19,51 -41,31 -9,-8 -17,-17 -25,-25 0,1 -1,2 -2,3 -8,14 -28,21 -42,11 -1,0 -1,0 -1,0 -6,5 -14,9 -22,12 -1,1 -1,1 -2,1 23,74 1,164 -62,212 -61,45 -118,17 -151,-35 -69,0 -101,-74 -94,-145 -138,-29 -250,-212 -129,-322z"/>
    <path class="fil0" d="M1645 2890c-2,-5 -4,-10 -6,-16 -14,-37 39,-65 65,-37 29,30 46,68 62,106 11,23 26,50 36,77 16,-36 31,-72 51,-105 10,-15 34,-5 29,12 -10,38 -22,75 -33,113 -9,30 -13,69 -43,85 -13,6 -28,1 -32,-13 -1,-4 -2,-8 -2,-11 -14,4 -31,1 -42,-16 -37,-56 -79,-111 -94,-178 -1,-7 3,-14 9,-17z"/>
    <path class="fil0" d="M2519 363c7,-7 16,-8 25,-7 2,0 4,1 5,1 11,2 19,14 19,24 0,11 -8,23 -19,25 -1,0 -3,0 -5,0 -7,2 -13,2 -20,-2 -8,-5 -13,-14 -13,-23 0,-7 3,-13 8,-18z"/>
    <path class="fil0" d="M2485 284c50,0 50,77 0,77 -51,0 -51,-77 0,-77z"/>
    <path class="fil0" d="M2439 447c8,0 8,13 0,13 -9,0 -9,-13 0,-13z"/>
    <path class="fil0" d="M2309 405c5,-4 11,-3 18,-5 5,-1 11,-3 15,-7 1,0 2,-1 3,-1 -2,-7 1,-15 8,-19 -5,2 -11,1 -16,-1 -11,-5 -16,-15 -20,-25 -2,-6 -3,-16 0,-22 3,-10 8,-15 17,-19 4,-1 8,-1 12,0 10,4 14,10 18,19 2,5 2,12 1,17 0,2 0,4 0,6 0,0 0,1 0,1 0,0 0,1 1,1 2,6 -1,14 -5,19 -2,2 -5,3 -7,4 2,-1 4,-1 6,-1 21,0 21,32 0,32 -2,0 -4,-1 -5,-1 0,1 -1,3 -2,4 -9,11 -30,25 -44,16 -7,-4 -7,-14 0,-18z"/>
    <path class="fil0" d="M2353 486c25,0 25,39 0,39 -25,0 -25,-39 0,-39z"/>
    <path class="fil0" d="M2281 438c20,0 20,31 0,31 -20,0 -20,-31 0,-31z"/>
    <path class="fil0" d="M2261 574c13,0 13,19 0,19 -12,0 -12,-19 0,-19z"/>
    <path class="fil0" d="M2386 564c18,0 18,27 0,27 -17,0 -17,-27 0,-27z"/>
    <path class="fil0" d="M2288 609c26,0 26,41 0,41 -27,0 -27,-41 0,-41z"/>
    <path class="fil0" d="M2395 349c-1,19 -1,38 5,56 3,10 -11,13 -14,4 -7,-19 -8,-40 -9,-60 -1,-12 19,-12 18,0z"/>
    <path class="fil0" d="M2218 331c4,-11 11,-18 22,-22 9,-3 19,0 28,-1 1,-1 2,0 3,0 -1,-4 -3,-9 -3,-13 1,-6 2,-11 2,-16 3,-17 32,-17 35,0 1,8 3,15 2,23 0,-2 -1,4 -1,5 0,1 0,2 0,3 0,1 0,1 0,1 0,0 1,1 1,1 4,12 -10,20 -19,15 -2,-1 -4,-2 -5,-3 -1,3 -2,7 -4,9 -6,5 -12,10 -18,14 -4,2 -9,3 -13,5 -2,0 -5,1 -7,1 -1,0 -6,0 -1,-1 -13,3 -26,-8 -22,-21z"/>
    <path class="fil0" d="M2220 242c9,6 16,14 23,20 10,10 -6,26 -16,16 -7,-7 -14,-14 -20,-22 -6,-8 5,-19 13,-14z"/>
    <path class="fil0" d="M2123 252c5,0 9,0 13,-1 16,0 16,25 0,25 -4,0 -8,0 -13,0 -15,-1 -15,-24 0,-24z"/>
    <path class="fil0" d="M2255 351c19,-2 39,1 59,0 5,-1 6,6 2,8 -19,11 -39,15 -61,13 -14,-1 -14,-19 0,-21z"/>
    <path class="fil0" d="M2186 298c4,-1 8,-3 12,-5 -2,-6 2,-14 11,-14 3,0 6,1 8,3 2,-5 9,-6 10,0 1,3 1,7 2,10 1,7 -2,13 -7,19 -9,10 -23,14 -36,10 -12,-4 -11,-19 0,-23z"/>
    <path class="fil3" d="M2970 253c3,1 6,2 8,3 7,-10 15,-19 25,-26 -1,-2 -2,-4 -4,-6 -11,-14 -26,6 -37,27 3,0 6,0 8,2zm37 99c-2,-16 -9,-31 -19,-44 -4,-1 -9,-3 -13,-6 -1,0 -1,0 -2,0 -5,18 15,38 34,50zm37 -109c-6,-1 -12,0 -17,3 -1,5 -3,10 -6,15 9,-5 16,-11 23,-18zm-30 -38c4,4 8,9 10,14 14,-4 31,-3 49,6 6,3 9,12 5,18 -15,21 -33,36 -56,45 1,0 2,1 3,1 10,2 10,12 5,17 12,23 17,50 10,77 -3,10 -13,15 -23,12 -28,-6 -51,-32 -61,-58 -5,-11 -5,-35 8,-39 -3,-2 -4,-6 -4,-9 -3,-4 -6,-9 -9,-15 -2,6 -4,9 -5,11 -4,7 -17,5 -17,-5 1,-29 44,-114 85,-75z"/>
    <path class="fil3" d="M2904 110c-1,-8 -4,-15 -8,-22 -2,-4 -7,-6 -11,-7 -11,-4 -7,7 -8,16 -4,35 6,66 14,99 14,-25 16,-63 13,-86zm-46 -44c1,-3 4,-7 8,-8 44,-7 63,29 62,69 0,26 -9,69 -34,87 -1,7 -11,11 -17,5 -1,0 -1,0 -1,0 0,-1 -1,-1 -1,-2 -27,-42 -26,-104 -17,-151z"/>
    <path class="fil3" d="M2635 211c39,-12 80,-21 117,-7 -20,-21 -36,-52 -11,-76 42,-39 107,59 129,82 8,8 -4,20 -12,12 -26,-27 -51,-66 -89,-79 -10,-3 -17,2 -18,12 -2,14 13,26 22,34 17,14 40,23 60,31 7,3 11,12 5,19 -18,17 -50,-5 -69,-20 -38,-13 -77,-4 -114,8 23,29 60,48 92,19 11,-9 27,3 20,16 -36,64 -115,12 -139,-35 -3,-7 -1,-14 7,-16z"/>
    <path class="fil3" d="M2682 386c-9,-2 -19,-3 -29,-2 9,2 19,2 29,2zm-91 2c36,-26 123,-59 142,5 2,9 -3,19 -12,21 -41,9 -77,4 -114,-16 -1,-1 -2,-2 -3,-3 -4,1 -7,2 -9,3 -6,1 -9,-6 -4,-10z"/>
    <path class="fil3" d="M2579 526c0,-21 -6,-41 -15,-61 -1,9 -9,19 -10,27 -2,17 11,29 25,34zm-39 -72c3,-4 10,-5 14,-3 4,1 7,2 8,4 2,-10 16,-16 22,-5 16,30 28,61 25,95 -1,8 -7,16 -16,15 -56,-1 -90,-60 -53,-106z"/>
    <path class="fil3" d="M2587 273c1,-14 0,-28 -5,-40 -5,19 -5,42 2,60 2,-9 3,-18 3,-20zm-22 -79c6,-9 17,-9 24,-3 26,22 29,59 22,90 -2,10 -7,23 -15,31 0,0 1,1 1,1 17,17 -9,42 -25,26 -37,-36 -31,-105 -7,-145z"/>
    <path class="fil3" d="M2268 567c14,-2 27,-9 39,-16 -8,-5 -16,-12 -22,-18 -3,1 -6,3 -8,5 -7,6 -10,19 -11,29 1,0 1,0 2,0zm68 -78c-16,-12 -35,-20 -55,-25 1,9 5,18 10,26 24,-2 49,8 60,28 2,-2 5,-4 8,-5 -6,-10 -14,-17 -23,-24zm-74 11c-8,-17 -12,-37 -8,-57 2,-8 11,-11 18,-10 35,5 72,24 95,51 8,8 14,18 16,29 5,4 8,10 9,17 3,31 -49,54 -72,64 -28,12 -68,26 -89,-4 -19,-28 5,-72 31,-90z"/>
    <path class="fil3" d="M1748 3860c5,3 11,6 15,10 -4,-8 -9,-12 -15,-10zm-707 -202c15,-65 154,-59 202,-55 21,1 27,31 5,38 -45,12 -93,1 -139,11 -42,8 -37,41 -1,49 2,-5 6,-10 12,-12 34,-13 63,-13 97,-3 9,2 14,14 10,22 4,-1 7,-1 11,-1 20,-1 25,32 5,35 -17,3 -36,6 -54,7 -6,2 -12,4 -17,6 29,7 59,5 90,1 21,-2 23,29 5,35 -19,5 -37,11 -55,19 -9,4 -18,9 -27,15 -22,14 -12,34 12,29 5,-1 10,-2 15,-4 28,-26 68,-48 91,-57 17,-8 36,12 21,28 -17,17 -64,54 -107,69 -4,7 -4,14 -1,21 24,52 122,-51 132,-76 3,-8 15,-7 16,0 4,-6 7,-11 9,-15 9,-17 36,-1 26,15 -23,39 -69,109 -48,156 10,22 39,-10 56,-33 10,-36 26,-71 46,-101 10,-14 37,-10 35,10 -2,30 -20,77 -47,114 -4,19 -6,39 -5,58 18,-12 36,-30 48,-51 1,-28 7,-56 17,-82 6,-15 32,-20 36,0 5,28 -1,58 -14,85 0,22 4,44 14,63 2,-2 4,-5 5,-7 -4,-26 -5,-53 -4,-72 0,-23 34,-28 40,-6 6,23 9,46 7,66 3,18 7,35 14,51 16,36 38,12 36,-16 -15,-26 -25,-56 -31,-71 -6,-20 24,-32 34,-14 9,15 22,43 29,72 6,10 13,19 22,25 30,21 5,-39 5,-39 -1,-1 -1,-2 -2,-4 -14,-7 -25,-22 -29,-40 -3,-17 18,-32 32,-18 6,7 13,16 20,25 5,-1 11,-5 15,-12 4,-5 5,-10 5,-14 -19,-6 -31,-34 -32,-59 0,-15 20,-23 30,-12 8,7 14,15 19,24 3,-4 4,-7 5,-11 -18,-6 -31,-22 -37,-46 -2,-8 2,-15 8,-18 25,-48 77,8 79,48 0,7 -6,14 -13,16 -1,1 -3,1 -4,1 -1,14 -6,29 -18,42 -2,2 -4,3 -5,5 3,21 -3,43 -24,62 -3,2 -6,4 -9,6 12,28 15,58 -11,76 -20,14 -37,11 -53,1 -5,20 -19,34 -51,33 -34,-1 -54,-25 -66,-56 -3,3 -6,5 -10,7 -7,5 -18,4 -23,-3 -15,-16 -25,-35 -30,-56 -19,21 -41,37 -65,46 -9,3 -21,-4 -23,-13 -3,-17 -5,-33 -4,-50 -16,9 -34,13 -52,8 -55,-14 -33,-88 -6,-147 -35,46 -96,92 -136,57 -18,-14 -23,-30 -21,-45 -14,0 -26,-4 -35,-15 -31,-38 -8,-67 27,-88 -18,-3 -37,-9 -55,-18 -13,-7 -10,-24 0,-31 4,-3 7,-5 10,-7 -1,-1 -3,-2 -4,-3 -52,1 -99,-15 -85,-76z"/>
    <path class="fil4" d="M2386 506c14,-10 37,-19 58,-20 -17,-25 -24,-57 -24,-88 0,-10 8,-18 18,-18 34,-2 44,25 46,54 3,14 2,29 -2,42 2,3 5,5 7,8 3,3 4,6 5,10 1,2 2,4 3,6 9,34 -32,63 -57,77 -26,14 -68,23 -87,-6 -18,-26 13,-53 33,-65z"/>
    <path class="fil4" d="M2820 243c15,2 31,10 45,20 0,-3 -1,-7 -1,-10 1,-9 2,-18 4,-26 3,-11 11,-25 24,-27 13,-2 23,4 31,15 7,11 8,23 6,35 -1,8 -5,15 -9,22 -1,2 -2,5 -3,8 -1,1 -1,2 -1,3 8,4 16,9 22,14 10,9 18,21 21,33 4,16 -2,30 -11,43 -5,5 -14,6 -20,5 -22,-5 -40,-21 -50,-41 -41,10 -103,-8 -107,-48 -3,-29 20,-51 49,-46z"/>
    <path class="fil4" d="M1433 4110c8,-44 48,-74 69,-112 0,-2 0,-4 0,-6 -1,-8 11,-9 14,-2 0,1 0,3 1,4 2,2 3,4 2,7 4,10 7,22 9,34 2,-21 5,-43 8,-63 1,-5 3,-10 9,-12 29,-9 53,5 73,29 29,20 49,49 64,85 21,51 35,125 4,174 -7,9 -23,11 -29,0 -24,-48 -78,-71 -109,-114 -5,-7 -9,-15 -12,-23 0,43 -9,85 -34,112 0,10 0,19 -1,29 -1,25 -34,29 -43,5 -18,-49 -35,-94 -25,-147z"/>
    <path class="fil4" d="M853 3797c75,-4 149,1 223,-2 84,-3 164,-20 243,-47 34,-12 47,39 15,52 -9,3 -17,6 -26,9 -5,4 -12,8 -17,11 -24,15 -46,32 -68,49 -77,58 -153,113 -244,145 0,0 0,0 0,0 53,-34 103,-71 153,-110 -50,20 -101,33 -153,29 -5,-1 -6,-8 -1,-9 75,-22 140,-56 204,-93 -30,2 -61,2 -90,2 -82,1 -162,-5 -240,-29 -4,-1 -3,-7 1,-7z"/>
    <path class="fil0" d="M2979 3063c0,-1 0,-2 1,-3 -1,1 -1,2 -1,3z"/>
    <path class="fil0" d="M2679 3500c12,1 24,3 36,8 1,-2 2,-3 4,-4 7,-8 12,-14 18,-20 -19,6 -38,11 -58,16zm-132 19c3,24 5,49 7,74 8,-15 17,-30 26,-44 11,-17 25,-30 40,-38 -24,4 -48,6 -73,8zm93 -1445c38,-10 78,-9 117,-6 -1,-2 -1,-5 -2,-7 -15,-38 -28,-77 -40,-117 -101,29 -219,-3 -322,15 -10,2 -18,-2 -23,-8 12,36 24,73 35,109 10,36 18,72 24,109 18,-13 38,-23 55,-32 49,-27 102,-49 156,-63zm-34 748c-4,-15 -7,-30 -11,-45 -3,18 -6,36 -10,54 -2,10 -4,20 -7,31 5,-7 10,-13 15,-19 5,-7 9,-14 13,-21zm148 -664c-28,-2 -55,-1 -81,6 -6,1 -12,3 -18,5 1,0 1,1 1,2 20,4 39,16 47,33 5,-2 10,-4 15,-6 2,-1 4,-1 5,-2 3,-20 16,-33 31,-38zm-29 997c86,-41 141,-126 180,-209 14,-29 25,-59 34,-89 -6,7 -15,13 -25,16 1,6 3,11 4,16 5,29 -11,51 -32,61 2,40 -44,71 -77,57 -40,47 -90,86 -147,110 -23,9 -45,10 -66,6 -20,13 -40,27 -61,38 62,18 122,27 190,-6zm234 -375c-2,1 -5,2 -7,2 0,10 0,20 0,30 2,-11 5,-22 7,-32zm-256 -876c-16,-56 -31,-111 -42,-168 -39,25 -95,24 -139,30 -71,9 -143,15 -215,16 -1,0 -2,0 -4,0 21,49 41,99 60,150 0,-9 5,-17 17,-19 60,-9 120,-7 181,-4 48,2 98,3 146,10 -1,-5 -3,-10 -4,-15zm-441 1135c-15,97 -24,196 -29,294 6,-63 13,-125 21,-188 1,-13 5,-23 11,-32 -2,-25 -3,-49 -3,-74zm690 1637c-48,13 -92,17 -137,22 -83,8 -167,13 -250,10 -75,-2 -151,-7 -223,-33 -20,-7 -42,-17 -55,-32 -2,-1 -8,-11 -8,-12 0,-2 -1,-6 -1,-9 0,-5 0,-13 -1,-1 7,-56 -30,-96 -87,-87 -40,7 -92,19 -138,15 -3,-2 -7,-4 -12,-5 -12,-4 -24,-6 -37,-9 -8,-4 -16,-10 -22,-17 87,-169 104,-365 110,-552 6,-201 -5,-401 4,-602 10,-195 31,-391 91,-578 41,-126 102,-244 175,-354 9,-32 19,-65 31,-97 -3,-2 -5,-4 -7,-8 -19,-34 -11,-79 -14,-117 -5,-56 -19,-111 -34,-165 -29,-104 -70,-204 -110,-303 -33,-84 -80,-159 -101,-247 -16,-62 -29,-143 12,-197 -7,-7 -12,-14 -16,-24 -3,-9 6,-19 14,-19 44,0 79,10 123,-2 52,-13 102,-34 151,-54 70,-28 142,-48 214,-24 2,1 3,5 0,6 -12,5 -21,15 -36,18 -25,6 -50,11 -74,18 -48,13 -94,35 -139,54 -47,20 -166,71 -225,36 -14,86 4,157 41,237 30,65 64,128 93,193 4,-7 12,-12 23,-12 67,-1 132,-7 198,-13 46,-4 104,-20 149,-6 -10,-54 -19,-108 -25,-163 -3,-31 -6,-61 -7,-92 -1,1 -2,2 -4,3 -126,49 -268,68 -403,88 -31,4 -44,-43 -13,-47 137,-20 276,-54 414,-56 2,0 4,0 5,1 -3,-80 0,-160 12,-239 13,-94 46,-200 118,-268 19,-18 50,5 37,29 -107,183 -98,392 -62,594 19,108 46,215 78,320 15,49 32,98 51,146 8,22 19,44 28,66 52,10 109,30 128,72 5,11 2,29 -11,33 54,151 51,326 47,483 -4,118 -34,235 -84,342 -46,96 -120,188 -220,230 -68,29 -150,32 -223,10 2,21 4,41 6,62 180,-1 367,-92 451,-254 1,-1 1,-2 2,-3 -3,5 7,-17 12,-29 6,-15 12,-31 17,-46 22,-77 104,-87 156,-53 20,-121 29,-243 17,-362 -1,-15 21,-16 26,-3 76,204 74,413 43,624 3,62 6,123 8,184 6,-66 12,-133 16,-200 1,-16 24,-16 25,0 6,106 6,212 -1,318 12,7 20,18 18,34 -22,193 -30,386 -56,578 -25,176 -64,351 -112,522l-131 0c-32,0 -55,19 -65,46z"/>
    <path class="fil0" d="M1713 4025c6,0 9,3 10,7 9,9 5,16 -3,21 -4,7 -12,11 -20,3 -5,-2 -8,-5 -8,-11 -7,-12 9,-28 21,-20z"/>
    <path class="fil0" d="M1588 4009c10,0 19,8 20,18 3,8 0,16 -7,21 -6,5 -16,4 -22,0 -6,-4 -8,-8 -11,-14 -5,-12 8,-25 20,-25z"/>
    <path class="fil0" d="M1637 4130c27,0 27,42 0,42 -27,0 -27,-42 0,-42z"/>
    <path class="fil0" d="M1568 4084c17,0 17,26 0,26 -17,0 -17,-26 0,-26z"/>
    <path class="fil0" d="M1533 4140c1,1 2,1 4,2 10,8 10,20 0,28 -2,1 -3,1 -4,2 -12,9 -28,-3 -28,-16 0,-13 16,-25 28,-16z"/>
    <path class="fil0" d="M1485 4030c2,-9 11,-19 21,-20 3,-1 7,-2 10,-2 16,2 27,12 28,28 0,4 -1,7 -1,10 -2,10 -12,19 -21,21 -11,3 -22,0 -29,-7 -8,-8 -11,-19 -8,-30z"/>
    <path class="fil0" d="M1445 4092c26,0 26,40 0,40 -27,0 -27,-40 0,-40z"/>
    <path class="fil0" d="M1381 4214c14,0 14,22 0,22 -14,0 -14,-22 0,-22z"/>
    <path class="fil0" d="M1154 4156l0 2c0,19 -29,19 -29,0l0 -2c0,-19 29,-19 29,0z"/>
    <path class="fil0" d="M1322 3970c16,0 29,13 29,29 0,16 -13,29 -29,29 -16,0 -30,-13 -30,-29 0,-16 14,-29 30,-29z"/>
    <path class="fil0" d="M1292 3879c22,0 22,34 0,34 -22,0 -22,-34 0,-34z"/>
    <path class="fil0" d="M1213 3853c12,0 12,18 0,18 -12,0 -12,-18 0,-18z"/>
    <path class="fil0" d="M1218 3919c35,0 35,53 0,53 -35,0 -35,-53 0,-53z"/>
    <path class="fil0" d="M1193 3801c16,0 16,24 0,24 -15,0 -15,-24 0,-24z"/>
    <path class="fil0" d="M1090 3797c21,0 21,32 0,32 -21,0 -21,-32 0,-32z"/>
    <path class="fil0" d="M1189 3666c19,0 19,30 0,30 -20,0 -20,-30 0,-30z"/>
    <path class="fil0" d="M1317 3762c35,0 35,54 0,54 -35,0 -35,-54 0,-54z"/>
    <path class="fil0" d="M1425 3825c17,0 17,25 0,25 -17,0 -17,-25 0,-25z"/>
    <path class="fil0" d="M1460 3898c23,0 23,36 0,36 -24,0 -24,-36 0,-36z"/>
    <path class="fil0" d="M1522 3918c4,-15 20,-24 35,-20 1,0 1,1 2,1 12,2 21,15 21,27 0,14 -13,28 -28,28 -4,-1 -7,-1 -10,-2 -15,-2 -24,-21 -20,-34z"/>
    <path class="fil1" d="M3317 4371c-10,53 -18,113 -45,160 -9,16 -37,10 -35,-9 3,-50 21,-99 31,-147 14,-63 24,-126 32,-190 15,-124 21,-249 24,-374 7,-240 -11,-480 -17,-720 0,-1 2,-1 2,0 30,244 50,491 54,737 2,125 -4,250 -19,374 -7,57 -16,113 -27,169z"/>
    <path class="fil1" d="M3140 264c-3,-2 -6,-4 -10,-5 -11,3 -24,5 -34,6 15,3 31,6 44,-1zm11 -13c3,2 6,5 9,8 3,4 3,9 0,12 -13,14 -29,18 -46,16 19,15 35,32 44,57 1,5 -3,12 -8,13 -13,3 -26,3 -38,1 2,5 4,10 5,16 1,4 -1,10 -7,11 -4,1 -9,1 -13,1 7,11 13,23 16,36 2,6 -2,14 -8,15 -49,7 -98,-47 -99,-94 -1,-10 13,-12 18,-5 18,24 33,62 63,72 -2,-10 -5,-19 -10,-27 -11,-5 -20,-13 -28,-26 -4,-6 4,-14 10,-10 12,9 22,18 37,20 -2,-7 -5,-14 -8,-19 -12,-7 -22,-17 -31,-29 -7,-9 7,-18 15,-12 18,16 37,30 61,30 -12,-28 -38,-44 -62,-62 -4,-3 -4,-7 -3,-10 -4,-3 -5,-10 0,-13l0 0c0,0 0,0 0,0 1,0 1,0 2,-1 0,0 0,0 0,0 20,-8 42,-10 63,-16 13,-1 14,-7 3,-16 -10,-1 -21,2 -31,3 -16,3 -31,8 -46,15 -1,1 -3,-1 -1,-2 18,-13 103,-61 112,-15 3,14 -6,24 -19,31z"/>
    <path class="fil1" d="M3433 2752c-25,-2 -50,-14 -72,-27 1,4 2,7 3,10 19,20 41,38 64,53 10,6 25,17 37,14 23,-4 13,-37 4,-58 -11,6 -25,9 -36,8zm-701 -1249c-27,-177 -37,-425 97,-566 -38,6 -76,16 -110,28 -6,2 -12,4 -18,6 -3,25 -30,113 -35,127 -36,109 -23,242 -20,355 0,13 1,27 1,40 2,1 3,3 2,5 -1,1 -1,3 -2,4 6,184 17,363 87,536 1,4 1,6 0,9 78,4 152,36 230,36 -120,-171 -199,-375 -232,-580zm-218 -535c-67,-3 -140,-29 -184,-78 -16,7 -31,13 -46,21 38,4 82,4 109,29 11,10 26,28 25,44 0,3 -1,7 -3,12 15,1 31,3 46,3 40,0 79,-9 118,-20 22,-6 44,-14 67,-21 -45,10 -91,13 -132,10zm301 -108c0,1 -1,2 -1,3 -2,3 -4,5 -6,8 7,-2 14,-4 20,-5 -4,-1 -9,-4 -13,-6zm-562 295c-27,30 -56,58 -85,87 -1,8 -2,16 -3,24 19,-14 44,-17 67,-21 14,-3 27,-5 41,-8 1,-6 3,-12 6,-18 -6,-24 -7,-50 -7,-72 0,-9 14,-11 16,-2 2,14 6,27 10,41 32,-46 79,-86 83,-143 0,-1 0,-1 0,-1 -9,-6 -15,-13 -12,-23 -8,-3 -15,-6 -22,-9 -12,57 -55,103 -94,145zm-163 175c-14,83 19,169 51,244 14,32 29,64 45,95 2,0 3,2 3,4 0,1 0,1 0,1 20,39 41,77 62,115 43,77 93,150 130,230 15,33 32,75 39,117 10,-5 21,-9 31,-13 -2,-7 -3,-14 -5,-20 -5,1 -12,-5 -10,-11 1,-3 3,-7 4,-11 -6,-23 -14,-46 -23,-68 -1,-1 -2,-2 -2,-4 -7,-19 -16,-38 -24,-56 -1,0 -2,0 -4,0 -9,2 -17,-11 -7,-17 1,0 2,-1 2,-1 -31,-64 -68,-127 -103,-190 0,2 -1,3 -1,5 -3,10 -15,7 -16,-2 0,0 0,0 0,0 -3,-2 -4,-5 -3,-8 0,-3 1,-5 2,-7 0,-6 1,-12 1,-19 -13,-25 -26,-51 -38,-77 -14,-29 -27,-59 -39,-89 -13,0 -23,-16 -12,-26 1,-1 1,-1 2,-2 -13,-36 -23,-73 -31,-111 -9,-46 -14,-101 4,-146 -20,21 -40,43 -58,67zm545 441c-9,20 -18,40 -26,61 10,21 20,41 28,62 6,0 11,0 16,0 -8,-41 -14,-82 -18,-123zm-38 -163c8,22 18,45 17,66 5,-1 9,-2 13,-3 -2,-37 -3,-75 -3,-112 -8,16 -17,33 -27,49zm27 -118c-15,17 -33,28 -53,36 4,14 9,29 13,44 13,-19 26,-37 39,-55 0,-8 0,-16 1,-25zm-433 17c8,-6 16,-11 25,-15 0,-1 0,-1 0,-2 6,-23 24,-44 38,-64 -12,-24 -23,-50 -34,-75 -19,3 -39,4 -59,2 1,34 6,68 15,105 5,17 10,33 15,49zm389 -198c13,-25 26,-52 44,-71 -21,2 -44,6 -66,11 6,21 14,41 22,60zm-107 17c1,-2 3,-4 4,-6 17,-22 34,-45 55,-64 -21,6 -42,12 -62,18 -6,2 -12,4 -18,6 7,15 14,31 21,46zm73 -58c-21,26 -39,53 -56,81 -1,1 -2,3 -3,5 10,20 21,40 33,60 1,-2 2,-3 4,-5 -6,4 -4,3 -1,-4 3,-7 8,-13 11,-19 11,-16 21,-33 31,-49 -8,-23 -14,-46 -19,-69zm31 103c-4,9 -10,22 -17,33 9,-4 17,-8 26,-11 0,-1 0,-1 -1,-1 -2,-7 -5,-14 -8,-21zm-259 -43c-2,30 -12,58 -25,86 -2,5 -5,10 -7,15 6,11 14,22 22,32 16,-3 31,-6 47,-9 6,-12 14,-24 22,-36 -16,-28 -32,-55 -47,-83 -3,-7 7,-13 11,-6 15,24 31,47 47,70 19,-31 35,-62 37,-100 1,-7 11,-7 12,0 3,37 -8,86 -29,126 4,6 9,12 13,18 25,-4 50,-9 76,-15 -9,-17 -17,-34 -24,-51 -11,15 -24,29 -39,33 -8,2 -15,-5 -13,-12 4,-13 10,-18 19,-28 7,-8 14,-16 20,-25 -7,-19 -14,-39 -21,-59 -40,14 -80,30 -121,44zm-49 73c13,-22 24,-45 34,-68 -21,6 -42,12 -64,16 11,17 21,34 30,52zm-8 72c5,-1 11,-3 17,-5 -3,-4 -5,-8 -7,-11 -3,6 -7,11 -10,16zm-46 98c9,-10 19,-18 31,-25 -1,-2 -1,-3 -2,-5 -2,-8 9,-11 12,-4 1,1 1,2 1,3 39,-18 87,-22 126,-24 11,0 23,-1 35,-1 2,-1 5,-1 7,0 25,0 51,0 76,-2 45,-3 82,-20 123,-39 0,-36 0,-72 1,-109 0,-29 0,-57 1,-86 -2,3 -3,6 -5,9 -9,18 -18,36 -28,53 5,15 10,29 12,45 5,-2 10,-4 16,-6 2,0 3,2 2,3 -33,62 -117,80 -180,93 -4,0 -9,1 -13,2 -2,1 -5,2 -7,1 -32,6 -64,11 -96,17 -1,1 -3,3 -5,3 -5,2 -9,2 -13,1 -38,9 -71,24 -106,41 4,10 8,20 12,30zm70 54c-11,-16 -21,-32 -28,-49 -11,6 -21,11 -32,17 12,28 25,55 37,82 2,4 4,7 6,11 5,-21 11,-42 17,-61zm252 73c19,-6 38,-12 57,-18 -8,-12 -12,-27 -15,-41 -14,20 -28,40 -42,59zm-72 -98c19,-25 41,-50 68,-64 -23,4 -48,5 -71,6 -8,0 -15,0 -23,0 9,19 17,38 26,58zm37 103c-3,1 -5,1 -8,-1 -17,-10 -26,-31 -34,-50 -9,15 -17,32 -20,50 0,3 -2,5 -4,7 11,0 23,1 34,0 11,0 22,-2 33,-3 -1,-1 -1,-2 -1,-3zm-163 -59c14,-36 24,-75 54,-101 -17,0 -33,1 -50,3 -27,2 -50,11 -71,22 18,28 43,52 67,76zm-25 50c4,-6 7,-11 11,-17 -10,-13 -19,-25 -28,-36 -2,13 -5,26 -7,40 -2,10 -4,21 -5,32 8,-3 17,-5 27,-6 -2,-4 -2,-9 2,-13zm29 11c1,0 3,0 4,0 -1,-1 -1,-2 -2,-2 -1,0 -1,1 -2,2zm68 -162c0,1 0,3 -1,4 -28,35 -33,81 -48,122 10,11 19,24 26,37 11,1 21,1 31,2 -3,-2 -5,-6 -5,-10 2,-27 17,-54 33,-76 -10,-26 -19,-53 -28,-79 -3,0 -5,0 -8,0zm126 -8c3,0 5,4 2,7 -24,25 -44,53 -62,82 11,20 25,40 32,60 21,-29 40,-59 59,-89 -5,-22 -9,-43 -13,-64 -6,1 -12,3 -18,4zm-217 249c1,-1 3,-2 5,-2 100,-22 203,-46 306,-56 -1,-14 -2,-28 -3,-42 -58,23 -117,46 -181,45 -17,-1 -36,-3 -56,-4 -4,8 -15,13 -23,4 -2,-2 -3,-3 -5,-5 -25,-1 -49,2 -70,11 9,16 18,33 27,49zm74 131c0,-12 2,-24 3,-37 0,-8 1,-16 2,-25 -13,-17 -28,-34 -46,-45 -5,1 -11,3 -17,4 20,34 39,68 58,103zm198 -115c8,-16 17,-32 28,-46 -14,7 -30,11 -47,13 7,11 13,22 19,33zm-116 45c4,-6 7,-13 11,-19 9,-16 20,-36 34,-52 -26,4 -53,9 -79,15 10,20 21,38 34,56zm-54 39c1,12 2,24 0,36 10,-2 19,-4 29,-6 -11,-9 -20,-19 -29,-30zm59 15c-1,4 -3,8 -4,12 4,0 8,0 12,0 -3,-4 -5,-8 -8,-12zm62 -6c16,-17 26,-40 36,-64 -8,-20 -16,-40 -26,-59 -5,1 -10,1 -15,2 -21,29 -35,62 -46,96 10,14 20,28 31,42 3,0 6,0 9,0 3,0 5,0 7,-1 0,0 0,0 0,-1 -2,-5 0,-11 4,-15zm51 -27c-5,14 -12,27 -21,39 12,-2 24,-5 37,-7 -6,-10 -11,-21 -16,-32zm-189 -69c-10,2 -20,4 -30,6 9,10 17,20 21,26 1,2 3,4 5,6 1,-13 2,-26 4,-38zm16 66c10,14 21,28 32,42 1,-12 5,-25 11,-37 -13,-25 -23,-52 -32,-77 -5,1 -10,2 -15,3 3,23 4,46 4,69zm3 112c1,-1 2,-1 4,-1 8,1 16,5 24,10 24,-8 51,-11 75,-15 44,-8 89,-40 134,-40 0,0 1,0 1,0 -1,-4 -2,-8 -3,-12 -82,20 -164,22 -247,33 4,8 8,17 12,25zm47 52c-7,-6 -14,-12 -22,-18 -1,-1 -2,-1 -3,-2 -2,0 -4,1 -7,2 6,13 12,27 17,41 4,-8 10,-16 15,-23zm75 11c-12,-13 -24,-26 -36,-39 -5,7 -10,15 -15,23 16,14 33,28 50,40 2,-6 4,-11 6,-17 -1,-3 -3,-5 -5,-7zm13 -11c9,-18 18,-35 26,-53 -11,3 -21,6 -30,10 -13,4 -26,7 -39,9 14,11 29,22 42,33 1,0 1,0 1,1zm-76 -15c4,-6 8,-11 13,-15 -9,1 -17,2 -25,4 3,3 7,6 10,9 0,0 1,1 2,2zm180 -80c0,0 -1,1 -1,1 -13,16 -35,26 -58,34 8,5 16,10 24,15 12,-16 26,-31 36,-43 0,-2 -1,-4 -1,-7zm-87 144c-3,-3 -7,-7 -10,-11 -2,4 -3,8 -5,12 -4,9 -18,4 -18,-5 -22,-7 -40,-20 -58,-33 -1,2 -3,5 -5,8 -5,10 -10,20 -15,30 4,11 7,23 10,36 34,-14 67,-26 101,-37zm48 -991c8,29 12,59 3,83 -1,6 -10,6 -11,0 -5,-17 -6,-35 -7,-54 -7,15 -18,33 -30,42 9,1 19,2 29,3 7,0 7,9 0,9 -13,2 -27,3 -41,5 1,7 -8,12 -14,11 -6,-2 -11,-4 -15,-7 -14,1 -28,4 -42,6 -3,1 -5,2 -7,2 -1,0 -2,0 -2,0 -10,2 -19,5 -28,9 3,10 5,21 5,32 1,11 -13,13 -19,5 -6,-8 -10,-16 -13,-24 -2,1 -5,2 -7,3 -2,3 -3,7 -5,10 -4,6 -13,9 -19,5 -11,6 -22,13 -34,19 -59,29 -135,40 -199,53 -2,1 -4,0 -6,0 0,10 -1,20 -1,30 114,-4 210,-56 318,-84 13,-4 36,-11 62,-17 0,-1 0,-3 0,-4 -1,-6 9,-7 10,-1 0,1 0,2 1,2 29,-6 59,-9 77,-1 3,-59 11,-118 26,-176 1,-3 6,-23 13,-44 -18,26 -31,55 -44,83zm-10 -30c13,-25 26,-49 44,-70 -20,7 -41,14 -62,21 5,15 12,31 18,49zm-90 39c2,7 4,13 7,20 2,-4 5,-8 7,-12 17,-29 31,-61 43,-92 -23,7 -48,13 -72,17 4,22 8,45 15,67zm32 60c0,0 0,0 0,0 1,-11 6,-15 13,-23 15,-15 24,-36 34,-55 -4,-21 -10,-42 -16,-63 -6,34 -16,67 -32,99 -3,7 -8,16 -13,24 0,0 0,1 1,1 3,6 8,12 13,17 0,0 0,0 0,0zm-62 -125c-3,27 -10,51 -21,76 -8,19 -16,39 -25,58 1,1 1,2 2,3 9,-3 19,-6 30,-8 5,-1 10,-2 16,-3 3,-2 6,-5 9,-8 3,-3 6,-6 9,-9 -3,-8 -5,-15 -7,-22 -8,-28 -8,-58 -8,-88 -2,1 -4,1 -5,1zm-87 20c9,24 18,49 26,74 18,-30 33,-60 42,-92 -23,1 -46,1 -69,-3 1,1 2,2 4,3 9,4 4,15 -3,18zm-45 159c13,-7 26,-13 37,-19 5,-13 11,-26 18,-38 0,-1 0,-1 0,-2 -8,-33 -14,-66 -21,-99 0,40 -19,72 -42,105 -15,21 -26,44 -38,68 0,1 -1,2 -1,4 16,-5 32,-11 47,-19zm344 839c-16,-30 -28,-62 -38,-95 -9,13 -18,27 -25,41 0,0 1,0 1,0 18,12 38,24 54,39 1,0 0,2 -1,2 -19,-3 -42,-10 -63,-22 -4,11 -7,23 -10,35 0,4 -6,6 -9,4 -15,-10 -11,-29 2,-51 -10,-7 -19,-15 -25,-24 -4,22 -9,43 -17,64 10,9 19,19 19,30 27,-8 54,-15 81,-19 11,-2 21,-3 31,-4zm-250 -1510c25,0 18,-16 8,-29 -3,-2 -7,-4 -10,-6 -12,-9 -5,-28 10,-24 2,1 5,0 7,-1 0,0 0,0 0,0 -52,-23 -64,-84 -16,-118 56,-41 76,46 62,105 7,-1 11,-5 10,-13 -2,-4 -4,-9 -5,-14 -1,-9 10,-12 14,-6 0,0 0,0 0,0 12,27 82,3 46,-34 -17,-19 -42,-28 -56,-49 -2,-4 -1,-9 3,-11 17,-10 34,-14 53,-14 -3,-28 10,-60 30,-79 17,-16 41,-23 64,-17 22,5 36,22 47,41 -7,-38 15,-84 45,-86 -1,-8 0,-16 2,-25 1,-5 7,-10 12,-10 10,1 18,3 26,6 0,-1 0,-2 0,-3 0,-1 0,-2 0,-2 -115,-19 -233,-48 -322,52 -61,70 -84,162 -91,252 19,0 36,12 39,42 1,8 -6,13 -12,16 -10,4 -20,5 -29,4 0,1 0,3 0,4 3,3 6,5 8,6 16,10 36,13 55,13zm20 -156c-9,-3 -24,22 -26,28 -5,14 5,27 15,36 4,4 11,8 20,12 8,-27 6,-72 -9,-76zm283 -102c7,12 17,22 27,31 14,11 22,16 25,-3 1,-8 7,-11 13,-11 -14,-28 31,-66 47,-83 8,-8 18,-6 25,-1 0,-1 1,-2 2,-3 -3,-10 -2,-21 1,-33 -1,0 -2,1 -3,0 -21,-15 -44,-23 -69,-22 2,5 5,9 8,13 8,6 15,13 22,21 10,12 -6,28 -17,17 -14,-14 -28,-25 -46,-30 -1,9 2,16 7,23 1,1 2,3 3,4 1,0 1,1 2,1 -1,0 -1,0 -1,0 1,1 2,2 3,3 9,12 -12,29 -22,17 -30,-38 -39,34 -27,56zm120 2c7,-4 14,-7 21,-10 1,0 1,-1 1,-1 0,0 0,0 0,0 1,0 2,0 3,-1 14,-6 21,16 10,24 -13,8 -17,14 -1,19 18,6 21,-6 16,-21 -4,-15 17,-19 22,-6 1,3 2,5 3,8 2,4 4,7 7,10 0,-9 -4,-17 -12,-25 -2,-2 -4,-4 -6,-6 -3,-3 -3,-7 -2,-11 0,0 0,0 0,0 -20,-1 -34,-10 -41,-25 0,1 -1,2 -3,3 -16,14 -34,26 -46,44 -7,10 26,-1 28,-2zm84 -18c19,14 38,29 62,33 -10,-30 -34,-32 -62,-33zm60 -67c0,-7 -3,-13 -7,-19 -6,-6 -12,8 -16,21 -1,7 -3,13 -4,17 -3,7 -14,4 -13,-4 2,-9 5,-21 11,-32 3,-22 -24,1 -25,4 -3,3 -4,7 -5,11 9,13 16,26 18,42 21,-6 41,-16 41,-40zm-67 30c0,0 0,1 1,1 0,0 0,0 0,0 1,7 -9,13 -13,6 -9,-18 -18,-33 -32,-46 -2,7 -1,14 2,20 1,0 1,0 2,1 8,7 15,12 22,20 2,3 2,7 2,10 9,2 19,3 30,3 -10,-13 -17,-29 -16,-44 -5,-9 -4,1 2,29zm-630 256c-8,10 -11,29 -5,42 3,-2 8,-3 13,-1 9,2 17,6 25,10 -20,-25 -16,-48 -2,-63 -7,-6 -27,6 -31,12zm331 -191c-7,-4 -14,-3 -18,3 -2,4 -2,8 -1,11 -1,-8 9,-13 16,-7 9,6 18,13 27,20 -3,-11 -14,-21 -24,-27zm-1008 3005c10,12 22,24 36,31 7,4 27,3 22,-11 -12,-25 -43,-42 -59,-65 -15,-23 -10,-43 4,-61 -3,-4 -6,-8 -9,-12 -3,-7 1,-15 9,-16 21,-1 42,14 63,19 21,5 41,1 58,-10 -13,2 -27,2 -41,0 -31,-6 -81,-21 -109,-48 -5,35 -8,69 -11,104 11,24 20,47 37,69zm120 -177c-36,-9 -85,-41 -95,-77 -1,-5 0,-9 3,-11 0,-1 -1,-1 -2,-2 -11,-8 -22,-17 -33,-26 -5,27 -10,55 -14,82 28,11 55,35 83,45 39,14 72,11 103,-8 -13,2 -29,1 -45,-3zm13 -35c-1,2 -3,3 -5,4 7,2 14,4 21,5 -6,-3 -11,-6 -16,-9zm7 -34c-1,-4 -2,-8 -2,-11 -10,1 -20,-3 -23,-15 -12,-33 -22,-68 -39,-100 -17,-35 -45,-10 -70,13 -2,7 -3,13 -4,20 9,9 19,17 29,24 0,-2 0,-5 0,-8 0,-8 10,-16 17,-10 12,9 20,23 29,34 15,17 33,33 51,47 4,3 8,6 13,9 -1,-1 -1,-2 -1,-3zm234 5c-2,-17 -8,-33 -13,-48 -7,-21 -8,-36 -29,-32 -30,7 -80,28 -102,56 -3,4 -6,9 -8,13 -9,14 -25,9 -30,-2 -5,5 -10,10 -16,14 46,9 205,37 198,-1zm1416 -225c-22,-7 -45,-20 -67,-36 0,22 -2,44 -8,64 -3,10 -17,10 -20,0 -8,-34 -11,-69 -16,-103 -15,-17 -27,-34 -34,-50 -4,-10 -4,-22 0,-30 -5,-7 -9,-13 -11,-20 -2,-10 3,-19 10,-23 -20,-45 -44,-88 -70,-129 -63,-102 -137,-197 -193,-303 -93,-28 -197,-26 -293,-17 -101,8 -209,22 -302,64 -2,0 -3,1 -4,1 -26,78 -69,152 -102,228 -39,88 -74,177 -101,269 -56,187 -71,375 -71,568 0,198 5,396 -5,594 -10,189 -31,388 -96,567 -7,20 -38,12 -32,-9 50,-197 82,-391 91,-595 10,-204 3,-409 3,-613 1,-184 26,-361 81,-537 26,-84 56,-166 92,-246 35,-80 71,-165 124,-235 -3,-5 -2,-12 6,-16 93,-44 200,-61 302,-68 97,-7 209,-10 300,31 0,0 0,0 0,0 -15,-28 -27,-57 -36,-87 -1,0 -1,0 -2,1 -102,17 -199,-38 -302,-23 -91,14 -171,67 -259,86 1,25 -2,50 -13,71 -5,11 -20,5 -21,-6 -5,-44 0,-85 -11,-129 -12,-47 -33,-91 -54,-134 -39,-77 -82,-152 -123,-227 -5,-9 -10,-17 -15,-26 -3,94 2,189 -16,281 -20,98 -66,191 -120,275 -118,182 -164,393 -227,598 -5,18 -34,11 -28,-8 56,-190 97,-388 203,-559 60,-97 120,-182 149,-295 27,-103 3,-212 27,-314 -56,-101 -120,-224 -102,-337 -59,87 -73,197 -83,298 -11,102 -28,199 -54,299 -55,209 -134,411 -195,619 -30,101 -51,205 -74,309 17,-12 35,-18 55,-8 -4,-13 -8,-26 -13,-39 -7,-18 19,-31 32,-18 57,58 67,125 79,199 28,-31 34,-82 73,-106 11,-8 27,2 27,15 0,15 -3,29 -8,43 24,-12 48,-20 68,-24 51,-11 63,50 73,87 39,139 -166,54 -231,30 -2,2 -4,3 -6,4 -4,2 -8,2 -12,2 5,3 11,6 16,8 5,2 22,5 22,13 -1,2 -1,4 -1,5 6,-2 13,-4 19,-8 4,-2 8,2 6,5 -7,12 -15,20 -24,26 0,1 0,2 0,3 -7,26 -24,42 -46,50 -12,25 -32,42 -60,46 -22,3 -56,-1 -77,-16 -18,61 135,107 57,162 -30,21 -63,-17 -79,-38 -11,-16 -37,-47 -43,-74 -4,-1 -7,-5 -7,-10 4,-85 15,-171 30,-256 -7,-8 -13,-16 -18,-25 -5,-9 -2,-22 7,-27 8,-5 16,-11 25,-18 20,-100 46,-199 72,-295 57,-215 141,-422 202,-635 31,-109 45,-216 55,-328 9,-99 23,-200 72,-288 77,-143 235,-222 304,-373 2,-6 11,-5 13,0 12,0 24,1 35,2 26,-52 -98,-58 -131,-61 -10,-2 -15,-13 -8,-21 18,-22 43,-32 68,-42 -10,-16 -17,-33 -20,-52 -2,-2 -5,-3 -7,-5 -11,-7 -24,-19 -20,-34 14,-66 159,-13 67,-110 -2,-2 -2,-3 -1,-4 -23,-5 -38,-28 -44,-49 -7,-23 6,-44 17,-64 -9,-10 -14,-23 -14,-40 1,-19 10,-46 28,-55 8,-4 16,-6 25,-7 5,0 9,1 14,3 -2,-97 51,-206 106,-273 79,-97 248,-106 350,-38 1,0 1,0 1,0 33,1 60,10 84,32 1,0 1,0 1,1 0,-1 0,-1 0,-1 1,-5 7,-8 11,-5 12,9 21,19 29,30 1,-6 3,-11 6,-18 1,-3 6,-4 8,-1 1,2 2,4 3,5 3,-7 9,-13 18,-18 14,-7 21,-3 24,6 10,-14 23,-20 37,4 21,37 -14,64 -47,66 5,1 11,1 15,2 31,7 42,36 46,65 0,5 -6,10 -11,10 -22,0 -41,-7 -59,-17 1,8 0,16 -3,26 -3,8 -12,10 -18,5 -3,-3 -6,-5 -9,-8 -8,12 -24,18 -45,14 -21,-4 -29,-15 -29,-28 -13,5 -25,7 -36,2 2,27 -12,47 -42,42 -25,-5 -48,-32 -63,-55 0,1 -3,2 -4,0 -17,-25 -47,-63 -82,-48 -23,10 -40,35 -42,60 -3,33 34,49 60,34 -1,-1 -2,-2 -2,-3 -5,5 -12,6 -17,3 -25,-14 -41,-38 -28,-66 14,-30 51,-15 70,0 19,16 24,39 17,59 67,49 146,93 226,61 4,-2 6,4 3,7 -60,35 -148,20 -216,-20 85,68 258,138 318,29 0,-2 3,-1 2,1 -24,69 -103,81 -168,71 -67,-12 -172,-42 -199,-113 -21,7 -46,4 -65,-8 -15,-10 -23,-23 -26,-38 -12,4 -25,9 -36,16 33,22 101,45 74,94 -15,27 -55,41 -79,27 -2,6 -5,12 -12,16 -6,4 -13,6 -20,6 -4,8 -9,15 -15,19 15,22 20,48 -13,62 -27,12 -59,8 -86,-6 2,11 -9,24 -21,20 -13,-4 -27,-8 -39,-13 -12,28 -24,65 17,59 27,-4 50,-29 68,-47 13,-14 32,3 25,19 -18,36 -57,66 -99,65 21,11 38,23 45,47 5,18 3,44 -18,50 -12,3 -24,3 -35,5 -17,3 -32,6 -33,12 4,1 8,4 10,9 1,3 2,5 4,8 21,16 42,32 55,57 3,6 2,13 -4,18 42,40 97,60 164,64 62,3 125,-7 182,-31 -15,-1 -31,-4 -46,-7 -13,-2 -26,-6 -39,-10 -4,0 -8,-1 -12,-2 -38,-6 -76,-25 -108,-52 -64,-38 -137,-104 -101,-181 4,-8 18,-4 17,5 0,5 0,10 0,14 0,1 1,1 1,2 4,31 16,60 34,85 35,41 91,70 139,92 21,9 46,19 71,26 32,5 71,8 99,1 1,0 1,0 2,-1 -45,-5 -87,-11 -123,-50 -61,-66 -53,-165 -64,-247 -1,-4 5,-4 5,-1 23,77 21,155 65,225 27,43 78,56 130,65 6,-4 13,-9 20,-13 -26,-17 -49,-39 -67,-59 -41,-43 -77,-96 -95,-152 -4,-12 14,-19 20,-9 39,77 101,174 186,204 66,24 92,-54 109,-101 26,-73 42,-151 48,-228 0,-12 18,-12 18,0 4,90 -19,180 -49,264 -19,50 -47,100 -106,101 -2,0 -4,0 -6,0 3,3 7,6 11,10 4,4 0,11 -5,9 -16,-6 -32,-9 -48,-12 -14,3 -28,9 -42,15 -17,13 -35,24 -55,34 20,-7 40,-12 60,-17 97,-24 198,-21 259,67 38,55 45,130 54,195 12,86 14,175 18,263 6,137 -5,299 63,422 1,3 -3,5 -4,3 -58,-99 -60,-226 -66,-336 -8,-161 -7,-336 -63,-489 -35,-97 -117,-114 -202,-104 -46,81 -82,160 -97,253 -18,111 -8,226 14,335 38,186 106,374 213,532 -21,-80 -29,-163 -36,-246 -7,-84 -12,-168 -21,-252 -5,-43 -11,-87 -19,-129 -8,-43 -26,-84 -32,-127 0,-2 2,-4 4,-1 39,62 48,150 60,222 12,78 16,158 22,236 10,154 23,303 99,441 63,113 149,212 217,323 22,35 46,78 66,123 20,17 39,36 62,49 14,9 31,16 47,17 28,3 -15,-51 -21,-57 -6,-5 1,-13 8,-10 27,14 58,38 57,72 0,8 -3,15 -8,20 46,34 26,115 -40,94z"/>
    <path class="fil1" d="M3370 3047c19,-10 28,-37 34,-55 15,-44 21,-92 31,-137 1,-1 2,-1 3,1 7,60 6,121 -20,178 -22,52 -87,67 -125,19 -4,-5 -3,-14 2,-18 -11,-35 0,-77 33,-90 -23,-59 -73,-110 -55,-179 2,-6 12,-5 11,1 -5,67 45,122 71,180 3,8 1,16 -7,18 -35,12 -26,47 -29,74 0,0 0,0 0,1 17,7 34,16 51,7z"/>
    <path class="fil1" d="M1201 3867c0,0 0,0 0,0 1,0 2,0 2,0 -1,0 -2,0 -2,0zm-2 1c1,0 1,0 1,-1 0,0 0,0 0,0 0,1 0,1 -1,1zm267 138c0,0 0,0 0,0 0,0 0,0 0,0 0,0 0,0 0,0zm162 -148c1,4 3,8 5,12 6,14 15,16 27,5 -8,-9 -19,-15 -32,-17zm-18 -531c2,3 -1,8 -5,7 -44,-15 -75,9 -110,32 -31,20 -66,35 -100,45 -60,19 -128,12 -171,-35 -6,-7 -5,-15 0,-20 -7,2 -13,4 -20,6 -25,10 -42,17 -30,31 8,3 15,8 21,15 14,15 -4,40 -22,29 -4,-3 -9,-6 -13,-9 -10,-4 -16,8 -17,22 -3,16 5,28 16,38 5,1 11,4 16,10 2,2 4,4 6,6 14,10 6,28 -7,34 7,8 27,9 39,12 17,4 38,6 52,16 6,3 9,9 10,15 16,3 32,5 48,9 26,7 15,46 -12,40 -29,-6 -42,15 -35,42 8,30 38,32 64,35 2,1 4,1 6,2 5,-5 12,-7 19,-5 20,8 37,10 53,5 10,-11 21,-21 33,-30 6,-4 17,-4 23,0 4,3 6,6 7,9 12,8 18,25 5,38 -1,3 -2,6 -3,10 4,5 7,12 6,21 -2,11 -5,18 -10,26 -1,18 6,40 11,55 3,9 7,18 12,26 5,-9 10,-17 17,-24 16,-16 40,2 36,20 0,1 1,1 2,2 21,35 41,89 92,76 7,-1 13,-4 17,-8 -1,0 -1,0 -1,0 -51,14 -83,-52 -73,-93 2,-8 10,-12 17,-13 17,-2 34,1 49,6 -1,-4 -3,-9 -4,-13 -4,-16 20,-27 27,-12 19,40 52,36 66,13 -11,-7 -19,-16 -25,-26 -6,-11 8,-20 16,-13 5,4 9,8 15,11 -1,-6 -2,-11 -4,-17 -3,-10 11,-15 16,-7 5,10 8,22 9,35 9,3 17,5 25,5 10,1 16,-1 20,-4 -10,-9 -18,-19 -23,-25 -8,-13 9,-24 19,-15 1,0 2,1 3,2 0,-8 11,-14 16,-5 5,8 8,16 10,25 7,3 14,3 17,-5 2,-4 2,-7 2,-11 -21,1 -38,-13 -30,-49 2,-7 9,-9 15,-6 11,5 20,13 27,21 1,0 2,0 2,-1 -9,-11 -10,-26 5,-41 5,-5 15,-6 20,0 7,8 11,16 13,24 7,1 15,2 18,2 25,-1 -10,-24 -21,-33 -11,-9 -4,-26 8,-30 10,-4 21,-7 30,-12 -13,-7 -28,-10 -42,-14 -26,-7 -54,-11 -79,-23 -28,-13 -40,-51 -43,-79 -3,-21 1,-155 -45,-131 0,0 -1,0 -1,-1 -1,-2 -2,-4 -3,-6 -2,-3 -1,-7 1,-10 32,-34 66,36 69,60 4,35 2,70 11,105 10,35 33,36 62,42 34,6 83,10 108,37 23,26 -5,45 -31,57 25,32 36,73 -24,77 -10,0 -21,-2 -31,-6 -4,4 -8,7 -13,10 3,13 3,27 -4,41 -10,22 -28,22 -45,14 -4,8 -12,14 -25,18 -14,4 -30,2 -44,-3 -4,13 -13,24 -26,32 -13,7 -25,10 -37,8 15,24 18,53 2,81 -20,35 -70,47 -106,37 -34,-9 -53,-44 -67,-77 -3,2 -5,4 -8,5 -5,26 -4,56 -5,77 -1,37 -2,74 -3,111 -2,100 7,192 46,285 2,3 -3,6 -6,4 -79,-55 -76,-203 -77,-289 0,-29 0,-58 0,-87 -2,1 -4,2 -6,2 -5,0 -10,-3 -12,-7 -3,-4 -2,-9 -1,-12 0,-3 1,-5 3,-7 5,-4 12,-4 17,-1 0,-12 0,-23 1,-35 0,-14 1,-30 3,-46 -3,-2 -7,-4 -10,-7 -29,-27 -39,-66 -40,-104 -1,-1 -2,-1 -2,-2 7,47 -7,97 -28,143 10,13 18,26 27,40 4,6 7,12 11,16 -4,-4 7,7 8,7 4,7 4,15 0,21 0,0 0,0 0,1 -4,6 -11,10 -18,10 -19,0 -34,-16 -44,-30 -4,-5 -6,-10 -9,-16 -10,19 -21,36 -32,52 -43,66 -96,130 -159,180 4,4 6,10 5,15 -5,29 -17,55 -44,69 -16,9 -34,-13 -19,-26 9,-8 17,-20 23,-32 -7,4 -14,9 -20,13 -4,2 -8,1 -10,-1 -1,2 -1,5 -3,8 -13,22 -34,41 -61,35 -10,-2 -10,-16 -3,-21 14,-9 25,-18 34,-31 8,-12 23,-10 29,-1 1,-1 1,-3 3,-4 9,-8 19,-17 28,-26 -3,0 -6,-1 -9,-3 4,2 -1,0 -2,0 -1,-1 -9,-4 -5,-2 -1,0 -2,0 -3,-1 -1,0 -4,0 -5,-1 -3,0 -5,-2 -7,-5 -1,-1 -2,-4 -3,-4 -1,-13 8,-18 18,-22 13,-5 28,-1 36,9 2,2 3,4 4,6 9,-10 19,-20 28,-29 -11,-1 -21,-5 -31,-8 -12,-4 -12,-20 0,-23 15,-5 35,-5 50,0 2,1 3,2 5,3 8,-10 17,-21 25,-32 -18,2 -37,-5 -52,-15 -14,-9 -6,-33 12,-28 9,2 17,3 27,3 10,-1 19,-1 29,1 4,1 7,3 9,5 51,-74 90,-155 113,-244 -51,54 -106,105 -119,118 -60,57 -119,113 -175,174 -26,27 -90,103 -133,87 -6,-2 -5,-10 2,-11 18,-2 40,-31 53,-43 24,-21 45,-44 65,-68 35,-42 69,-83 106,-123 -14,11 -27,22 -41,32 -97,71 -210,117 -317,170 -2,1 -4,-2 -2,-3 91,-61 189,-109 279,-172 36,-26 70,-55 101,-86 -2,0 -5,1 -7,1 -9,1 -17,-4 -23,-10 -10,-10 -3,-31 12,-30 1,0 1,0 2,0 0,0 2,0 3,0 0,0 0,0 0,0 0,0 1,0 1,0 0,0 0,-1 0,-1 8,-7 21,-7 29,1 4,4 6,9 6,15 39,-42 75,-88 108,-134 -84,27 -128,-75 -98,-129 -1,0 -3,0 -4,-1 -12,-2 -17,-13 -15,-24 -12,-2 -26,-3 -33,-5 -17,-3 -34,-8 -49,-17 -23,-13 -26,-36 -18,-57 -22,-25 -31,-58 -17,-93 5,-13 13,-22 23,-28 -4,-11 -2,-24 12,-36 28,-24 78,-24 113,-21 6,0 8,10 1,11 -6,1 -12,2 -19,3 1,1 2,1 3,1 90,46 160,17 246,-25 37,-19 93,-44 121,0z"/>
    <path class="fil1" d="M1126 3611c9,0 17,1 25,5 7,3 15,9 19,16 2,5 3,10 0,16 -4,5 -12,9 -18,7 -5,-2 -8,-4 -11,-7 2,2 -5,-3 -5,-4 -6,-3 -10,-7 -16,-10 -11,-6 -6,-23 6,-23z"/>
    <path class="fil1" d="M1095 3710c-11,-5 -20,-12 -21,-25 -2,-9 7,-17 12,-23 1,-1 2,0 2,1 -5,7 -5,12 0,18 4,5 11,9 17,12 11,7 1,22 -10,17z"/>
    <path class="fil1" d="M1167 3692c-10,-5 -22,-7 -32,-11 -8,-2 -5,-14 3,-11 13,3 24,7 34,16 4,3 -1,8 -5,6z"/>
    <path class="fil1" d="M1123 3707c7,0 7,9 0,9 -6,0 -6,-9 0,-9z"/>
    <path class="fil5" d="M1126 3794c0,0 0,-1 0,-1 1,0 1,1 0,1z"/>
    <path class="fil1" d="M1174 3768c0,0 0,0 0,0 -3,2 -3,2 0,0zm-11 16c-2,-11 7,-20 17,-20 5,-2 11,0 15,3 10,9 9,25 -2,32 -13,7 -27,-1 -30,-15z"/>
    <path class="fil1" d="M1206 3726c20,6 12,34 -8,30 -10,-2 -19,-4 -27,-8 -5,5 -13,4 -18,-1 -6,-5 -5,-13 0,-19 -1,-7 4,-15 13,-14 7,1 14,2 20,4 7,3 13,6 20,8z"/>
    <path class="fil1" d="M1135 3801c2,9 -2,17 -12,18 -10,0 -13,-13 -6,-18 1,0 1,0 1,0 1,-9 16,-9 17,0z"/>
    <path class="fil1" d="M1093 3846c-1,2 1,-3 2,-4 3,-12 20,-12 24,0 0,1 2,6 1,4 5,10 -1,23 -13,23 -12,0 -19,-13 -14,-23z"/>
    <path class="fil1" d="M1224 3807c8,11 -3,27 -15,27 -13,0 -24,-16 -16,-27 4,-5 8,-11 16,-11 7,0 11,6 15,11z"/>
    <path class="fil1" d="M1247 3824c0,2 -1,5 0,7 4,9 -15,9 -11,0 1,-2 0,-5 -1,-7 -2,-10 14,-10 12,0z"/>
    <path class="fil1" d="M1136 3871c0,0 0,0 0,0 1,0 1,0 2,0 -1,0 -1,0 -2,0 0,0 0,0 0,0zm-1 0c0,0 1,0 1,0l0 0c-1,0 -1,-1 -1,0zm24 39c2,9 -4,17 -12,20 -13,5 -25,2 -36,-7 -9,-7 -13,-17 -15,-28 -4,-11 10,-23 20,-18 0,0 0,0 0,0 4,-8 12,-9 20,-7 0,0 1,0 2,0 -1,0 4,-2 4,-2 0,0 1,0 1,0 0,0 3,-3 1,-1 6,-5 19,-5 20,5 2,12 -2,21 -12,28 0,1 0,1 0,1 3,2 5,5 7,9z"/>
    <path class="fil1" d="M1081 3774c0,5 -5,11 -10,10 -8,0 -16,2 -23,1 -12,0 -11,-15 0,-17 7,-1 15,-4 23,-5 5,-1 10,5 10,11z"/>
    <path class="fil1" d="M1043 3861c4,-1 8,-5 13,-5 9,-2 11,12 1,12 -1,0 -3,1 -5,2 -1,0 -2,0 -4,0 1,5 6,10 11,12 3,1 5,0 8,1 6,0 11,0 17,2 13,3 13,23 0,26 -15,3 -28,-2 -37,-14 -3,-4 -5,-8 -6,-13 0,-3 -1,-5 -1,-8 0,-3 1,-7 0,-10 0,-2 1,-4 3,-5z"/>
    <path class="fil5" d="M1565 4191c-1,0 -1,0 -2,0 0,0 0,0 0,0 1,0 1,0 2,0z"/>
    <path class="fil5" d="M1563 4191l0 0c0,0 0,0 0,0l0 0z"/>
    <g>
     <g>
      <path class="fil1" d="M1680 4040c1,0 2,0 2,0 0,0 -1,0 -1,0 -1,0 -1,0 -1,0zm8 28c-5,3 -11,2 -16,-1 1,0 1,0 1,0 -1,-1 -3,-2 -4,-3 -2,-2 -4,-5 -4,-7 -1,-2 -1,-2 -1,-1 -3,-8 -2,-17 6,-22 8,-4 18,-2 22,6 3,4 5,8 5,13 -1,6 -4,12 -9,15z"/>
      <path class="fil1" d="M1696 4018c-5,3 -9,5 -14,6 -7,2 -13,2 -20,0 -12,-3 -11,-20 0,-24 4,-1 6,-2 11,-4 0,0 1,0 2,0 0,0 0,-1 1,-1 1,-1 3,-1 5,-2 7,-4 16,-2 20,5 4,7 2,17 -5,20z"/>
      <path class="fil1" d="M1744 4123c0,0 -1,1 -1,1 -4,2 -8,2 -12,1 -10,-4 -12,-16 -3,-22 -2,2 0,-1 1,-1 2,-3 5,-4 8,-5 7,-1 15,2 17,10 2,7 -3,14 -10,16z"/>
      <path class="fil1" d="M1619 4098c2,1 5,1 7,1 14,2 14,26 0,28 -2,1 -5,1 -7,1 -5,1 -9,0 -13,-1 -7,-2 -10,-7 -10,-12 -5,3 -12,1 -15,-2 -4,-4 -5,-7 -5,-12 0,-2 1,-4 1,-6 1,-1 1,-3 2,-4 0,0 0,0 0,0 1,-7 6,-12 14,-12 7,0 16,7 15,15 0,2 -1,4 -1,5 4,-1 7,-1 12,-1z"/>
      <path class="fil1" d="M1664 4108c-6,1 -12,-4 -16,-9 0,-1 -1,-2 -2,-3 -10,-14 10,-35 25,-24 1,0 2,1 3,1 5,4 10,10 9,16 0,1 0,1 0,1 -1,11 -8,17 -18,18 0,0 -1,0 -1,0z"/>
      <g>
       <path class="fil1" d="M1820 3890c0,0 0,0 0,0 -10,7 -19,12 -31,17 -10,4 -15,-12 -7,-17 8,-5 16,-11 23,-18 1,-6 6,-12 15,-12 19,0 19,30 0,30z"/>
       <path class="fil1" d="M1760 3983c2,1 4,2 5,4 1,-1 3,-2 5,-2 10,0 10,15 0,15 -2,0 -4,-1 -5,-2 -1,2 -3,3 -5,4 -6,2 -13,0 -18,-4 -5,-3 -7,-9 -4,-14 1,-2 2,-3 3,-4 -3,1 -7,0 -10,-1 -5,-2 -8,-5 -9,-9 -2,-5 0,-13 6,-15 0,0 0,0 1,-1 0,0 0,0 0,0 -3,-8 2,-17 11,-19 9,-3 17,3 20,11 3,9 2,19 -4,27 -2,3 -5,4 -7,6 2,0 4,1 6,3 1,1 3,1 5,1z"/>
       <path class="fil1" d="M1849 3951c-2,3 -6,7 -11,10 -3,2 -9,-3 -6,-7 3,-3 5,-7 7,-11 -3,-5 -6,-10 -6,-16 0,-5 5,-9 10,-9 0,0 1,0 1,0 0,-7 -2,-15 -4,-22 -1,-1 -1,-1 -2,-2 0,-2 -1,-3 -2,-4 -1,-4 2,-6 5,-5 2,1 3,1 4,2 3,1 4,3 3,5 5,13 9,27 8,40 0,0 0,1 1,1 7,7 0,17 -8,18z"/>
       <path class="fil1" d="M1783 3984c-2,-5 -4,-11 -4,-16 0,-2 0,-4 0,-6 0,-1 0,-1 0,-1 0,-1 0,-2 -1,-4 -6,-17 20,-27 29,-12 7,12 9,26 3,39 -4,10 -22,10 -27,0z"/>
       <path class="fil1" d="M1806 4038c-14,11 -30,20 -49,17 -10,-1 -15,-14 -5,-20 12,-7 26,-10 38,-18 12,-8 28,12 16,21z"/>
       <path class="fil1" d="M1708 4075c-10,-3 -10,-18 0,-21 4,-1 7,-3 11,-4 -2,1 1,-1 1,-1 1,0 1,0 1,0 0,0 0,0 0,-1 13,-12 33,8 20,19 -5,4 -9,6 -14,8 -6,2 -12,1 -19,0z"/>
       <path class="fil1" d="M1908 3806c26,0 26,39 0,39 -25,0 -25,-39 0,-39z"/>
       <path class="fil1" d="M1872 4007c-14,0 -14,-23 0,-23 15,0 15,23 0,23z"/>
      </g>
     </g>
     <path class="fil1" d="M1678 4200c-10,0 -10,-16 0,-16 11,0 11,16 0,16z"/>
     <path class="fil1" d="M1575 4202c0,7 -8,12 -15,10 -7,-2 -12,-11 -7,-18 2,-4 6,-5 10,-3 0,0 0,-1 0,-1 0,0 0,0 0,1 0,-1 0,-1 -1,-1 0,1 -1,1 -2,1 1,0 2,0 3,0 0,0 0,0 0,0 0,0 0,0 0,0 0,0 0,0 0,0 6,0 12,4 12,11z"/>
    </g>
    <path class="fil1" d="M1384 4034c13,17 29,34 40,53 7,14 -10,26 -21,16 -18,-16 -31,-36 -37,-59 -3,-9 11,-19 18,-10z"/>
    <path class="fil1" d="M1349 4155c-7,-20 -14,-39 -12,-61 1,-12 18,-19 24,-7 10,22 17,44 9,68 -3,11 -17,10 -21,0z"/>
    <path class="fil1" d="M1309 4199c0,0 -1,-1 -2,-1l0 0c1,0 2,0 2,1zm2 -54c4,12 6,23 7,36 2,11 4,28 -6,35 -1,1 -3,3 -5,3 -4,2 -10,-1 -12,-5 0,0 0,0 0,0 -7,-6 -9,-17 -11,-26 -2,-7 -4,-14 -5,-22 -1,-3 -1,-6 -1,-9 0,-1 -1,-8 -1,-3 -3,-22 26,-30 34,-9z"/>
    <path class="fil1" d="M1221 4227c1,-3 3,-3 4,-5 5,-7 15,-8 20,0 5,7 5,14 3,23 -2,8 -8,16 -13,22 -4,5 -12,5 -17,2 -7,-4 -9,-12 -5,-19 2,-4 4,-9 5,-14 0,-3 1,-6 3,-9z"/>
    <path class="fil1" d="M1283 3971c7,-6 15,-11 23,-16 6,-5 16,3 14,11 -4,10 -9,18 -17,25 -9,7 -19,14 -29,19 -15,9 -27,-13 -13,-22 8,-5 15,-11 22,-17z"/>
    <path class="fil5" d="M1123 4208c0,0 1,1 1,1 1,1 1,1 -1,-1z"/>
   </g>
  </g>
 </g>
</svg>
