<?xml version="1.0" encoding="UTF-8"?>
<!DOCTYPE svg PUBLIC "-//W3C//DTD SVG 1.1//EN" "http://www.w3.org/Graphics/SVG/1.1/DTD/svg11.dtd">
<!-- Creator: CorelDRAW X8 -->
<svg xmlns="http://www.w3.org/2000/svg" xml:space="preserve" width="4440px" height="6478px" version="1.1" style="shape-rendering:geometricPrecision; text-rendering:geometricPrecision; image-rendering:optimizeQuality; fill-rule:evenodd; clip-rule:evenodd"
viewBox="0 0 4440 6478"
 xmlns:xlink="http://www.w3.org/1999/xlink">
 <defs>
  <style type="text/css">
   <![CDATA[
    .fil2 {fill:#FEFEFE;fill-rule:nonzero}
    .fil4 {fill:#373435;fill-rule:nonzero}
    .fil5 {fill:#776A5E;fill-rule:nonzero}
    .fil3 {fill:#82B89F;fill-rule:nonzero}
    .fil0 {fill:#E23D8C;fill-rule:nonzero}
    .fil1 {fill:#FD9CB0;fill-rule:nonzero}
   ]]>
  </style>
 </defs>
 <g id="Layer_x0020_1">
  <metadata id="CorelCorpID_0Corel-Layer"/>
  <g id="_645086096">
   <path class="fil0" d="M1998 2899c-5,-13 -27,-16 -30,0 -7,44 -22,82 -43,122 -2,5 -5,10 -9,16 -3,-10 -7,-20 -10,-30 -13,-41 -26,-82 -46,-119 -9,-17 -40,-10 -38,10 4,43 15,84 26,125 5,18 9,37 14,55 -5,-1 -10,-2 -15,-3 -26,-6 -55,-14 -79,-26 -14,-7 -32,8 -23,23 17,28 41,42 71,53 20,8 44,16 68,17 3,4 7,8 13,9 17,13 48,7 46,-19 0,-2 -1,-4 -1,-6 19,-28 30,-68 42,-96 16,-39 30,-89 14,-131z"/>
   <path class="fil1" d="M1763 4523c-177,-57 -278,-247 -299,-423 -31,-268 84,-511 148,-764 0,-2 -4,-5 -5,-2 -110,245 -215,526 -174,799 24,159 136,413 327,416 15,1 17,-21 3,-26z"/>
   <path class="fil0" d="M2098 4551c-4,-12 -16,-17 -27,-11 -3,1 -6,2 -9,3 -7,-72 16,-144 11,-216 -1,-18 -22,-22 -32,-9 -9,14 -18,27 -29,38 14,-74 32,-147 26,-223 -4,-45 -33,-55 -74,-48 -22,3 -39,14 -59,26 -20,13 -92,55 -83,-1 9,-58 48,-111 70,-165 20,-49 29,-110 17,-162 -14,-65 -81,-80 -138,-71 -45,7 -89,18 -126,-16 -27,-26 -32,-69 -32,-104 -2,-70 19,-148 47,-211 2,-4 -3,-7 -5,-3 -56,88 -105,234 -39,329 41,59 112,43 173,36 113,-14 98,116 72,186 -16,46 -143,233 -29,246 59,6 98,-52 154,-57 49,-4 -10,236 -15,267 -3,14 8,26 22,23 20,-5 35,-15 47,-28 -4,62 -20,123 -12,185 2,11 11,22 23,18 6,-2 11,-3 17,-4 24,96 -19,202 -31,297 -2,17 25,20 28,4 23,-104 69,-223 33,-329z"/>
   <path class="fil2" d="M2904 4679c-38,71 -77,143 -116,214 -134,176 -271,344 -356,551 -20,46 2,91 39,118 -19,36 -36,73 -51,111 -21,-12 -45,-15 -70,-12 -2,-3 -4,-7 -7,-10 -10,-16 -18,-34 -26,-51 -1,-2 -2,-5 -4,-9 -4,-12 -9,-25 -13,-37 -8,-24 -15,-49 -22,-74 -12,-43 -22,-87 -32,-130 43,22 99,17 133,-20 196,-216 377,-446 543,-686 -6,12 -12,23 -18,35zm-667 -3090c-2,-2 -3,-5 -4,-7 3,-2 7,-3 11,-5 -3,4 -5,8 -7,12zm1761 4148c-6,-173 -37,-346 -40,-519 -9,-526 -98,-1057 -295,-1546 -80,-199 -176,-391 -290,-573 -115,-184 -262,-355 -388,-523 -115,-153 -192,-303 -198,-497 -3,-93 -13,-185 -10,-278 1,-44 6,-87 16,-130 10,-46 19,-95 35,-139 14,-39 -26,-71 -61,-67 -1,-1 -2,-2 -4,-2 -94,-57 -232,-47 -337,-35 -62,7 -122,20 -181,41 -30,11 -63,23 -91,41 -23,0 -44,19 -47,42 0,1 -1,2 -1,2 -19,27 0,54 24,63 42,94 54,204 62,304 6,64 8,128 9,191 2,57 5,112 -6,168 -1,0 -1,1 -1,2 -1,2 -2,3 -3,5 -11,18 -16,36 -17,54 -34,75 -96,131 -159,186 -93,80 -200,158 -261,267 -28,51 -3,118 54,133 35,10 77,-5 99,-34 17,18 39,30 62,32 21,43 71,68 126,58 10,-2 21,-4 31,-7 2,27 14,52 33,72 33,33 100,49 140,18 10,-8 21,-16 31,-24 4,61 60,109 123,106 -67,74 -135,146 -194,227 -52,71 16,166 92,174 -1,1 -2,2 -2,3 -24,38 -21,76 -3,106 -35,53 -69,106 -103,159 -33,52 -2,102 43,120 -28,43 -55,87 -83,130 -38,60 -5,124 46,152 -45,67 -87,135 -122,208 -22,45 -20,96 17,133 13,13 30,22 48,27 -32,66 25,136 87,147 -13,32 -25,65 -35,99 -21,76 35,129 98,132 -48,66 -93,135 -130,208 -11,-61 -21,-122 -32,-183 -12,-73 -21,-152 -55,-219 -43,-82 -162,-55 -187,25 -52,167 -54,349 -74,523 -8,78 -21,165 -45,244 -11,-93 -9,-187 -5,-281 8,-185 36,-371 26,-556 -6,-109 -151,-128 -187,-26 -61,180 -84,371 -129,555 -23,92 -52,194 -88,273 -13,28 -28,56 -44,82 -6,-42 -6,-87 -5,-130 2,-112 19,-223 33,-333 14,-113 34,-224 51,-335 19,-125 36,-259 -2,-381 -21,-69 -122,-90 -158,-21 -70,131 -113,273 -147,418 8,-96 7,-192 -10,-290 -13,-74 -117,-76 -151,-19 -154,253 -212,541 -284,824 -5,-314 69,-633 174,-921 27,-78 -95,-110 -123,-34 -81,223 -181,443 -259,668 9,-214 32,-426 97,-629 4,-11 -14,-18 -19,-8 -182,360 -174,779 -204,1172 -5,64 104,79 113,15 17,-114 43,-225 76,-335 -9,160 1,320 34,477 7,35 43,59 78,59 39,0 63,-25 77,-59 95,-225 136,-467 201,-702 -5,28 -11,56 -17,84 -42,196 -85,396 -69,597 8,89 115,121 166,45 76,-113 125,-234 162,-361 -3,32 -5,64 -6,95 -2,110 9,235 74,327 29,41 84,64 130,34 100,-63 166,-160 213,-267 11,98 36,193 86,277 34,58 117,70 165,21 110,-110 156,-257 182,-407 38,172 119,433 312,389 -1,4 -1,9 -2,13 -7,3 -15,5 -30,11 -30,11 -59,23 -87,37 -57,27 -109,75 -135,133 -30,65 -12,162 72,177 13,3 27,5 40,6 11,88 76,162 163,190 87,27 188,3 271,-24 177,-57 339,-147 473,-277 29,-28 57,-57 86,-86 11,21 24,41 40,60 60,73 151,92 240,77 55,-10 108,-31 159,-54 2,88 94,168 189,112 167,-100 162,-348 157,-518z"/>
   <path class="fil0" d="M2148 3230c-20,-10 -41,-19 -62,-29 -9,-4 -17,-8 -26,-12 -6,-4 -10,-6 -12,-7 -8,-4 -17,-5 -25,-2 -3,-3 -6,-5 -10,-6 -11,-3 -22,-2 -33,0 -15,4 -28,23 -22,39 3,8 8,16 13,24 -6,23 -5,51 -5,74 -1,33 -7,76 4,108 6,16 29,22 38,5 15,-27 14,-66 17,-95 0,-9 2,-17 3,-26 23,26 51,64 81,79 15,7 31,-5 28,-21 -7,-32 -41,-67 -60,-92 -1,-1 -1,-2 -2,-2 16,6 33,12 50,18 27,9 67,22 80,50 3,6 12,3 14,-2 15,-49 -32,-84 -71,-103z"/>
   <path class="fil3" d="M2040 3156c6,-1 11,-3 17,-4 39,-7 78,-17 116,-26 -35,27 -85,32 -133,30zm379 -158c-46,23 -89,48 -139,64 -20,6 -40,11 -61,16 -55,-16 -109,-9 -159,14 45,-51 68,-129 63,-189 -1,-14 -15,-22 -27,-15 -71,37 -139,134 -137,221 -2,1 -3,2 -4,4 -11,12 -4,28 9,32 0,0 0,1 0,1 -3,0 -6,-1 -9,-2 -27,-5 -39,35 -12,43 97,24 240,21 293,-79 71,-21 150,-53 187,-106 2,-3 -1,-6 -4,-4z"/>
   <path class="fil4" d="M2146 357c92,-106 197,-253 350,-259 126,-5 116,163 136,247 2,9 14,15 21,9 28,-20 54,-42 81,-62 15,35 10,74 26,109 14,30 43,39 73,41 14,105 -65,215 -100,309 -3,8 2,20 10,24 33,15 48,2 76,-18 14,-10 6,-39 -13,-31 -4,2 -14,7 -23,10 37,-100 97,-205 79,-313 -2,-7 -9,-11 -16,-11 -48,-3 -61,-19 -67,-64 -5,-31 -13,-58 -28,-85 -3,-7 -13,-10 -19,-6 -26,20 -51,39 -76,59 -17,-94 -20,-235 -139,-244 -168,-14 -301,151 -374,283 -1,2 2,4 3,2z"/>
   <path class="fil4" d="M1885 2656c-9,-10 -26,-4 -29,8 -12,38 -11,91 17,122 1,6 6,10 12,11 3,2 6,4 9,6 14,7 30,-11 18,-23 -1,-1 -2,-2 -3,-2 21,-38 3,-93 -24,-122z"/>
   <path class="fil4" d="M1953 2652c8,-13 6,-26 6,-41 0,-22 0,-43 -2,-64 0,-15 -21,-18 -25,-4 -13,41 -12,90 8,128 2,3 9,2 9,-3 -1,-3 -1,-7 -2,-11 3,-1 5,-2 6,-5z"/>
   <path class="fil4" d="M2173 2589c-9,1 -9,14 0,15 11,1 22,4 32,8 9,5 17,12 27,16 11,5 24,-9 14,-18 -19,-16 -48,-22 -73,-21z"/>
   <path class="fil4" d="M2076 3136c2,26 -27,24 -42,24 -49,2 -97,-8 -145,-12 15,-28 38,-55 59,-81 1,0 2,0 3,0 30,3 59,11 86,24 19,9 38,23 39,45zm126 50c38,7 91,70 33,88 -32,10 -75,-8 -89,-38 -4,-9 -19,-4 -19,5 4,54 -37,67 -65,55 2,-29 -4,-59 -12,-80 -2,-3 -4,-5 -6,-7 52,-14 102,-34 158,-23zm-191 -481c1,1 1,3 2,5 -1,-1 -2,-1 -4,-1 1,-2 2,-3 2,-4zm-16 50c-2,2 -6,3 -10,4 4,-8 7,-16 11,-25 2,0 3,-1 4,-2 1,9 0,17 -5,23zm-241 304c35,-25 69,-16 100,12 0,0 0,0 -1,1 -35,31 -77,24 -99,-13zm473 -331c-1,1 -1,2 -1,4 -5,-2 -12,4 -11,10 5,24 8,45 6,70 -1,21 32,21 33,0 0,-1 1,-1 1,-1 5,3 12,3 18,0 -12,15 -25,30 -37,44 -72,82 -162,161 -270,189 0,0 0,-1 0,-1 38,-51 62,-105 15,-172 -4,-5 -12,-5 -16,0 -10,13 -18,27 -26,41 8,-37 18,-73 30,-109 3,-9 6,-18 9,-27 12,4 23,3 32,-6 14,-13 11,-37 8,-54 0,-1 0,-1 0,-2 4,3 9,3 13,-1 12,-15 31,-36 30,-57 0,-5 -3,-9 -7,-12 24,-27 52,-48 86,-60 11,-4 6,-19 -5,-17 -26,5 -50,16 -71,31 1,-1 1,-3 2,-4 6,-30 4,-60 2,-90 0,-7 -10,-13 -16,-7 -6,9 -13,16 -18,26 -3,7 -4,15 -7,23 -1,4 4,6 6,2 5,-8 9,-18 15,-26 -1,10 -2,20 -4,30 -2,2 -4,5 -4,9 -1,10 -3,19 -3,29 0,11 11,16 20,13 -44,35 -75,89 -98,139 -7,8 -13,16 -18,25 -1,3 3,7 6,4 0,0 0,0 0,0 -20,50 -36,101 -46,154 0,2 -1,3 -1,5 -9,-21 -22,-40 -40,-56 -5,-4 -13,-5 -18,0 -39,46 -32,99 -11,150 -34,-14 -70,-8 -104,21 -5,5 -5,12 -3,17 8,17 19,29 32,38 -14,-2 -27,-4 -41,-4 -12,0 -12,18 0,18 41,2 76,15 107,42 10,8 25,-5 15,-15 -11,-11 -23,-20 -37,-27 22,0 45,-10 63,-32 2,-2 2,-4 2,-6 10,0 19,-10 13,-21 -26,-45 -56,-104 -25,-152 19,22 30,48 38,76 -4,27 -5,55 4,77 6,13 25,7 28,-4 8,-21 8,-47 8,-72 13,-29 25,-59 42,-86 54,102 -82,174 -121,261 -5,10 1,22 13,23 43,2 86,9 129,12 2,0 4,0 7,0 -6,11 3,29 20,25 1,0 3,-1 5,-1 -27,43 -15,77 10,95 -3,15 -11,29 -26,38 -52,35 -38,-90 -35,-105 1,-3 -4,-5 -5,-1 -11,32 -38,149 37,134 30,-6 45,-28 52,-55 38,13 85,-1 90,-49 22,19 50,29 81,27 32,-2 60,-29 53,-62 -17,-80 -108,-86 -186,-74 27,-52 -29,-90 -83,-108 26,-8 51,-19 75,-34 1,6 6,12 13,12 20,0 39,-7 55,-18 10,-6 4,-23 -8,-19 -5,1 -11,3 -16,5 -1,-2 -2,-3 -4,-5 0,0 -1,0 -1,-1 44,-32 84,-72 119,-109 71,-74 138,-163 180,-259 -1,5 -2,10 1,15 4,9 15,11 24,9 18,-4 33,-16 47,-28 14,-12 -4,-32 -18,-24 -10,5 -19,11 -28,17 -2,1 -4,3 -6,4 0,0 0,-1 0,-1 0,-8 -9,-10 -14,-6 5,-13 10,-26 14,-39 3,-8 -2,-15 -7,-19 -17,-12 -29,-12 -49,-8 -17,4 -13,30 4,31 5,-1 10,0 15,1 -10,31 -24,60 -39,89 -6,-26 -23,-53 -35,-70 -7,-12 -27,-8 -27,7 1,30 -5,60 4,89 4,13 22,9 22,-3 0,0 0,0 0,0 0,0 0,0 0,0 0,-1 0,-1 0,-1 0,-3 -1,-7 -1,-11 2,8 3,17 4,26 0,5 2,8 5,11 -19,29 -40,58 -62,85 2,-5 1,-12 -1,-17 -10,-17 -19,-30 -16,-50 1,-21 -33,-26 -37,-5z"/>
   <path class="fil4" d="M2166 2911c2,1 5,0 7,-1 6,-2 8,-9 8,-15 0,-5 -1,-8 -2,-15 -1,-11 -2,-22 -3,-33 -2,-11 -18,-11 -19,0 -1,11 -2,21 -3,31 -1,7 -2,11 -2,16 -1,6 1,14 7,16 3,1 5,2 7,1z"/>
   <path class="fil4" d="M2294 2922c6,-4 10,-13 3,-19 -5,-4 -10,-6 -15,-8 -3,-1 -15,-3 -16,-6 -3,-7 -13,-6 -13,1 0,5 2,9 5,13 -4,1 -9,2 -13,4 -11,6 -6,27 7,26 4,-1 9,-2 13,-3 1,1 2,3 3,5 2,3 4,7 7,9 -63,43 -124,89 -182,139 -1,1 1,3 2,2 64,-48 130,-92 198,-132 1,0 1,0 2,0 1,-1 1,-1 2,-1 -2,6 0,12 6,15 32,15 71,15 104,3 16,-5 15,-33 -4,-31 -31,3 -61,2 -91,2 100,-59 204,-113 309,-167 6,-3 2,-15 -5,-12 -23,10 -46,20 -68,30 7,-31 13,-62 22,-92 3,-12 -12,-17 -18,-8 -22,30 -29,71 -21,107 0,0 0,0 0,1 -80,37 -157,80 -231,128 -3,-2 -5,-4 -6,-6z"/>
   <path class="fil4" d="M2343 2816c-10,4 -10,16 0,20 12,5 28,5 42,7 15,2 28,2 42,-4 16,-7 10,-28 -6,-26 -18,3 -37,-1 -55,0 1,-5 3,-9 6,-13 3,-3 -1,-9 -5,-9 -7,0 -29,-12 -31,-2 -1,4 3,5 5,2 0,0 9,5 16,9 -4,6 -9,14 -14,16z"/>
   <path class="fil4" d="M2396 2746c7,7 21,8 27,0 1,-1 2,-2 3,-3 3,1 6,2 10,1 14,-4 23,-16 23,-31 0,-7 -3,-14 -7,-20 2,-10 -6,-20 -18,-17 -2,0 -4,1 -5,2 -6,1 -12,4 -15,9 -2,5 -4,9 -7,14 -2,4 -4,8 -7,12 0,2 -1,3 -2,5 -1,1 -5,6 -2,2 -6,8 -7,18 0,26z"/>
   <path class="fil4" d="M2293 3011c-11,-4 -20,-8 -32,-7 -4,0 -11,0 -15,3 -6,3 -9,8 -16,11 -2,0 -1,4 1,3 8,-2 18,2 27,3 9,0 19,2 27,4 10,2 18,-12 8,-17z"/>
   <path class="fil4" d="M2541 2875c-36,11 -77,12 -114,5 -12,-2 -20,13 -8,20 42,24 91,23 135,4 17,-7 5,-34 -13,-29z"/>
   <path class="fil4" d="M2582 2825c27,1 53,1 80,-6 10,-2 6,-17 -4,-15 -25,6 -51,8 -76,9 -8,0 -8,11 0,12z"/>
   <path class="fil4" d="M2647 2749c23,-26 41,-52 54,-84 6,-14 -16,-22 -23,-10 -16,26 -33,53 -50,79 -7,12 10,25 19,15z"/>
   <path class="fil4" d="M2158 3317c-11,-9 -25,10 -15,19 29,23 27,69 20,101 -5,26 -30,79 -65,62 -24,-11 -23,-57 -23,-78 -1,-28 2,-58 12,-85 3,-7 -10,-12 -13,-5 -18,42 -49,194 29,198 97,5 120,-163 55,-212z"/>
   <path class="fil4" d="M2009 1598c26,-62 51,-124 73,-187 3,-11 -13,-15 -17,-5 -45,118 -103,236 -132,359 -1,6 6,8 8,2 17,-44 35,-88 53,-132 10,89 74,161 121,238 62,103 67,216 1,317 -55,84 -140,146 -214,211 -51,44 -109,93 -145,153 1,-10 2,-21 2,-31 7,-107 20,-212 39,-317 18,-99 58,-192 83,-289 1,-2 -2,-3 -2,-1 -86,168 -130,367 -142,555 -6,106 -12,212 -20,317 -10,118 -28,234 -44,351 -1,8 10,12 12,4 51,-164 60,-343 69,-516 0,-1 1,-2 1,-2 104,-173 299,-261 404,-432 53,-85 55,-184 20,-276 -44,-115 -156,-193 -170,-319z"/>
   <path class="fil5" d="M2725 1419c-4,0 -4,7 0,7 4,0 4,-7 0,-7z"/>
   <path class="fil4" d="M150 5628c23,-266 53,-525 127,-783 69,-239 169,-468 287,-686 239,-440 550,-832 852,-1228 38,-50 77,-99 111,-152 9,150 23,300 64,443 4,13 21,7 19,-5 -16,-114 -36,-226 -45,-341 -3,-48 -6,-96 -9,-144 1,0 1,-1 2,-2 2,-4 0,-8 -3,-11 -3,-62 -6,-124 -10,-187 -6,-111 -19,-229 10,-338 14,-52 41,-106 50,-160 29,-75 59,-149 83,-226 54,-173 93,-350 147,-523 37,-119 97,-266 249,-222 33,9 65,22 95,-2 52,-42 84,-109 82,-175 0,-2 -3,-3 -3,-1 -9,57 -61,188 -138,169 -52,-13 -91,-27 -145,-13 -110,28 -138,155 -166,248 -51,170 -89,344 -141,514 -18,57 -40,113 -63,170 0,-5 -1,-9 -2,-14 -1,-3 -5,-1 -4,1 1,8 1,16 2,25 -40,99 -79,198 -92,304 -1,4 3,6 6,6 -9,84 -4,172 0,255 4,63 7,127 10,191 -80,86 -149,184 -221,277 -75,98 -150,195 -224,294 -149,198 -293,400 -424,611 -262,417 -451,876 -515,1366 -15,112 -22,226 -16,339 1,16 24,16 25,0z"/>
   <path class="fil4" d="M4333 5974c-115,-21 -226,-13 -332,15 1,-105 -6,-209 -12,-313 -10,-145 -24,-289 -42,-433 -35,-279 -90,-555 -169,-824 -81,-276 -193,-546 -340,-793 -128,-214 -298,-399 -448,-596 -120,-156 -216,-320 -293,-500 -21,-196 5,-393 31,-587 12,-93 34,-185 45,-279 10,-79 18,-171 -22,-244 -1,-1 -2,-2 -3,-2 6,-7 6,-19 -5,-23 -2,0 -3,0 -4,-1 25,-44 68,-117 24,-164 -36,-38 -112,-33 -159,-43 -35,-7 -67,-20 -92,-46 -33,-34 -24,-100 -19,-142 10,-69 32,-136 52,-202 0,-1 1,-2 1,-3 20,-39 33,-81 44,-123 1,-4 2,-9 4,-14 27,20 70,11 102,-3 14,-7 4,-29 -11,-25 -23,7 -57,19 -78,1 -1,-2 -2,-3 -4,-5 6,-22 8,-44 0,-59 -3,-4 -9,-5 -13,-1 -2,-35 1,-70 -4,-105 -2,-10 -14,-10 -20,-5 -33,26 -63,52 -102,64 -1,-50 19,-98 32,-147 2,-7 -5,-11 -12,-9 -46,20 -89,47 -135,66 -66,26 -66,-68 -73,-110 0,-3 -5,-2 -5,1 -3,41 -5,123 51,130 21,3 43,-9 61,-18 32,-15 62,-32 93,-47 -16,50 -37,96 -35,150 0,8 7,12 15,11 43,-8 76,-33 109,-60 3,47 -8,95 7,140 0,2 -1,4 -1,6 -7,33 -17,66 -28,98 -22,64 -63,156 -140,164 -75,8 -130,-75 -159,-132 -31,-61 -50,-130 -49,-199 0,-8 -13,-10 -14,-2 -24,118 64,348 203,358 54,4 94,-24 124,-63 -13,41 -25,82 -33,125 -13,66 -20,147 36,196 45,40 112,44 169,54 23,4 54,9 67,31 19,32 -21,91 -36,117 -1,2 -2,5 -2,7 -204,-52 -412,-39 -608,43 -1,0 0,2 1,2 208,-67 424,-71 634,-10 2,1 4,1 5,1 0,0 0,1 0,2 51,180 -14,369 -41,548 -26,173 -54,353 -30,529 -2,2 -3,4 -2,8 2,6 4,13 6,19 1,10 3,19 5,29 0,3 3,5 5,6 69,211 209,397 344,569 159,202 321,397 442,624 280,521 411,1110 467,1695 17,182 20,365 30,547 -111,34 -217,90 -317,159 -44,31 -84,64 -123,101 -23,21 -47,40 -76,50 -20,7 -40,1 -58,-8 -33,-15 -26,-36 -24,-61 5,-77 -114,-121 -173,-129 -90,-12 -182,17 -264,50 -97,37 -188,86 -281,130 -86,40 -195,91 -292,73 -61,-11 -38,-121 -42,-165 -25,-249 -356,-235 -541,-225 -304,18 -600,205 -908,140 36,-61 122,-79 183,-105 68,-29 127,-70 142,-147 31,-155 -201,-137 -291,-133 -131,5 -259,37 -389,55 -82,12 -165,22 -248,20 -56,-1 -141,-6 -171,-63 -3,-5 -10,0 -8,5 44,101 226,80 311,74 144,-10 285,-43 428,-61 60,-8 125,-7 185,-5 71,1 174,15 155,110 -33,159 -279,112 -337,257 -4,8 3,19 11,21 247,61 494,-42 731,-98 120,-29 237,-36 360,-33 96,2 212,6 291,70 68,55 56,146 59,224 2,59 31,94 91,101 90,10 186,-31 267,-66 98,-44 193,-96 292,-137 104,-43 231,-84 337,-30 24,12 64,36 65,67 1,26 -3,44 12,66 31,48 98,47 143,27 59,-27 103,-88 155,-126 67,-48 137,-92 212,-128 37,-18 76,-33 115,-45 1,21 2,42 4,63 1,15 23,15 24,0 2,-24 3,-48 3,-72 107,-27 217,-31 329,-16 19,2 23,-30 4,-34z"/>
   <path class="fil4" d="M1547 3440c5,-25 11,-49 20,-73 -5,25 -12,49 -20,73zm526 1721c76,-121 78,-278 58,-414 -23,-147 -87,-288 -149,-422 -65,-140 -135,-278 -183,-425 -59,-178 -86,-367 -163,-540 -1,-1 -2,-2 -3,-3 0,0 0,-1 0,-1 0,-3 0,-5 -1,-7 6,10 12,20 18,30 28,43 64,100 112,121 44,20 58,-27 60,-61 1,-30 58,-53 77,-77 22,-29 24,-68 17,-101 -2,-10 -15,-6 -16,2 -5,46 -8,80 -48,109 -14,10 -52,26 -57,45 -3,12 6,52 -11,59 -12,4 -33,-19 -40,-26 -37,-34 -68,-78 -97,-119 -20,-29 -44,-59 -58,-91 -2,-4 -7,-1 -6,2 7,36 27,71 47,104 -8,-10 -29,-7 -29,10 -1,103 -8,205 -14,308 -8,38 -20,76 -38,111 -10,-78 -18,-164 -13,-246 31,-73 55,-152 63,-230 1,-11 -14,-14 -19,-6 -44,71 -63,152 -68,236 -24,56 -57,119 -107,157 -40,-150 80,-330 168,-441 3,-5 -2,-11 -7,-7 -70,58 -118,139 -154,222 -34,76 -61,172 -28,253 3,8 13,14 21,8 47,-32 80,-84 105,-136 0,78 9,156 18,229 2,13 16,18 24,7 12,-18 22,-36 30,-55 -3,90 -4,179 4,269 16,172 73,449 299,437 35,-2 35,-52 0,-55 -200,-18 -228,-292 -242,-444 -15,-159 -12,-318 -10,-477 0,-9 0,-18 0,-26 27,140 69,280 98,419 29,139 100,272 159,400 63,136 126,273 162,419 17,68 26,137 26,208 -1,80 -22,152 -40,230 -5,21 23,33 35,15z"/>
   <path class="fil5" d="M2467 604c-15,0 -15,24 0,24 15,0 15,-24 0,-24z"/>
  </g>
 </g>
</svg>
