<?xml version="1.0" encoding="UTF-8"?>
<!DOCTYPE svg PUBLIC "-//W3C//DTD SVG 1.1//EN" "http://www.w3.org/Graphics/SVG/1.1/DTD/svg11.dtd">
<!-- Creator: CorelDRAW X8 -->
<svg xmlns="http://www.w3.org/2000/svg" xml:space="preserve" width="3585px" height="5653px" version="1.1" style="shape-rendering:geometricPrecision; text-rendering:geometricPrecision; image-rendering:optimizeQuality; fill-rule:evenodd; clip-rule:evenodd"
viewBox="0 0 3585 5653"
 xmlns:xlink="http://www.w3.org/1999/xlink">
 <defs>
  <style type="text/css">
   <![CDATA[
    .fil1 {fill:#FEFEFE;fill-rule:nonzero}
    .fil4 {fill:#373435;fill-rule:nonzero}
    .fil2 {fill:#FBD2CD;fill-rule:nonzero}
    .fil0 {fill:#776A5E;fill-rule:nonzero}
    .fil3 {fill:#82B89F;fill-rule:nonzero}
   ]]>
  </style>
 </defs>
 <g id="Layer_x0020_1">
  <metadata id="CorelCorpID_0Corel-Layer"/>
  <g id="_751798432">
   <path class="fil0" d="M1397 175c30,-17 60,-33 89,-52 4,-2 0,-9 -4,-6 -29,17 -58,35 -88,52 -3,3 0,8 3,6l0 0z"/>
   <path class="fil1" d="M1223 1931c0,-3 1,-5 1,-7 5,-15 1,-27 -7,-35 14,3 27,5 41,7 -13,11 -24,22 -35,35zm-116 -153c-14,1 -27,7 -37,16 -2,-28 -5,-56 -10,-84 -4,-26 -34,-40 -58,-35 -1,-5 -3,-9 -7,-12 0,-2 0,-5 0,-10 2,-12 2,-25 3,-38 3,-28 2,-54 1,-82 -3,-34 -5,-68 1,-99 55,-7 102,-24 156,8 46,27 83,70 125,103 5,5 11,9 17,13 29,21 57,5 69,-20 9,17 19,33 28,49 17,31 35,61 51,92 -3,8 -7,17 -10,26 -5,16 -1,31 8,43 -1,12 -2,24 -2,36 0,1 -1,1 -1,2 -5,5 -10,10 -15,16 0,0 0,0 0,0 -105,25 -213,-25 -319,-24zm44 126c-1,2 -1,4 -2,6 0,-3 -1,-6 -1,-9 0,-3 -1,-6 -2,-8 0,-4 1,-8 1,-12 8,0 15,1 23,2 -8,4 -15,11 -19,21zm68 -721c-1,16 -3,32 -4,48 -4,-4 -9,-7 -13,-9 5,-13 11,-26 17,-39zm110 251c2,1 3,1 5,1 -4,4 -7,9 -7,15 -6,-6 -11,-11 -16,-17 6,0 12,1 18,1zm134 -11c-3,3 -5,5 -8,8 -9,-3 -17,-5 -26,-7 11,0 23,0 34,-1zm524 -27c-43,-100 -149,-220 -267,-219 -23,0 -49,22 -47,47 4,31 9,64 10,95 -87,-8 -174,-8 -261,-14 -13,-1 -23,3 -31,10 -2,-1 -4,-2 -7,-3 -16,-6 -43,-9 -71,-14 9,-35 11,-72 12,-104 1,-34 -2,-72 -18,-104 -18,-39 -51,-66 -81,-96 -19,-18 -49,-4 -51,21 -2,46 -105,79 -138,92 -68,28 -140,50 -207,81 -168,80 -213,303 -204,471 0,13 22,18 24,3 18,-102 29,-206 81,-298 26,-47 59,-81 99,-107 -9,11 -18,24 -25,38 -9,10 -18,20 -26,31 -5,-1 -9,1 -12,6 -3,7 -6,14 -9,21 0,0 0,0 -1,1 -31,42 -63,98 -53,153 -13,37 -20,74 -24,113 -1,1 0,1 0,1 -10,41 -7,82 39,106 38,20 86,21 128,31 42,10 82,20 124,19 14,147 5,375 139,456 -1,15 6,31 23,44 17,12 36,16 55,14 86,25 165,73 253,93 3,13 10,25 22,33 55,36 125,77 193,72 8,-1 14,-3 20,-5 2,6 5,12 8,19 22,42 81,27 95,-13 24,-73 26,-150 33,-226 7,-72 25,-141 34,-212 56,-82 101,-176 126,-272 10,-1 19,-6 24,-15 61,-116 42,-252 -9,-369z"/>
   <path class="fil1" d="M1048 2706c4,10 8,19 12,25 5,8 10,15 16,22 -28,-3 -56,-5 -84,-5 0,-2 0,-3 1,-4 10,-4 21,-9 31,-15 10,-7 18,-14 24,-23zm823 111c-2,-32 -16,-55 -37,-69 1,-2 2,-4 3,-6 14,-36 -22,-64 -53,-68 -17,-3 -35,-2 -53,0 -4,-9 -11,-17 -21,-23 -75,-42 -161,-14 -241,-10 -69,4 -141,3 -209,17 -72,-22 -142,-54 -212,-80 -29,-10 -49,5 -57,27 -6,1 -12,6 -13,15 -15,20 -28,41 -37,63 -24,6 -52,10 -62,14 -31,11 -39,44 -19,69 5,5 10,10 14,14 -8,25 5,58 32,67 58,18 115,33 175,39 25,3 39,-11 44,-28 75,38 163,41 246,44 72,2 151,28 224,19 6,25 32,46 57,47 85,4 227,-46 219,-151z"/>
   <path class="fil1" d="M2066 2254c-3,-1 -5,-2 -8,-3 2,-6 4,-12 6,-19 1,5 2,9 3,13 0,3 -1,6 -1,9zm129 161c-21,-87 -40,-171 -54,-258 5,-65 9,-130 11,-196 1,-15 -11,-27 -25,-30 1,-14 3,-28 6,-41 1,-5 -6,-7 -7,-2 -6,15 -13,30 -20,44 -5,3 -9,7 -12,13 -52,113 -110,232 -121,357 -4,15 1,32 16,44 47,34 96,66 137,109 29,31 78,-2 69,-40z"/>
   <path class="fil1" d="M2650 2217c-14,-125 -17,-254 -17,-379 -1,-51 -79,-66 -93,-17 -21,41 -39,83 -57,126 -5,6 -10,13 -12,22 -5,15 -9,30 -13,45 -11,29 -22,58 -33,86 -20,50 -40,99 -60,149 -17,43 -29,91 -47,134 -18,30 -35,60 -48,92 -8,19 -8,46 5,63 3,20 15,35 39,41 54,13 109,22 164,21 82,17 161,13 191,-75 33,-99 -9,-209 -19,-308z"/>
   <path class="fil2" d="M1888 786c2,0 4,0 6,0 1,8 3,18 8,26 -8,-5 -13,-15 -14,-26zm59 -118c4,6 8,12 11,20 -1,1 -2,3 -3,6 -3,-3 -6,-7 -9,-10 -4,-6 -11,-32 1,-16zm66 84c0,-1 0,-1 0,-2 -1,-5 -4,-8 -7,-10 2,-5 0,-13 -6,-15 -1,-44 -28,-111 -70,-96 -27,9 -25,43 -16,64 5,11 14,21 25,29 -15,0 -28,8 -36,22 -11,-1 -22,-1 -34,-2 -10,0 -18,7 -21,16 -26,76 51,121 101,97 10,3 20,4 27,3 1,0 2,0 3,0 11,15 40,10 41,-13 0,-15 1,-29 0,-44 1,-9 1,-18 3,-27 1,-10 -3,-18 -10,-22z"/>
   <path class="fil2" d="M1286 1683c-14,-17 -18,-42 -17,-66 11,19 16,43 17,66zm59 -56c3,28 -4,53 -25,73 0,-3 0,-7 0,-10 2,-24 9,-48 25,-63zm65 100c-11,-16 -25,-26 -40,-29 15,-31 18,-68 6,-104 -3,-8 -13,-16 -23,-12 -20,8 -35,21 -46,38 -9,-22 -22,-42 -42,-57 -9,-7 -24,0 -26,10 -6,29 -8,64 0,94 -8,-1 -17,-2 -26,-1 -9,1 -19,8 -18,18 3,34 23,52 50,59 3,2 7,3 12,3 38,2 76,12 114,15 8,1 14,-3 17,-9 4,0 9,0 13,-1 10,-2 15,-16 9,-24z"/>
   <path class="fil3" d="M2269 793c-2,4 -3,10 -4,16 -19,16 -40,27 -63,33 11,-32 38,-52 71,-57 -2,2 -3,5 -4,8zm-126 57c-23,-8 -44,-38 -33,-62 1,-1 1,-2 2,-4 1,-4 0,-8 -3,-11l2 -1c15,21 30,44 38,69 3,11 5,12 -6,9zm-17 -120c7,-11 14,-21 22,-31 13,-14 7,3 2,12 -7,12 -18,22 -31,31 3,-4 5,-8 7,-12zm-81 84c12,-8 24,-16 36,-24 -8,13 -21,21 -36,24zm15 -92c-3,-10 -5,-21 -3,-31 1,-2 1,-3 2,-5 0,0 0,0 0,1 12,21 17,51 19,77 -7,-14 -13,-28 -18,-42zm304 62c-2,-2 -4,-5 -6,-8 -7,-8 -19,-9 -27,-5 -1,0 -2,0 -2,0 -3,-3 -7,-5 -10,-8 3,-46 -5,-96 -42,-126 -7,-5 -16,-7 -23,0 -40,41 -20,82 15,113 0,0 0,1 0,1 -42,2 -78,25 -98,61 -9,-21 -24,-41 -36,-57 21,-16 48,-43 35,-71 -14,-27 -48,16 -70,52 -5,-37 -16,-85 -41,-81 -23,2 -33,33 -29,54 5,23 17,48 35,66 -20,12 -42,24 -59,40 -7,7 -3,18 5,20 25,9 52,3 72,-12 7,26 31,49 58,56 6,2 13,2 19,0 4,5 10,8 16,8 31,-1 59,-9 84,-24 0,31 4,64 18,81 -1,5 -3,10 -5,15 -7,18 19,31 31,18 7,-6 12,-14 18,-23 1,0 3,0 4,-1 13,-5 16,-21 11,-31 5,-13 8,-27 10,-41 3,3 5,5 8,8 16,16 43,28 66,25 10,10 29,0 28,-14 -2,-52 -39,-93 -85,-116z"/>
   <path class="fil3" d="M818 3370c48,-77 88,-158 94,-248 27,12 55,22 83,32 -57,72 -113,149 -177,216zm319 -177c-22,41 -42,84 -69,122 -1,2 -2,4 -3,5 19,-44 34,-89 38,-134 11,2 23,5 34,7zm600 -94c4,-16 8,-32 12,-48 5,-15 -2,-26 -12,-32 0,-6 0,-12 0,-18 -2,-28 -40,-42 -55,-15 0,0 0,1 0,1 -3,1 -6,3 -8,7 -11,22 -20,45 -28,68 -5,0 -10,0 -15,1 -93,11 -187,16 -281,11 8,-28 18,-56 31,-83 8,-18 -2,-35 -15,-43 -3,-27 -39,-41 -55,-14 -1,2 -2,4 -3,5 -8,-3 -17,0 -21,10 -9,29 -18,57 -29,85 -5,10 -9,20 -13,30 -46,-6 -91,-15 -136,-27 -19,-5 -39,-11 -59,-16 2,-8 3,-15 4,-22 7,-31 14,-64 11,-96 -1,-25 -31,-36 -47,-18 -7,-9 -21,-2 -22,9 -3,19 -5,38 -7,56 -5,16 -9,32 -12,49 -14,-4 -28,-9 -41,-14 -28,-9 -57,-19 -84,-31 -24,-10 -48,-32 -73,-38 6,-33 20,-68 21,-101 2,-18 -21,-25 -32,-11 -20,27 -27,68 -36,100 -2,6 -4,14 -7,23 -14,13 -21,32 -16,54 12,58 106,98 154,120 4,1 7,3 11,5 -9,78 -50,146 -94,210 -48,68 -103,133 -148,203 -23,34 19,65 51,51 137,-62 228,-186 319,-304 -30,71 -79,137 -117,196 -75,116 -145,233 -228,343 -15,19 -29,37 -43,57 -38,53 50,121 91,70 10,-13 21,-27 31,-41 53,-68 115,-130 175,-193 -10,22 -19,44 -29,66 -38,88 -81,176 -108,269 -28,4 -56,23 -66,51 -44,119 -6,259 21,377 14,58 28,117 34,174 10,87 29,173 30,261 1,47 36,71 73,73 -1,18 -2,37 -2,55 -1,25 10,43 25,55 -6,8 -11,17 -14,28 -9,33 -11,66 -11,100 -1,58 49,79 92,67 13,3 25,5 37,4 54,0 104,-24 151,-53 19,4 39,3 56,-6 31,14 72,8 99,-15 51,-44 73,-111 88,-174 17,-76 33,-152 53,-227 33,-124 62,-247 87,-372 27,-89 47,-179 59,-273 42,-326 125,-644 194,-965 10,-45 -12,-78 -43,-94z"/>
   <path class="fil3" d="M1688 1211c-3,-29 -25,-49 -56,-43 -26,6 -51,17 -76,26 -24,9 -58,15 -79,30 -5,4 -9,8 -12,13 -2,-2 -4,-5 -6,-7 0,0 -1,-1 -1,-1 2,-10 -1,-21 -10,-31 -25,-26 -54,-48 -87,-64 -28,-13 -57,4 -60,35 -3,40 -22,78 -26,119 -3,24 22,46 45,45 31,0 59,-9 86,-20 32,31 74,46 122,52 54,6 136,11 158,-50 4,-10 3,-23 -1,-33 4,-23 6,-47 3,-71z"/>
   <path class="fil2" d="M2579 912c-24,7 -54,7 -78,-4 -31,-15 -29,-51 -25,-80 0,-3 0,-6 -1,-8 3,3 6,5 9,7 18,12 35,8 47,-4 1,20 28,24 41,13 1,0 1,0 1,0 25,8 58,21 59,43 1,20 -39,30 -53,33zm-142 -186c0,9 -2,19 -4,29 -7,-8 -15,-15 -23,-21 2,-12 6,-24 10,-32 13,-25 17,13 17,24zm117 -130c33,-21 15,48 12,61 -5,20 -12,43 -23,62l0 0c-12,-34 -27,-99 11,-123zm84 149c16,13 -2,22 -25,29 2,-13 -2,-25 -13,-35 12,-5 26,-4 38,6zm-308 42c-1,0 -9,2 -17,3 2,-2 4,-4 6,-6 4,1 7,1 11,3zm304 27c42,-16 76,-44 45,-91 -19,-28 -47,-37 -74,-32 20,-64 24,-138 -37,-144 -63,-5 -86,66 -85,114 0,19 4,38 9,56 -2,0 -5,1 -7,1 0,-9 -1,-17 -2,-24 -6,-40 -48,-64 -83,-42 -20,12 -33,34 -39,59 -42,-7 -103,28 -106,69 0,3 0,5 0,8 0,3 0,5 0,8 -5,31 12,63 50,75 35,12 71,-18 89,-55 7,5 14,8 23,10 3,2 7,4 12,5 -27,107 81,153 172,122 32,-11 73,-36 75,-74 2,-29 -18,-50 -42,-65z"/>
   <path class="fil1" d="M2113 743l-3 -7c-2,-6 -10,-11 -16,-12 -9,-3 -20,0 -27,7 -5,5 -8,12 -8,19 0,9 5,20 14,23l7 3c4,3 8,4 12,4 7,0 13,-3 18,-7 3,-3 5,-7 6,-11 2,-7 0,-12 -3,-19z"/>
   <path class="fil1" d="M2189 695c-27,0 -27,41 0,41 27,0 27,-41 0,-41z"/>
   <path class="fil1" d="M2229 801c-13,0 -15,17 -5,22 -6,4 -4,15 5,15 8,0 10,-11 5,-15 9,-5 8,-22 -5,-22z"/>
   <path class="fil1" d="M2331 742c-11,0 -11,16 0,16 11,0 11,-16 0,-16z"/>
   <path class="fil1" d="M2337 819c-21,0 -21,32 0,32 20,0 20,-32 0,-32z"/>
   <path class="fil1" d="M2437 682c-3,-6 -10,-7 -15,-4 -8,-1 -15,7 -15,15 0,11 13,19 22,13 9,-5 12,-15 8,-24z"/>
   <path class="fil1" d="M1803 824c-15,0 -15,22 0,22 14,0 14,-22 0,-22z"/>
   <path class="fil1" d="M1922 887c-21,0 -21,32 0,32 21,0 21,-32 0,-32z"/>
   <path class="fil1" d="M1979 796c-29,0 -29,44 0,44 28,0 28,-44 0,-44z"/>
   <path class="fil1" d="M2030 893c-21,0 -21,32 0,32 20,0 20,-32 0,-32z"/>
   <path class="fil1" d="M2098 806c-23,0 -23,36 0,36 23,0 23,-36 0,-36z"/>
   <path class="fil1" d="M2195 860c-12,0 -12,18 0,18 11,0 11,-18 0,-18z"/>
   <path class="fil1" d="M2109 656c-18,0 -18,29 0,29 19,0 19,-29 0,-29z"/>
   <path class="fil1" d="M2263 831c-12,0 -12,19 0,19 12,0 12,-19 0,-19z"/>
   <path class="fil1" d="M2331 916c-20,0 -20,31 0,31 20,0 20,-31 0,-31z"/>
   <path class="fil1" d="M2467 966c-14,0 -14,22 0,22 14,0 14,-22 0,-22z"/>
   <path class="fil1" d="M2393 784c-28,0 -28,45 0,45 29,0 29,-45 0,-45z"/>
   <path class="fil1" d="M2496 840c-2,0 -3,0 -5,0 1,-1 1,-3 1,-5 0,-10 -9,-19 -19,-19 -7,0 -13,4 -16,10 -5,3 -8,8 -8,15 0,8 5,16 13,18 4,1 8,0 11,0 -2,13 5,28 23,28 30,0 30,-47 0,-47z"/>
   <path class="fil1" d="M2376 876c-21,0 -21,32 0,32 21,0 21,-32 0,-32z"/>
   <path class="fil1" d="M2547 710c-8,0 -8,11 0,11 7,0 7,-11 0,-11z"/>
   <path class="fil1" d="M2579 874c-3,-1 -6,-1 -8,-2 -8,0 -14,7 -14,14 0,7 6,15 14,14 2,0 5,-1 8,-2 12,-3 12,-20 0,-24z"/>
   <path class="fil1" d="M3219 5092c-18,76 -59,141 -112,194 -5,-39 -10,-77 -13,-116 -6,-88 -9,-173 -30,-256 1,-4 2,-9 2,-13 2,-117 -5,-233 -12,-349 22,29 44,59 64,90 84,132 138,292 101,450zm-354 303c3,12 10,21 20,26 -9,3 -18,7 -28,10 3,-12 6,-24 8,-36zm-243 -935c1,-4 2,-7 3,-11 2,4 4,8 6,12 -3,-1 -6,-1 -9,-1zm-70 -106c4,-9 7,-18 11,-26 1,2 3,5 4,8 -5,6 -10,12 -15,18zm-116 -45c1,-3 1,-7 2,-11 7,-12 13,-25 20,-37 12,-21 24,-42 34,-64 7,13 14,25 21,38 -27,24 -52,49 -77,74zm-71 294c-2,4 -4,7 -6,10 8,-32 14,-65 19,-98 3,-8 7,-17 10,-25 18,-24 37,-47 56,-69 -25,61 -52,122 -79,182zm-645 448c-45,50 -92,99 -143,144 -14,13 -26,21 -49,35 -3,1 -18,8 -20,10 -6,2 -13,4 -19,5 1,-1 -13,0 -17,0 -2,0 -2,0 -3,-1 -4,-2 -7,-5 -8,-7 -24,-22 -15,-77 -12,-105 0,-1 0,-1 0,-1 20,-20 40,-40 59,-60 62,-67 119,-139 171,-214 34,-48 65,-98 92,-150 29,13 63,12 88,-15 26,-29 53,-58 79,-89 -1,7 0,13 2,19 -18,25 -35,51 -52,77 -70,109 -130,227 -168,352zm143 81c1,-4 2,-9 3,-13 4,0 8,0 11,0 1,1 1,1 2,2 -6,4 -11,8 -16,11zm-234 -507c-6,12 -12,23 -18,34 -1,-3 -1,-6 -1,-8 6,-9 13,-17 19,-26zm846 -1112c-4,12 -4,26 4,40 12,22 23,45 34,67 11,35 24,70 37,104 0,0 0,0 0,1 -3,22 7,40 22,51 3,5 5,9 7,14 25,68 50,136 71,205 9,28 17,57 26,86 -15,-17 -29,-33 -43,-50 -2,-1 -3,-3 -5,-5 -13,-28 -27,-56 -41,-84 -47,-96 -93,-191 -136,-288 -21,-47 -41,-95 -61,-142 -5,-12 -11,-24 -17,-36 -6,-41 -15,-80 -32,-119 -9,-20 -27,-28 -45,-26 14,-45 25,-91 31,-137 12,8 24,16 37,21 22,98 47,196 97,284 4,6 9,10 14,14zm5 -474c1,0 2,0 4,0 13,-1 27,-1 41,1 -14,19 -25,40 -34,61 -4,-13 -9,-28 -15,-43 0,-7 1,-13 4,-19zm319 191c-7,-6 -17,-9 -26,-10 -4,-22 -8,-44 -12,-65 14,24 27,49 38,75zm30 86c0,1 1,1 1,2 0,1 -1,1 -1,2 -3,15 -6,31 -9,46 -2,-23 -4,-46 -4,-70 0,-8 -1,-16 -1,-24 5,15 10,29 14,44zm-632 -270c3,-9 5,-17 7,-26 0,6 0,11 1,16 -2,3 -5,7 -8,10zm47 428c3,-5 6,-10 9,-16 1,2 1,4 2,5 -4,4 -7,8 -11,11zm-117 453c0,-1 -1,-2 -1,-3 4,-4 9,-8 13,-12 -3,5 -6,10 -9,14 -1,1 -2,1 -3,1zm837 1447c4,3 8,5 13,6 -4,2 -9,5 -14,7 1,-3 1,-6 1,-9 0,-1 0,-3 0,-4zm-1868 -288c0,-2 -1,-4 -1,-7 2,6 5,12 9,16 1,1 1,1 1,1 -4,-1 -7,-4 -9,-10zm2190 -175c-25,-182 -121,-326 -238,-457 -4,-71 -8,-141 -8,-212 0,-21 0,-42 0,-64 4,-25 8,-51 11,-76 16,-144 16,-286 -9,-429 -23,-137 -67,-270 -109,-402 -21,-68 -52,-132 -91,-189 2,-15 -2,-31 -13,-44 -10,-13 -21,-24 -33,-34 -3,-13 -11,-24 -23,-30 -17,-7 -33,-14 -50,-21 0,0 -1,0 -1,-1 -7,-4 -13,-6 -20,-7 -51,-20 -103,-39 -152,-64 -43,-23 -88,-48 -136,-56 -2,-3 -5,-6 -8,-9 -38,-30 -83,-46 -126,-68 -8,-10 -19,-17 -32,-18 0,0 0,0 0,0 0,0 0,0 0,0 -1,0 -2,-1 -2,-1 0,0 1,1 2,1 -27,-17 -51,-6 -63,13 -60,18 -119,49 -142,108 -1,3 -1,6 -1,9 -7,3 -13,9 -18,17 -2,3 -3,7 -5,10 -21,7 -39,22 -52,38 -2,3 -4,6 -6,9 -18,1 -35,11 -38,33 -23,141 -55,280 -74,421 -31,104 -51,211 -61,321 -11,131 1,262 -4,392 -17,28 -34,57 -49,86 -16,32 -7,70 15,95 -35,59 -74,116 -117,171 -27,34 -53,69 -79,103 -20,-4 -43,5 -49,30 -3,16 -6,31 -9,47 -38,51 -77,100 -120,148 -67,75 -148,156 -243,200 2,-3 5,-7 7,-10 19,-30 -27,-66 -50,-38 -69,81 -131,171 -214,238 -13,-74 -4,-149 15,-223 7,-25 -27,-38 -41,-17 -49,73 -98,147 -153,214 -48,58 -109,124 -186,140 5,-97 32,-194 20,-292 -2,-15 -15,-23 -29,-16 -119,58 -193,170 -276,267 -6,7 3,15 9,10 86,-76 157,-173 258,-229 1,97 -28,191 -32,288 0,13 12,25 25,25 91,-2 164,-68 221,-132 43,-49 79,-102 115,-155 -9,60 -9,121 5,181 4,19 29,28 45,18 57,-35 103,-81 146,-131 5,20 17,39 40,53 36,23 80,25 123,17 3,19 13,35 28,53 24,27 66,28 97,12 20,-10 39,-25 57,-41 -1,32 6,64 23,92 10,19 26,31 43,44 4,3 18,8 20,8 -21,-7 22,5 26,6 76,10 153,-42 213,-95 10,23 32,43 54,47 219,35 373,-173 473,-349 15,31 64,43 82,5 48,-98 90,-198 130,-299 5,-8 10,-16 15,-24 21,-35 44,-70 67,-105 -66,183 -148,361 -213,545 -21,59 70,82 92,26 47,-119 92,-239 145,-355 -5,22 -10,43 -15,65 -26,118 -45,239 -64,358 -9,59 73,85 91,25 22,-70 41,-141 60,-212 -23,135 -42,270 -28,408 5,45 70,75 94,26 37,-76 43,-159 49,-242 -1,91 2,184 34,268 1,2 1,3 2,4 -21,6 -43,10 -64,15 -21,4 -16,38 5,37 111,-8 224,-35 322,-87 20,26 63,33 83,-4 9,-17 12,-38 11,-58 21,-17 40,-35 58,-55 98,-107 135,-254 115,-396z"/>
   <path class="fil1" d="M2672 872c-18,0 -18,28 0,28 18,0 18,-28 0,-28z"/>
   <path class="fil1" d="M2791 763c-3,1 -6,3 -7,6 -2,2 -2,4 -3,6 -3,8 6,16 13,14 2,-1 4,-2 6,-3 3,-2 5,-5 6,-8 6,-10 -5,-21 -15,-15z"/>
   <path class="fil1" d="M2683 798c-18,0 -18,28 0,28 18,0 18,-28 0,-28z"/>
   <path class="fil1" d="M2569 736c-18,0 -18,28 0,28 18,0 18,-28 0,-28z"/>
   <path class="fil1" d="M2490 776c-18,0 -18,27 0,27 18,0 18,-27 0,-27z"/>
   <path class="fil4" d="M1947 781c4,-1 8,-1 12,-2 2,0 4,-1 6,-2 0,1 0,2 0,2 -2,48 -31,91 -81,96 -36,4 -5,-27 5,-38 9,-10 40,-41 56,-41 3,0 5,-2 5,-4 0,-3 -2,-5 -5,-5 0,0 1,-3 2,-6zm8 -131c-11,-5 -21,-13 -22,-26 0,0 0,0 0,-1 10,5 17,16 22,27zm-56 165c-22,17 -38,34 -49,59 -1,4 2,7 5,8 62,22 129,-39 122,-103 -1,-4 -5,-6 -9,-5 4,-5 3,-13 -3,-17 -2,-1 -3,-2 -4,-2 1,-4 3,-8 3,-10 2,-6 -7,-11 -10,-5 -1,3 -3,5 -4,8 -7,-5 -15,-10 -23,-16 0,-10 2,-21 6,-32 29,18 42,44 46,79 0,5 7,5 8,0 1,-43 -18,-75 -55,-97 -3,-2 -9,-1 -10,3 -5,10 -9,22 -11,35 -26,-22 -45,-50 -29,-80 7,-12 19,-19 33,-20 -7,29 29,50 53,55 7,1 15,-5 13,-13 -7,-21 -22,-41 -39,-52 13,-3 38,12 45,16 4,3 8,-3 5,-6 -17,-17 -49,-37 -68,-17 -17,-5 -35,-2 -53,14 -50,44 -6,99 39,134 1,5 2,11 4,16 -7,3 -14,6 -21,9 -11,5 -3,23 8,20 9,-3 18,-7 27,-10 3,2 6,2 8,1 0,1 0,1 0,1 -13,5 -28,19 -37,27z"/>
   <path class="fil4" d="M2045 716c-2,12 13,18 19,8 11,-16 25,-25 41,-34 0,17 3,33 0,50 -1,7 3,15 10,14 18,-2 46,-4 47,19 2,20 -12,42 -24,56 -12,16 -30,31 -50,33 -27,3 -36,-36 -40,-55 -1,-5 -4,-7 -7,-8 1,-6 1,-13 2,-19 1,-11 -6,-24 -10,-33 -3,-8 -5,-16 -6,-25 -3,-20 27,-43 18,-6zm586 1084c-5,3 -11,6 -16,9 -1,1 -1,4 1,4 24,-2 47,-9 70,-15 -2,30 -16,49 -45,64 -11,6 -3,21 8,19 16,-2 32,-2 47,-4 -3,35 -27,56 -55,76 -7,4 -7,18 3,19 11,2 21,5 32,8 -17,20 -36,38 -58,52 3,-72 7,-143 -1,-215 0,-1 -2,-2 -2,0 -5,135 -30,271 -18,406 7,70 14,140 19,210 3,33 4,66 6,99 1,27 -2,57 4,84 -27,-5 -55,-8 -79,-11 -119,-14 -233,-16 -339,-70 20,-61 54,-114 87,-169 37,-65 67,-135 101,-202 29,-56 55,-109 73,-170 21,-67 37,-140 77,-199 26,8 56,8 85,5zm-7 459c10,-3 20,-6 29,-9 -5,19 -11,36 -26,53 -1,-15 -2,-29 -4,-44 1,0 1,0 1,0zm-454 -34c57,12 114,25 172,30 -18,36 -36,71 -58,104 -23,36 -53,74 -75,114 -16,-82 -27,-165 -39,-248zm35 -384c-1,13 -2,26 -3,39 -7,11 -16,20 -26,28 -4,3 -3,10 2,13 4,2 9,6 12,1 -7,13 -13,26 -23,37 2,-25 3,-50 4,-75 4,-1 7,-3 8,-8 2,-6 4,-13 6,-20 6,-5 13,-11 20,-15zm-40 142c7,2 14,5 21,7 -9,12 -17,25 -26,37 2,-15 4,-29 5,-44zm-7 157c-3,-17 -6,-35 -9,-52 0,-1 0,-2 0,-2 2,-8 3,-16 5,-24 9,1 17,2 25,4 -4,6 -9,12 -12,18 -4,8 3,16 11,14 28,-5 -13,33 -20,42zm760 -334c25,2 33,41 37,89 -3,-10 -6,-20 -10,-30 -7,-23 -17,-43 -28,-60 0,1 0,1 1,1zm-903 -1045c7,17 4,32 3,50 0,14 2,38 -15,44 -49,19 4,-62 13,-72 5,-5 -2,-11 -7,-7 -29,23 -44,51 -49,88 0,4 4,9 8,10 8,2 17,3 25,3 -88,74 -78,226 -56,327 3,13 21,7 19,-5 -17,-101 -32,-245 49,-323 14,-3 25,-11 31,-26 8,19 21,36 44,37 23,1 44,-11 60,-26 0,8 0,17 0,26 -18,43 -40,81 -71,118 -26,30 -56,57 -79,89 8,-61 23,-121 57,-174 3,-4 -4,-8 -8,-4 -47,68 -64,150 -71,232 -30,95 -10,192 64,270 6,5 15,-2 11,-9 -33,-43 -60,-88 -71,-142 -2,-12 -4,-23 -4,-35 4,1 9,-1 9,-6 3,-32 5,-64 8,-96 3,-7 5,-13 7,-20 0,0 1,0 1,-1 59,-54 124,-122 150,-200 19,110 123,213 227,246 2,10 7,20 19,32 35,34 57,73 34,121 -13,27 -27,49 -37,75 -10,10 -17,23 -26,34 -17,22 -42,37 -67,49 -52,26 -127,39 -175,-1 -3,-3 -8,1 -5,5 43,47 114,40 169,22 29,-9 89,-36 114,-70 20,-2 44,-3 59,10 11,10 1,34 -3,46 -10,30 -25,58 -31,89 -1,5 1,10 6,11 13,2 50,7 36,30 -6,10 -15,19 -22,29 -11,16 -17,29 -15,48 7,42 36,69 73,81 3,4 7,7 10,9 -16,10 -31,22 -47,31 -2,1 -3,4 -3,7 5,12 5,25 8,38 -11,1 -21,1 -32,1 -6,0 -9,8 -5,12 7,6 12,13 17,20 -14,3 -29,8 -44,11 -6,0 -6,8 -3,12 9,10 18,21 27,32 -16,6 -30,15 -47,19 -3,1 -4,4 -2,6 8,14 14,29 24,41 -19,-1 -37,2 -57,5 -7,1 -9,8 -3,12 12,9 22,21 32,32 -15,4 -28,10 -43,16 -5,2 -7,9 -2,12 16,9 26,25 38,38 -15,5 -27,13 -42,16 -5,1 -7,7 -5,10 4,8 8,14 13,20 -26,2 -10,23 -1,49 0,1 2,1 1,0 -1,-10 0,-6 -5,-16 -14,-32 11,-21 21,-20 7,1 11,-7 5,-12 -7,-5 -13,-12 -17,-19 16,-4 30,-13 46,-16 7,-2 6,-10 2,-14 -15,-11 -25,-28 -39,-40 14,-6 28,-11 43,-13 5,-1 6,-8 3,-12 -10,-11 -20,-21 -31,-31 20,-2 38,-5 60,1 8,3 13,-9 6,-13 -5,-3 -42,-45 -37,-45 18,-1 34,-11 51,-13 7,-1 11,-8 6,-14 -10,-10 -19,-21 -28,-31 16,-3 31,-7 46,-9 7,0 14,-10 7,-15 -7,-5 -12,-11 -17,-16 7,0 15,1 22,1 6,0 11,-6 9,-11 -3,-8 -18,-40 -8,-44 16,-8 32,-19 49,-26 5,2 9,4 14,6 -40,47 -59,99 -76,159 -21,73 -43,139 -77,208 -12,25 -24,51 -37,77 -1,-1 -2,-1 -4,-2 -59,-8 -119,-23 -179,-27 -1,-8 -2,-15 -3,-23 0,-1 1,-2 1,-4 6,-35 37,-57 49,-90 1,-3 0,-7 -2,-9 -6,-6 -11,-7 -16,-7 2,-4 5,-9 6,-14 2,-7 -3,-12 -9,-12 -9,-1 -17,-2 -25,-4 12,-17 23,-37 37,-53 4,-5 3,-13 -4,-14 -8,-2 -15,-5 -23,-8 12,-13 20,-30 28,-46 2,-4 1,-9 -3,-11 -2,-1 -4,-2 -6,-3 24,-24 37,-51 21,-85 -2,-4 -7,-4 -11,-3 -6,3 -11,6 -15,10 24,-80 46,-174 0,-245 -1,-2 -3,0 -2,2 31,69 7,156 -17,231 -3,-3 -8,-3 -9,2 -3,15 -5,30 -7,46 -1,1 -1,1 -1,2 -1,2 -1,4 -1,6 -3,25 -6,50 -9,75 -5,47 -15,96 -14,144 0,5 6,7 10,5 2,20 4,40 5,60 -1,7 -1,13 1,21 0,1 1,2 2,3 0,9 1,17 2,25 -4,3 -4,11 1,13 10,94 23,187 42,280 -3,7 -6,15 -8,22 -5,-3 -11,-6 -17,-10 -3,-2 -5,2 -3,5 5,7 11,13 17,19 0,2 -1,4 -1,6 -2,12 13,18 18,9 73,56 183,62 270,71 107,11 243,15 320,103 6,7 16,-2 12,-9 -31,-59 -96,-85 -162,-99 5,-22 2,-47 1,-70 -1,-39 -3,-77 -6,-116 -2,-38 -5,-77 -8,-115 1,0 1,0 2,-1 11,-5 23,-9 35,-12 13,-3 15,-10 7,3 -11,18 -17,36 -33,52 -5,6 0,17 9,14 13,-5 52,-17 37,14 -8,15 -22,26 -37,33 -2,1 -5,2 -7,3 0,0 0,1 0,1 -8,5 -4,19 7,16 12,-3 25,-4 37,-8 -1,22 -7,38 -27,54 -5,5 0,13 5,13 9,0 18,0 26,-1 -8,14 -12,30 -21,43 -3,5 0,12 5,13 20,7 30,25 10,39 -9,6 0,21 9,15 36,-28 34,-54 -5,-68 5,-15 8,-31 17,-46 2,-2 0,-7 -3,-8 -8,-1 -16,-2 -24,-2 11,-20 17,-39 25,-63 2,-6 -5,-11 -11,-10 -4,1 -7,1 -11,2 13,-14 24,-31 22,-46 -3,-21 -22,-21 -39,-17 8,-18 14,-38 28,-54 3,-3 1,-9 -3,-8 -15,1 -28,4 -42,9 13,-19 21,-37 26,-62 1,-7 -6,-15 -13,-10 -12,8 -25,12 -39,17 0,-6 -1,-13 -2,-20 -1,-13 -2,-26 -3,-39 18,7 40,-6 55,-15 23,-15 38,-38 54,-59 3,-5 -2,-10 -6,-10 -18,-3 -36,-6 -54,-2 2,-5 6,-11 7,-16 0,-1 -2,-1 -3,0 -2,8 -10,14 -15,20 -4,4 -1,12 4,11 16,-2 32,0 47,1 -11,14 -23,26 -38,36 -7,5 -16,8 -25,10 -9,3 -18,0 -27,3 -1,-39 0,-77 2,-115 1,1 3,2 5,2 21,2 39,12 61,14 6,1 7,-8 2,-11 -11,-8 -24,-14 -37,-18 20,-15 38,-33 54,-54 5,-5 4,-16 -5,-18 -9,-1 -17,-4 -26,-7 28,-23 48,-51 46,-91 0,-7 -6,-11 -13,-10 -7,2 -15,3 -22,3 18,-18 25,-40 21,-71 1,0 1,0 1,0 38,-9 77,-21 117,-18 54,5 83,57 100,102 30,80 37,171 43,255 6,85 5,171 0,257 -5,89 -16,179 -29,268 -6,41 -13,83 -20,125 -7,41 -19,83 -19,125 0,6 8,6 10,1 16,-38 20,-81 27,-122 8,-46 16,-93 23,-140 13,-85 22,-171 28,-257 7,-101 11,-209 1,-314 1,-1 2,-3 2,-5 0,-61 -8,-125 -13,-186 -3,-32 -8,-79 -39,-93 18,-51 7,-83 -38,-117 -18,-14 9,-52 -5,-74 -9,-17 -27,-39 -42,-51 -15,-54 8,-106 1,-162 -4,-29 -46,-41 -64,-60 -109,-115 -75,-302 -176,-422 -1,0 -2,1 -2,2 70,130 63,289 145,413 13,19 28,35 46,48 16,11 28,10 29,32 4,57 -19,105 -2,161 2,4 4,7 8,8 12,11 22,26 32,39 12,15 -1,53 2,74 3,11 25,22 32,29 26,23 17,56 5,85 -1,0 -1,0 -1,1 -32,-37 -76,-54 -135,-46 -43,6 -84,20 -126,29 -27,5 -51,5 -74,0 1,-3 -1,-7 -6,-8 -10,-3 -20,-3 -29,-1 1,-4 0,-8 -4,-11 -27,-18 -58,-24 -76,-52 -22,-35 5,-59 24,-85 26,-35 -9,-49 -39,-55 10,-40 36,-77 37,-119 1,-36 -40,-41 -71,-40 1,-6 2,-13 1,-19 -1,-2 -2,-4 -4,-6 16,-48 55,-85 39,-142 -6,-22 -22,-39 -38,-54 -9,-7 -18,-14 -23,-24 5,1 11,2 17,3 13,3 23,-16 9,-22 -7,-4 -15,-7 -22,-11 11,-16 31,-31 40,-39 3,-2 -1,-7 -3,-5 -18,14 -34,27 -44,41 -116,-58 -199,-144 -224,-279 1,-1 2,-3 4,-4 17,-22 31,-50 26,-79 -4,-28 -33,-33 -57,-32 0,-19 -6,-38 -2,-57 1,-6 -3,-12 -8,-13 96,-47 204,-92 304,-28 4,3 10,-4 6,-8 -97,-84 -246,-19 -337,44 -2,2 0,5 3,4 2,-1 4,-3 7,-4 -12,8 -24,15 -34,24 -2,-13 -9,-23 -22,-27 -24,-6 -37,28 -38,46 -1,18 3,33 9,49z"/>
   <path class="fil4" d="M2423 651c-2,-4 -7,-6 -10,-2 -14,14 -25,29 -33,45 -2,-25 -7,-49 -15,-74 -2,-5 -10,-8 -14,-3 -33,35 -44,74 -10,111 4,5 10,-1 8,-5 -17,-33 -14,-58 5,-84 8,28 13,57 16,86 0,6 9,8 10,2 6,-27 17,-45 35,-63 9,28 10,53 0,78 -6,9 -11,18 -16,28 -4,8 7,14 12,7 4,-6 8,-12 11,-17 5,-6 12,-5 25,5 13,11 21,27 27,43 10,31 -83,26 -99,27 -1,0 -2,0 -3,0 11,-30 -1,-70 -30,-87 -25,-15 -59,-15 -84,-1 -25,14 -27,48 -1,62 15,9 33,8 50,5 7,-1 13,-2 20,-5 2,0 13,-5 11,-4 8,-1 8,-13 2,-16 -13,-8 -40,-3 -53,-3 -31,-2 -12,-17 6,-19 26,-3 53,9 56,37 2,16 -4,33 -21,39 -32,11 -74,-12 -95,-35 -38,-42 12,-82 49,-101 6,-4 2,-15 -5,-12 -50,18 -110,63 -73,122 25,40 81,66 127,55 16,-4 27,-12 34,-22 1,3 3,5 7,6 38,12 78,-9 113,-21 3,-1 6,-4 6,-7 -2,-33 -15,-59 -39,-76 9,-33 28,-89 68,-78 9,2 18,10 19,20 1,17 -21,25 -34,29 -10,3 -6,20 5,17 41,-13 102,-3 102,51 1,21 -11,40 -30,47 -28,11 -54,-3 -80,-6 -9,-1 -10,11 -4,15 47,32 122,4 125,-56 2,-49 -34,-72 -75,-74 4,-5 7,-10 8,-16 2,-18 -9,-33 -23,-41 -54,-27 -81,43 -87,87 -5,-3 -10,-6 -16,-8 8,-28 5,-57 -7,-88z"/>
   <path class="fil4" d="M2196 810c0,-4 -5,-4 -5,0 -1,141 128,215 247,258 12,4 20,-15 9,-21 -106,-56 -242,-95 -251,-237z"/>
   <path class="fil4" d="M2045 1927c9,3 18,5 27,6 -6,10 -12,21 -18,32 -6,-12 -7,-25 -9,-38zm-73 237c-11,30 -23,59 -37,87 -13,26 -31,49 -39,77 -1,6 6,13 13,9 42,-30 61,-92 79,-139 27,-68 47,-139 77,-206 21,-45 51,-85 74,-128 9,-17 30,-49 15,-68 -2,-2 -6,0 -6,3 2,27 -34,67 -48,89 -7,11 -14,22 -20,33 -1,-1 -2,-1 -3,-2 -11,-5 -27,-11 -37,-16 -2,-1 -3,-1 -4,0 -16,-10 -26,-25 -30,-45 26,3 52,3 77,11 8,2 14,-7 11,-15 -3,-5 -3,-14 -2,-21 0,0 1,-1 1,-1 14,-10 22,-25 24,-42 6,5 12,9 18,14 6,5 15,-3 9,-10 -8,-9 -20,-16 -29,-24 -6,-5 -14,0 -12,7 2,15 -3,31 -11,44 -1,-6 -12,-7 -14,0 -2,12 -5,18 -5,25 -25,-5 -50,-4 -76,-8 -5,-1 -12,2 -12,9 3,37 21,62 49,75 2,16 6,41 2,41 -26,1 -51,9 -77,10 -6,0 -10,8 -5,12 12,9 21,25 35,33 -11,2 -22,8 -32,11 -3,1 -5,6 -2,9 7,5 12,11 18,17 -22,-2 -45,3 -56,25 -6,14 0,25 10,34 -12,0 -23,1 -35,1 -8,1 -11,10 -6,16 15,20 19,36 36,49 -2,1 -4,3 -6,4 -1,1 -2,2 -2,2 -48,23 -65,76 -29,121 7,8 22,-3 16,-12 -25,-39 -15,-79 30,-94 5,-2 7,-6 7,-10 2,-2 5,-3 8,-4 6,-2 6,-14 0,-17 -20,-8 -27,-23 -37,-37 18,-2 36,-4 53,0 11,2 15,-13 5,-16 -3,-1 -5,-1 -8,-2 -15,-4 -24,-15 -27,-33 9,-19 41,-14 55,-11 7,1 11,-6 6,-11 -7,-8 -14,-18 -23,-24 -3,-2 42,-11 49,-10 4,0 5,-6 2,-7 -20,-9 -32,-21 -46,-34 25,-4 49,-10 74,-12 -5,11 -11,21 -15,32 -24,52 -42,106 -62,159z"/>
   <path class="fil4" d="M2033 2868c12,7 25,13 40,13 11,-1 10,-15 0,-16 -10,-1 -19,-6 -28,-10 0,-8 0,-15 3,-23 2,-6 -6,-9 -9,-4 -7,10 -9,21 -11,33 0,3 2,6 5,7z"/>
   <path class="fil4" d="M2073 2887c-4,7 -15,26 -25,17 -7,-5 -15,3 -9,9 18,19 36,-3 46,-19 5,-7 -7,-14 -12,-7z"/>
   <path class="fil4" d="M2345 2860c-13,-1 -24,-7 -36,-8 -3,0 -5,1 -6,2 -1,-2 -2,-5 -3,-7 -2,-5 -9,-2 -7,3 3,9 3,18 3,27 -9,15 -15,32 -23,49 0,0 -1,1 -1,2 0,1 0,1 0,1 0,0 0,0 0,0 -1,1 -1,1 -1,2 -3,9 9,12 14,6 6,-8 11,-18 15,-27 0,1 0,3 0,5 0,5 4,8 9,8 12,0 21,-6 29,-15 6,-7 -3,-16 -10,-10 -4,3 -7,5 -11,7 -1,-11 -1,-22 -2,-32 0,-2 0,-3 -1,-4 10,1 20,4 31,4 8,0 8,-12 0,-13z"/>
   <path class="fil4" d="M2391 2822c3,-4 0,-11 -6,-9 -6,2 -12,6 -19,9 -5,2 -9,0 -12,-3 0,-5 -3,-10 -9,-10 -11,0 -12,17 -2,18 5,6 11,10 20,10 10,0 22,-7 28,-15z"/>
   <path class="fil4" d="M2381 2874c10,0 10,-15 0,-15 -10,0 -10,15 0,15z"/>
   <path class="fil4" d="M3223 4921c-49,-81 -99,-160 -149,-240 -3,-208 -1,-416 -10,-624 -9,-195 -43,-387 -95,-575 -26,-93 -56,-185 -91,-275 -36,-93 -72,-189 -121,-275 -1,-2 -5,-1 -4,2 28,89 67,176 99,265 33,91 63,182 89,275 55,195 86,397 96,599 8,187 6,376 8,563 -65,-103 -130,-206 -193,-311 -131,-216 -261,-436 -344,-675 -40,-113 -73,-228 -120,-338 -36,-82 -57,-183 -115,-253 -1,-1 -2,0 -2,1 23,40 35,85 46,128 13,52 30,100 49,150 42,110 73,225 111,337 24,74 54,146 87,217 -3,-1 -6,0 -8,3 -6,12 -12,30 -24,37 -8,5 -16,-7 -19,-13 -15,-25 -15,-59 -7,-86 1,-5 -7,-7 -9,-2 -12,32 -13,77 8,106 7,10 18,16 30,12 -5,28 1,57 17,81 4,5 9,7 14,5 -6,49 -9,100 11,146 3,8 14,6 18,0 13,-17 18,-38 18,-60 -1,-11 -16,-10 -17,0 -2,10 -3,20 -7,28 -12,-51 -6,-102 0,-154 0,-4 -2,-6 -4,-7 1,-8 1,-16 1,-23 0,-6 -9,-9 -11,-4 -7,13 -10,26 -14,39 -8,-20 -9,-42 -1,-63 1,-4 0,-7 -2,-9 5,-9 8,-18 10,-27 67,144 148,282 229,419 81,138 165,273 250,409 1,37 2,75 4,113 -3,-17 -6,-34 -6,-51 -1,-13 -22,-17 -24,-3 -2,13 -6,24 -11,36 -31,-48 -29,-117 -34,-172 -1,-9 -13,-14 -19,-5 -9,17 -20,30 -33,44 -29,-36 -38,-84 -37,-129 0,-6 -8,-8 -10,-3 -8,18 -16,36 -22,55 -19,-40 -27,-91 -25,-138 3,-18 5,-36 6,-53 0,0 0,0 0,0 -1,-8 -12,-13 -16,-4 -16,33 -18,71 -31,105 -34,-53 -35,-125 -31,-185 1,-12 -15,-13 -18,-3 -9,28 -18,56 -35,80 -39,-44 -31,-115 -39,-170 -1,-9 -13,-6 -15,0 -6,15 -16,28 -25,41 -8,-39 -5,-78 -5,-117 -1,-6 -9,-6 -9,0 -2,47 -6,94 2,141 1,6 10,9 15,4 10,-13 19,-25 26,-38 6,59 -6,121 43,167 5,5 13,5 18,0 10,-11 19,-24 25,-36 1,53 5,106 41,151 5,6 16,4 20,-3 8,-12 13,-25 18,-39 -1,13 -1,26 0,39 2,32 12,62 29,89 4,8 16,6 18,-2 4,-13 8,-26 11,-38 4,39 12,76 38,109 4,4 11,4 15,0 10,-10 19,-20 27,-30 3,62 6,128 47,177 7,8 19,2 22,-6 4,-9 7,-16 10,-24 7,21 12,45 17,68 9,161 25,321 26,483 0,17 25,17 26,0 6,-109 -5,-220 -14,-329 -2,-21 -4,-43 -5,-64 5,-1 10,-6 10,-11 0,0 1,-1 1,-1 9,63 26,125 62,176 4,5 11,8 17,5 28,74 85,131 143,184 11,9 25,-5 16,-16 -54,-59 -118,-107 -148,-183 9,-17 8,-34 6,-56 -2,-13 -21,-14 -21,0 0,13 0,25 -4,36 -42,-63 -55,-144 -61,-217 -1,-13 -17,-13 -19,0 -1,10 -4,21 -6,31 -3,-54 -6,-108 -8,-162 29,45 57,90 85,135 115,187 208,379 237,599 2,19 31,20 31,0 1,-213 -97,-410 -205,-588z"/>
   <path class="fil4" d="M2263 3142c-7,13 -17,24 -27,35 7,-36 19,-70 33,-104 2,-3 -3,-7 -6,-3 -26,38 -39,81 -46,126 -1,7 7,13 12,8 16,-17 35,-36 41,-59 1,-4 -5,-6 -7,-3z"/>
   <path class="fil4" d="M2436 3682c-14,17 -26,34 -43,49 -6,-60 3,-123 14,-180 2,-10 -10,-15 -15,-7 -10,16 -23,29 -35,43 -6,-46 2,-93 9,-139 2,-10 -12,-18 -18,-7 -7,12 -15,23 -23,34 1,-44 7,-87 28,-127 5,-11 -10,-20 -16,-10 -10,16 -19,29 -32,40 1,-35 12,-70 18,-105 1,-8 -8,-15 -14,-8 -1,1 -2,1 -2,2 2,-14 3,-29 3,-44 0,-7 -8,-11 -13,-6 -10,13 -23,19 -37,25 -4,-27 0,-52 9,-79 1,-3 -4,-4 -5,-1 -13,30 -20,58 -17,91 1,4 5,8 9,7 14,-6 27,-11 38,-20 -1,18 -4,35 -11,53 -4,8 8,13 13,8 2,-2 3,-3 5,-5 -8,34 -17,67 -14,102 1,6 8,12 14,8 7,-5 13,-10 18,-15 -9,36 -13,72 -14,109 0,9 11,12 16,7 8,-8 15,-16 22,-24 -5,43 -10,85 -1,128 2,9 12,8 17,2 9,-12 20,-24 30,-36 -5,57 -19,112 -11,170 1,6 7,12 13,8 25,-17 47,-38 57,-66 2,-6 -7,-12 -12,-7z"/>
   <path class="fil4" d="M2490 3812c-8,20 -20,37 -39,46 -21,-38 -14,-81 -6,-122 1,-5 -6,-7 -8,-2 -12,46 -21,95 3,138 2,3 6,5 9,4 29,-9 47,-32 52,-61 2,-7 -8,-10 -11,-3z"/>
   <path class="fil4" d="M2180 3248c-2,-19 -6,-39 -10,-57 -1,-6 -8,-7 -12,-3 6,-15 10,-30 14,-45 0,15 2,31 5,47 2,13 3,26 4,40 9,14 9,20 -1,18zm-64 167c-6,-6 -15,0 -15,7 -2,14 -5,28 -6,42 -1,6 8,11 13,7 5,-3 9,-7 12,-11 11,36 2,80 -21,109 -2,-2 -3,-4 -5,-6 -4,-14 -10,-27 -18,-38 -7,-8 -21,-3 -18,8 4,14 11,25 18,36 11,35 9,74 -9,106 -9,-13 -21,-23 -27,-39 -3,-10 -19,-9 -19,3 1,43 4,85 -3,128 -2,-2 -5,-3 -9,-5 -6,-2 -11,4 -12,10 -4,43 0,94 -22,134 -1,-22 -5,-44 -9,-64 -1,-8 -13,-7 -15,0 -10,32 -2,57 10,87 0,27 -4,53 -15,78 -12,-27 -17,-54 -18,-85 0,-7 -11,-7 -11,0 0,6 0,11 0,16 1,45 3,89 -4,134 -5,-10 -11,-20 -15,-31 -2,-5 -12,-5 -12,2 1,50 9,126 -34,162 -2,-4 -3,-8 -4,-12 -1,-3 -3,-6 -4,-9 -4,-7 -15,0 -12,7 4,9 6,18 5,27 0,4 4,7 7,7 11,36 12,78 -6,111 -3,-10 -7,-20 -10,-30 -4,-9 -19,-6 -16,5 5,16 7,32 13,48 0,1 2,3 4,4 6,33 7,67 0,100 -2,0 -4,-1 -6,0 -11,-87 -21,-173 -29,-260 1,-7 3,-13 4,-20 35,-139 82,-275 132,-410 48,-130 96,-262 149,-391 25,-61 55,-124 78,-189 1,15 3,30 5,45 2,39 0,78 -5,117 -6,-10 -12,-20 -16,-32 -2,-8 -17,-7 -16,2 4,34 12,71 -1,101 -3,-4 -5,-7 -8,-11zm72 -313c0,-4 -3,-5 -6,-6 5,-28 8,-56 6,-85 0,0 0,0 0,0 -23,135 -81,255 -132,380 -53,129 -101,261 -150,392 -44,119 -84,239 -117,362 -3,-40 -6,-80 -8,-120 -9,-222 7,-439 52,-657 19,-91 45,-181 64,-273 15,-70 24,-147 76,-201 4,-4 0,-8 -4,-7 -54,25 -67,98 -79,150 -20,88 -43,175 -64,263 -54,216 -79,435 -75,658 2,90 8,180 17,269 -29,120 -52,248 -46,371 1,9 14,9 14,0 10,-103 20,-204 39,-304 9,88 20,176 31,264 -7,17 -18,32 -35,45 -3,3 -3,8 -1,12 28,44 17,134 -33,160 -1,-6 -3,-11 -5,-17 -3,-8 -15,-9 -17,0 -3,11 -9,20 -12,31 -2,5 2,11 8,11 4,0 8,-1 12,-1 1,18 -2,37 -8,56 -4,13 -10,26 -19,36 -19,26 -29,-19 -31,-30 -1,-10 -16,-7 -17,2 -1,33 -17,64 -35,92 -8,13 -19,25 -32,34 -25,19 -33,-19 -37,-37 -1,-10 -16,-7 -16,2 1,39 3,78 -11,114 -5,-10 -8,-20 -10,-31 -2,-30 -4,-55 -4,-65 -1,-11 -17,-11 -17,0 0,17 0,34 2,51 2,44 4,88 -8,131 -7,27 -30,23 -40,-1 -5,-13 -6,-26 -6,-40 12,-34 19,-71 15,-111 0,-8 -13,-14 -17,-5 -10,22 -20,69 -19,112 -22,55 -62,103 -106,148 0,-8 1,-16 1,-24 26,-35 34,-78 31,-122 -1,-12 -19,-20 -25,-7 -8,17 -14,34 -19,51 -1,-23 -1,-46 -1,-68 0,-14 -21,-14 -22,0 -1,37 -13,71 -32,103 -9,14 -21,28 -36,34 -23,8 -35,-39 -39,-51 -3,-9 -14,-15 -22,-9 -80,56 -151,115 -254,101 -19,-3 -28,25 -8,30 107,24 182,-34 262,-94 17,37 47,70 88,38 18,-14 32,-35 42,-58 1,19 2,38 4,56 0,4 2,7 4,9 0,13 1,26 2,40 1,10 13,17 21,8 44,-45 87,-93 115,-147 6,25 20,42 45,45 35,3 43,-51 44,-106 1,1 2,3 3,5 3,4 11,6 14,0 16,-31 19,-62 20,-94 12,15 29,21 52,2 28,-24 52,-62 63,-100 10,18 27,28 49,5 26,-27 36,-72 31,-111 45,-19 61,-74 62,-123 0,-13 -2,-27 -5,-40 -2,-5 -3,-10 -6,-15 -3,-7 11,-15 18,-23 0,0 1,-1 1,-2 3,24 6,48 8,71 13,112 26,225 43,336 8,53 16,106 29,158 14,55 30,109 32,167 0,17 23,16 25,0 6,-46 -4,-89 -16,-133 -13,-50 -24,-99 -33,-150 -19,-114 -33,-230 -46,-345 -6,-52 -13,-104 -19,-156 2,-13 3,-27 3,-41 2,-1 4,-3 5,-5 12,-45 12,-92 2,-137 27,-39 26,-91 13,-137 43,-30 43,-95 43,-147 3,8 8,16 12,24 2,4 11,4 12,-2 5,-30 6,-60 6,-90 3,9 7,17 11,26 3,5 10,5 13,0 16,-28 23,-61 23,-93 1,0 1,-1 1,-1 36,-41 34,-96 38,-147 3,2 5,4 5,4 5,3 13,0 14,-6 8,-38 8,-75 7,-113 7,7 13,15 18,25 3,7 13,5 17,0 21,-29 30,-68 25,-105 1,0 2,-1 3,-2 37,-36 49,-99 29,-147 13,-22 15,-48 13,-74 3,4 6,9 10,14 4,7 15,6 17,-2 9,-37 11,-75 9,-113 2,0 4,0 6,0 4,0 9,-3 10,-7 8,-55 -15,-106 -10,-160z"/>
   <path class="fil4" d="M2116 1364c-11,-1 -16,15 -6,20 50,27 105,-1 148,-28 8,-5 7,-18 -3,-20 -49,-13 -96,-29 -148,-32 -3,-1 -6,3 -6,6 0,7 0,14 0,20 1,8 12,8 12,0 1,-4 1,-8 1,-12 38,6 74,20 110,32 -11,6 -22,11 -35,14 -25,7 -49,0 -73,0z"/>
   <path class="fil4" d="M1902 456c8,-5 1,-17 -7,-13 -79,37 -152,66 -238,37 -70,-24 -156,-90 -175,-163 -1,-3 -4,-2 -4,0 11,79 91,145 161,174 91,38 182,18 263,-35z"/>
   <path class="fil4" d="M1352 493c3,-6 -5,-11 -9,-6 -20,29 -44,63 -56,99 0,-14 -1,-29 -1,-44 -1,-3 -5,-3 -5,0 -2,34 -6,68 0,102 1,5 2,11 3,17 3,8 16,5 14,-4 -1,-4 -2,-9 -3,-13 -9,-54 31,-107 57,-151z"/>
   <path class="fil4" d="M1460 351c8,-5 1,-17 -8,-12 -59,32 -92,90 -119,150 -1,3 3,5 5,2 31,-55 68,-104 122,-140z"/>
   <path class="fil4" d="M1392 182c40,-33 78,-58 131,-55 48,3 94,12 142,11 13,-1 12,-19 0,-20 -54,-3 -110,-15 -164,-10 -47,5 -82,37 -112,70 -2,3 1,6 3,4z"/>
   <path class="fil4" d="M2001 387c13,-7 1,-26 -12,-20 -120,58 -230,-148 -283,-226 -4,-5 -12,0 -9,6 45,95 168,319 304,240z"/>
   <path class="fil4" d="M1245 752c10,-2 7,-14 0,-17 -40,-16 -40,-58 -38,-96 1,-12 15,-108 38,-100 3,1 5,0 6,-2 3,7 14,7 16,-1 13,-55 10,-113 -13,-165 4,-1 8,-4 8,-10 -10,-76 46,-162 123,-177 5,-1 3,-8 -1,-8 -89,-8 -162,108 -144,188 1,5 5,7 9,8 17,48 5,108 2,159 0,-1 -1,-1 -1,-2 -44,-25 -62,78 -65,100 -6,40 -3,134 60,123z"/>
   <path class="fil4" d="M1635 833c-1,0 -2,0 -3,0 -4,-18 -8,-36 -14,-54 0,-2 -3,-1 -3,1 5,17 7,35 11,53 -11,1 -23,9 -33,13 -14,6 -34,13 -49,3 -5,-3 -14,3 -11,9 9,20 28,22 48,18 14,-2 39,-10 52,-23 1,1 1,3 2,4 1,2 5,1 4,-2 -1,-2 -2,-5 -2,-7 1,-2 2,-4 2,-6 1,-4 -1,-8 -4,-9z"/>
   <path class="fil4" d="M1436 912c0,0 0,0 0,0l0 0zm5 6c3,-3 6,-5 9,-8 40,36 130,87 168,40 4,-5 2,-13 -5,-13 -29,1 -51,4 -80,-4 -25,-8 -50,-22 -73,-35 0,-2 1,-4 1,-6 0,-3 -2,-5 -5,-5 -4,0 -7,2 -10,4 -5,-2 -9,3 -7,7 -1,1 -1,1 -1,1 -2,2 -3,4 -5,6 -1,-1 -3,-1 -4,1 -3,3 -6,8 -4,13 4,7 12,2 16,-1z"/>
   <path class="fil4" d="M543 1620c19,-30 23,-71 30,-106 9,-44 18,-87 31,-130 12,-44 28,-87 52,-126 17,-28 40,-48 65,-68 0,5 2,10 8,11 55,10 115,-16 165,-36 57,-22 111,-49 166,-76 5,-3 1,-9 -3,-8 -56,8 -107,29 -158,49 -54,22 -107,33 -162,47 2,-2 4,-3 5,-5 3,-2 1,-6 -2,-6 -81,9 -123,105 -146,172 -18,49 -28,100 -40,150 -9,42 -25,85 -28,128 0,9 12,11 17,4z"/>
   <path class="fil4" d="M1466 1229c1,0 3,1 4,0 19,-14 35,-17 58,-17 9,0 13,-9 9,-15 15,-20 30,-39 45,-58 9,-12 19,-23 27,-35 9,-6 18,-13 27,-20 13,19 22,41 32,62 -28,10 -56,20 -85,30 -6,3 -4,12 3,11 28,-4 55,-7 82,-12 3,31 9,61 10,92 0,5 -1,12 -1,18 -8,1 -16,1 -24,1 -23,-2 -46,-4 -70,-2 4,-8 0,-19 -10,-18 -1,-6 -1,-11 -1,-17 -2,-18 -4,-35 -7,-52 -1,-5 -8,-5 -9,0 -3,15 -5,30 -6,45 -1,11 -3,22 -2,33 -24,12 -48,28 -67,8 -2,-9 -4,-17 -6,-26 -1,-4 -6,-2 -6,2 1,3 1,6 1,9 -6,-12 -10,-27 -4,-39zm770 1557c3,0 7,0 10,-1 -1,2 -1,4 -2,6 0,6 4,12 8,17 -8,9 -14,18 -14,31 -4,-1 -8,1 -11,4 -6,10 -11,19 -16,29 0,-1 0,-2 1,-4 1,-7 -9,-10 -12,-3 -2,8 -4,15 -6,23 -2,0 -4,1 -6,3 -6,5 -12,10 -18,15 -1,-8 -3,-16 -4,-24 0,0 0,0 0,0 19,-8 22,-20 28,-38 3,-7 -8,-11 -12,-5 -5,8 -8,16 -15,21 -4,-7 -9,-14 -11,-22 -3,-8 -2,-18 0,-27 7,5 13,12 18,20 2,2 4,1 3,-1 -5,-12 -13,-22 -20,-33 -2,-4 -9,-4 -11,0 -6,13 -11,26 -9,40 0,3 1,6 2,9 -5,-5 -10,-9 -17,-11 -13,-4 -32,-1 -41,9 -3,4 -1,11 4,11 10,-1 18,-6 28,-6 4,0 8,2 11,4 -10,1 -20,1 -29,4 -9,4 -10,16 0,19 14,5 28,6 43,6 -12,11 -24,23 -36,35 1,-5 3,-9 5,-13 1,-4 -5,-6 -7,-3 -7,14 -12,28 -21,40 -1,1 -1,2 -1,2 -24,-3 -47,-7 -71,-12 -7,-11 -5,-31 -5,-43 0,-20 4,-39 5,-59 4,2 7,4 8,10 0,3 2,3 4,3 2,0 4,0 4,-3 1,-4 1,-9 2,-13 1,-4 -2,-7 -6,-8 27,-5 54,-16 79,-30 45,6 92,1 138,-2zm36 24c0,0 0,1 -1,1 0,-1 -1,-3 -2,-4 1,-2 1,-4 2,-6 0,-4 -4,-7 -8,-4 0,0 0,0 0,1 0,-1 -1,-1 -1,-1 -1,-1 -6,-5 -6,-7 0,-2 1,-4 3,-5 4,-1 9,-1 13,-1 2,8 2,17 0,26zm-15 20c1,-3 2,-6 3,-9 1,2 2,3 3,4 -1,2 -4,4 -6,5zm-125 33c0,0 0,0 0,0 0,0 0,0 0,0 0,0 0,0 0,0zm335 22c3,4 6,8 10,12 -10,3 -20,6 -30,9 8,-5 15,-13 20,-21zm-967 70c16,2 34,7 52,10 -8,8 -15,17 -20,29 -13,35 8,55 38,65 -5,1 -10,2 -16,3 -2,0 -4,0 -6,0 -14,-6 -29,-9 -45,-10 -25,-16 -37,-47 -34,-83 1,-6 -9,-7 -10,-1 -9,37 -3,65 12,84 -16,0 -32,2 -48,2 -16,0 -31,-2 -47,-6 -8,-2 -3,-32 -2,-37 0,-22 -1,-45 -2,-68 13,1 27,2 40,3 -1,3 -2,6 -3,9 -2,6 6,12 10,8 6,-4 10,-9 13,-15 23,1 45,4 68,7zm66 44c14,-30 54,-32 83,-25 -3,26 -15,47 -34,63 -27,-4 -60,-13 -49,-38zm-294 -9c0,8 -2,16 -2,23 -63,-22 -141,-14 -205,-21 8,-35 9,-70 5,-105 43,9 85,20 127,30 15,8 30,16 47,21 7,3 13,-2 14,-8 7,1 15,2 23,4 -4,18 -6,37 -9,56zm-310 -32c-55,-9 -109,-25 -161,-47 0,0 -1,0 -1,0 0,-2 0,-3 0,-4 3,-10 6,-20 9,-30 6,-18 16,-37 19,-56 6,2 11,4 15,6 1,1 2,1 3,1 35,26 86,34 130,41 -2,30 -11,59 -14,89zm-406 -1217c0,142 26,288 68,423 21,65 31,129 42,196 8,54 22,121 61,161 3,3 7,4 10,4 37,47 92,72 150,64 38,-4 74,-13 112,-11 52,1 106,29 155,44 65,21 129,39 194,45 0,0 0,1 0,1 42,69 86,171 70,255 -64,-5 -127,-10 -190,-23 -60,-41 -120,-86 -184,-119 -68,-36 -161,-27 -211,-94 -4,-11 -24,-2 -17,10 39,64 113,72 180,92 57,17 103,57 150,93 -41,-9 -82,-18 -125,-25 -12,-1 -23,-4 -34,-6 0,-3 -1,-6 -1,-10 -1,-5 -9,-3 -9,2 0,2 0,4 0,6 -40,-8 -79,-18 -118,-27 1,-3 1,-8 -3,-11 -40,-33 -114,-30 -128,-86 -6,-28 15,-62 23,-87 7,-22 8,-41 2,-63 -2,-8 -14,-6 -14,2 1,63 -54,112 -29,176 16,37 69,51 110,65 -18,21 -27,55 -35,80 -3,9 -7,21 -3,30 3,8 11,8 17,4 4,-4 2,-10 -3,-11 2,0 2,-1 3,-2 47,33 118,64 176,59 11,0 12,-12 5,-16 7,-29 10,-61 9,-91 5,0 10,1 14,2 20,4 39,8 59,12 -5,38 -6,75 -17,112 -1,4 2,10 6,11 36,6 73,8 109,10 37,3 72,9 108,15 0,10 1,19 3,28 2,6 10,6 12,0 2,-8 3,-16 4,-25 0,0 0,0 0,0 8,1 13,-8 6,-12 -2,-1 -4,-2 -6,-3 1,-7 1,-14 1,-21 2,-22 4,-43 6,-65 23,3 46,6 69,7 -2,37 -3,74 -11,109 -1,5 1,10 7,12 46,15 94,10 141,12 33,15 77,12 113,-7 14,1 26,0 36,-1 15,-2 11,-22 -1,-26 18,-20 29,-46 29,-78 0,-6 -4,-11 -10,-13 -3,-1 -6,-2 -9,-3 0,0 0,0 0,-1 8,-8 -2,-23 -12,-16 -9,6 -18,9 -28,11 -8,1 -16,1 -24,3 -40,1 -86,-14 -121,-17 -11,-1 -22,-2 -33,-3 4,-32 -7,-72 -14,-96 -15,-55 -38,-116 -75,-161 30,3 60,4 92,1 50,-4 101,-6 150,8 36,11 64,17 99,0 3,-2 4,-4 4,-6 21,3 41,7 61,13 41,12 84,32 127,39 -3,27 6,53 36,78 21,16 46,22 73,21 -6,36 -16,71 -10,108 0,0 0,1 0,2 -1,2 -1,5 1,6 2,11 5,18 18,23 10,4 23,2 31,-5 73,21 151,21 227,16 78,-5 168,-18 242,-49 5,4 10,7 15,10 4,2 9,-2 8,-6 -1,-5 -3,-8 -5,-12 4,-2 8,-4 12,-6 14,-7 5,-28 -10,-24 -9,3 -17,5 -26,8 -10,-8 -18,-16 -21,-28 -2,-8 -14,-9 -18,-2 -9,15 -21,35 -39,18 -13,-12 -18,-34 -21,-51 0,-5 -8,-3 -9,1 -2,28 4,58 28,75 5,4 10,5 15,6 -5,1 -10,2 -15,4 0,-3 -3,-6 -6,-5 -18,5 -23,-19 -27,-32 -1,-2 -4,-1 -4,1 3,13 7,34 19,40 -45,12 -90,21 -138,26 -55,5 -110,5 -164,0 19,-19 35,-42 55,-59 1,13 3,27 2,41 0,10 12,14 18,8 8,-7 14,-15 21,-22 0,0 0,1 0,2 0,4 3,8 7,8 5,4 13,4 16,-3 7,-12 12,-24 18,-36 0,-1 0,-2 0,-3 5,-7 8,-15 11,-23 3,1 6,1 9,-1 33,-14 44,-45 32,-74 24,-2 48,-4 71,-8 2,1 4,2 6,4 52,34 106,63 163,89 109,49 248,90 365,43 8,-3 8,-18 -2,-16 -69,9 -130,16 -200,4 -73,-14 -142,-45 -209,-77 -33,-16 -65,-38 -97,-58 -1,-4 -3,-7 -7,-7 -1,0 -3,0 -4,0 -57,-36 -115,-68 -183,-67 -2,0 -2,3 0,3 49,5 97,35 140,63 -30,2 -61,6 -92,9 -38,3 -77,5 -115,9 26,-19 48,-40 62,-60 5,-8 -7,-16 -13,-10 -50,54 -142,111 -219,89 -38,-11 -47,-39 -43,-69 5,1 10,1 14,1 11,-1 12,-14 3,-17 -4,-2 -8,-3 -12,-5 7,-19 18,-39 30,-52 34,-41 79,-72 123,-101 10,-6 4,-22 -8,-19 -42,12 -80,43 -125,43 34,-55 111,-77 171,-90 -1,2 0,5 1,7 10,10 28,14 42,16 7,1 14,2 22,3 8,0 11,-3 19,-4 1,0 1,-2 0,-2 -6,-2 -12,-5 -18,-6 -6,-2 -13,-3 -19,-5 -4,-1 -7,-2 -11,-3 2,-35 -48,-82 -70,-103 -26,-26 -59,-52 -96,-58 0,-6 -5,-11 -12,-9 -58,24 -115,66 -165,111 12,-57 14,-118 22,-175 10,-77 22,-154 33,-232 20,-143 37,-286 29,-430 0,-1 -1,-1 -1,0 -10,147 -28,294 -52,440 -11,68 -22,135 -33,203 -10,69 -25,142 -20,212 0,1 0,1 0,2 -12,11 -24,22 -36,33 -3,3 1,7 4,6 40,-24 76,-50 113,-77 37,-27 77,-48 114,-75 0,0 1,-1 2,-2 36,14 66,42 92,70 16,17 30,35 43,54 4,7 7,15 11,22 -2,0 -4,-1 -6,-1 0,-1 -1,-3 -3,-3 -74,0 -170,25 -202,100 -2,5 -1,14 7,15 27,5 51,-1 74,-11 -40,33 -80,73 -97,114 -46,-15 -95,-27 -141,-40 -58,-17 -112,-8 -171,-11 -2,0 -3,0 -3,1 -4,-1 -7,-1 -11,-2 -41,-6 -81,-4 -122,-1 -99,9 -189,-15 -283,-43 -66,-20 -133,-49 -204,-39 -37,6 -80,21 -116,14 -35,-6 -70,-29 -97,-52 4,-3 7,-8 5,-14 -10,-26 -24,-50 -33,-76 -11,-30 -18,-63 -24,-94 -12,-61 -22,-122 -39,-183 -40,-137 -60,-277 -90,-416 0,-1 -1,-1 -1,-1 45,-5 90,-8 135,-8 89,-1 193,6 267,61 0,0 0,1 0,2 13,82 -2,158 -18,238 -13,61 -5,131 15,190 3,11 19,9 19,-3 1,-32 -7,-63 -12,-95 -9,-50 1,-97 11,-145 12,-59 14,-127 -9,-183 1,1 2,1 3,2 1,1 1,1 2,2 0,1 1,2 1,4 3,12 21,9 21,-3 0,-1 0,-3 0,-4 6,-6 8,-16 0,-23 0,0 -1,0 -1,0 -2,-45 -10,-91 -15,-136 -7,-55 -16,-111 -29,-166 -20,-78 -55,-152 -111,-208 71,-15 135,-47 197,-83 10,-5 87,-55 122,-72 14,13 30,26 44,39 24,19 47,39 69,60 16,16 27,34 38,53 1,8 1,17 1,25 1,6 4,10 9,12 21,7 40,7 62,5 21,-1 43,0 65,-3 4,-1 7,-6 7,-10 5,9 13,18 22,24 0,0 0,1 0,1 1,3 5,4 7,2 4,2 8,3 13,4 22,2 48,-10 68,-22 1,-1 2,-1 3,-2 2,-1 4,-2 5,-3 1,1 2,1 3,1 25,4 50,9 75,13 14,2 30,6 44,3 0,0 1,0 1,0 2,0 3,-1 4,-2 3,-1 6,-3 8,-5 4,-3 3,-8 0,-12 6,-33 0,-69 -6,-104 3,-1 5,-3 4,-7 27,11 50,28 74,45 24,17 50,42 80,46 12,2 19,-12 9,-19 -31,-21 -64,-38 -96,-58 -21,-14 -46,-25 -71,-24 -2,-3 -3,-7 -5,-10 0,-2 0,-5 -1,-7 0,-5 -3,-8 -7,-10 -5,-9 -11,-18 -16,-27 -8,-14 -17,-29 -29,-40 39,-40 68,-96 91,-142 15,-29 28,-60 37,-91 12,-44 8,-92 13,-137 0,-2 -3,-3 -4,-1 -14,30 -18,58 -21,91 -4,42 -19,79 -37,117 -27,59 -60,109 -103,156 -2,-1 -4,-1 -6,1 -6,4 -12,8 -18,14 -55,1 -115,4 -160,-35 -4,-4 -11,1 -7,5 30,42 97,58 150,47 -22,27 -40,60 -57,87 0,0 0,0 0,0 -49,-8 -93,24 -77,78 1,5 3,10 6,15 -1,0 -1,0 -1,0 -35,-17 -75,3 -112,-5 6,-40 3,-82 6,-123 17,5 34,10 50,16 20,8 41,20 63,21 4,0 6,-5 4,-8 -20,-31 -71,-47 -109,-56 5,-2 9,-9 6,-15 -39,-72 -124,-110 -146,-193 -1,-5 -9,-4 -9,1 4,83 90,145 138,205 0,0 0,0 0,0 -2,0 -3,-1 -5,-1 -7,-2 -16,2 -17,10 -4,26 -7,53 -8,80 -17,-20 -39,-38 -56,-52 -24,-20 -49,-39 -73,-58 1,-1 1,-3 1,-4 -2,-6 -7,-8 -15,-8 -15,-13 -29,-27 -42,-42 40,-13 59,-70 73,-105 1,-4 -4,-6 -6,-2 -11,17 -23,35 -36,51 -12,15 -27,25 -42,37 -1,1 -1,1 -2,2 -1,-1 -1,-2 -2,-3 -3,-5 -10,0 -8,5 11,24 26,44 44,62 -27,10 -61,32 -67,35 -80,46 -155,97 -243,127 0,1 0,1 0,1 -14,-14 -30,-26 -46,-37 -3,-1 -6,3 -4,5 84,72 128,166 151,272 19,83 17,170 29,253 -69,-42 -156,-49 -236,-49 -98,-1 -197,13 -294,33 -9,2 -7,17 3,16 39,-5 79,-10 118,-14 0,0 -1,1 -1,2z"/>
   <path class="fil4" d="M973 2247c69,20 138,38 206,63 71,26 140,58 211,85 67,26 135,52 200,83 51,24 106,53 164,50 14,-1 13,-21 0,-22 -50,-7 -95,-25 -139,-46 31,-205 17,-412 30,-618 7,-96 16,-192 12,-289 -3,-80 -13,-173 -61,-240 -4,-5 -14,-2 -11,5 30,82 46,160 48,248 2,92 -8,185 -14,276 -15,203 1,405 -28,607 -7,-4 -15,-8 -23,-11 -60,-29 -123,-51 -185,-75 -134,-51 -264,-116 -408,-131 -8,-1 -10,12 -2,15z"/>
   <path class="fil4" d="M1652 2869c-21,14 -50,25 -63,48 -4,8 5,15 12,11 51,-22 104,-60 111,-118 2,-18 -20,-26 -29,-37 -7,-11 -9,-22 -18,-32 -14,-14 -22,-23 -30,-44 -1,-1 -3,-2 -4,0 -7,15 -6,26 2,40 5,9 14,16 20,24 7,10 8,23 17,32 5,5 10,10 15,14 20,13 -24,55 -33,62z"/>
   <path class="fil4" d="M1773 2936c-4,6 4,12 9,7 41,-49 144,-144 84,-213 -4,-5 -10,0 -9,6 7,45 7,72 -19,112 -20,31 -46,57 -65,88z"/>
   <path class="fil0" d="M763 2806c-7,34 -13,69 -17,103 -1,7 10,8 12,1 8,-33 4,-69 8,-104 0,-1 -3,-2 -3,0z"/>
   <path class="fil4" d="M921 3187c39,-49 83,-112 71,-177 -1,-5 -9,-5 -9,0 -9,64 -47,119 -89,167 -24,27 -40,58 -67,83 -21,20 -44,39 -68,57 -1,-1 -3,0 -3,1 0,1 0,1 0,1 -2,1 -4,3 -5,4 -3,2 -1,6 3,4 5,-3 5,-2 7,-7 7,-3 20,-13 22,-15 14,-10 27,-22 40,-33 34,-29 70,-51 98,-85z"/>
   <path class="fil4" d="M692 4070c-12,-116 -14,-234 -10,-351 4,-118 14,-237 28,-354 14,-118 36,-234 44,-354 0,-2 -3,-1 -3,0 -14,124 -44,245 -61,368 -17,118 -26,237 -32,356 -11,230 0,485 86,702 4,11 19,7 17,-4 -28,-121 -57,-239 -69,-363z"/>
   <path class="fil4" d="M575 3898c-15,-171 0,-343 21,-514 22,-177 61,-353 114,-523 1,-1 0,-1 -1,0 -113,324 -182,677 -160,1022 11,171 45,339 78,507 34,177 59,354 79,534 1,12 20,13 20,0 3,-167 -33,-333 -65,-495 -34,-176 -71,-352 -86,-531z"/>
   <path class="fil4" d="M1164 3490c44,0 87,28 133,18 6,-1 8,-8 6,-12 -4,-8 -8,-16 -11,-24 13,20 25,41 30,64 -55,9 -109,-1 -158,-46zm453 17c7,-1 7,-13 0,-14 -39,-6 -78,-5 -116,-18 12,-10 24,-19 35,-29 6,-5 2,-16 -6,-15 -15,2 -30,5 -44,11 -10,4 -8,17 -2,19 -45,30 -93,57 -141,70 21,-67 37,-136 53,-204 18,-72 32,-145 28,-219 -1,-2 -4,-2 -4,0 -7,78 -23,154 -45,229 -16,56 -37,113 -48,171 -21,-38 -43,-73 -68,-108 -4,-7 -17,-3 -13,6 0,0 0,1 0,1l0 0c0,0 0,0 0,0 12,29 26,56 37,85 -51,-2 -96,-35 -148,-21 -9,2 -11,13 -5,19 109,121 247,75 360,-7 38,19 85,30 127,24z"/>
   <path class="fil4" d="M1304 3578c-25,91 -33,189 -41,283 -9,100 -13,201 -18,302 -11,211 -29,418 -70,625 -3,15 19,21 23,6 55,-193 62,-399 70,-599 4,-101 7,-202 13,-302 6,-106 21,-210 29,-315 1,-3 -5,-4 -6,0z"/>
   <path class="fil4" d="M1349 4929c39,-46 51,-105 64,-163 17,-81 41,-160 67,-238 56,-165 109,-329 153,-497 43,-164 68,-330 75,-499 6,-171 57,-344 37,-515 -1,-4 -7,-4 -7,0 -10,162 -41,321 -56,482 -7,85 -8,169 -20,254 -12,86 -31,170 -51,255 -38,158 -86,314 -139,467 -27,76 -52,152 -73,230 -20,74 -31,144 -63,215 -3,7 7,17 13,9z"/>
   <path class="fil4" d="M1319 1683c3,-2 7,-5 11,-8 5,-5 9,-9 12,-13 19,9 41,21 44,44 6,43 -114,25 -70,-19 1,-1 2,-2 3,-4zm-11 -69c9,8 18,17 16,28 -3,11 -17,19 -28,24 1,-2 1,-4 1,-6 -2,-18 4,-31 11,-46zm-79 -23c15,-34 30,19 37,50 -26,-8 -52,-16 -37,-50zm-186 -186c-2,-1 -4,2 -2,3 57,40 71,118 84,181 6,32 9,68 15,103 -2,2 -3,5 -1,8 1,2 2,4 3,6 2,7 3,14 5,20 -19,0 -38,0 -57,0 0,-4 1,-8 1,-12 0,-1 -2,-1 -2,0 -1,4 -2,9 -3,13 -3,2 -3,6 -2,9 -20,95 -32,212 34,291 45,54 136,80 187,30 2,1 6,1 7,-3 2,-4 3,-7 4,-11 3,-5 7,-11 10,-17 1,-4 0,-7 -2,-9 13,-48 20,-97 29,-145 1,-4 -6,-6 -7,-2 -12,52 -25,103 -37,154 -59,70 -156,33 -198,-39 -40,-68 -31,-166 -22,-246 0,0 0,1 1,1 21,0 42,1 63,3 3,10 7,19 12,28 3,3 8,1 7,-3 -1,-8 -3,-16 -4,-24 3,0 7,1 10,1 2,1 3,3 4,4 4,3 9,1 10,-3 41,4 83,8 124,7 23,10 52,7 74,-5 11,-5 18,-13 22,-21 0,13 0,26 0,39 -3,178 -38,355 -30,534 1,4 7,4 7,0 4,-85 7,-169 13,-254 6,-88 16,-177 19,-266 5,-143 -10,-285 -4,-427 0,-1 -2,-2 -2,-1 -14,61 -10,126 -9,187 1,52 4,104 5,156 -10,-24 -38,-48 -62,-55 0,-22 -19,-42 -41,-58 -8,-5 -17,1 -20,8 -1,3 -2,6 -3,8 -5,-16 -13,-31 -26,-39 -19,-13 -38,-3 -50,14 -28,42 12,99 59,82 1,2 1,4 1,5 1,8 7,12 13,13 -24,10 -50,17 -75,23 -12,3 -13,23 0,25 26,4 51,-1 73,-11 1,8 5,16 11,24 -37,-3 -75,-5 -112,-6 -6,-7 -12,-14 -17,-21 -10,-51 -21,-102 -32,-152 -13,-56 -34,-120 -87,-150z"/>
   <path class="fil4" d="M1042 1505c16,1 34,5 50,-1 7,-2 7,-11 0,-13 -16,-6 -34,-3 -50,-2 -10,1 -10,15 0,16z"/>
   <path class="fil4" d="M1036 1552c19,2 38,4 55,13 11,6 19,-8 10,-15 -20,-15 -42,-13 -65,-10 -8,0 -8,11 0,12z"/>
   <path class="fil4" d="M1084 1621c6,5 13,9 21,13 11,4 17,-13 8,-19 -6,-4 -12,-9 -18,-12 -9,-5 -18,-7 -28,-9 -6,-1 -10,8 -4,11 8,4 14,10 21,16z"/>
   <path class="fil4" d="M1063 1672c16,8 32,0 44,-12 8,-7 -3,-18 -10,-11 -9,8 -18,16 -29,11 -7,-3 -12,9 -5,12z"/>
   <path class="fil4" d="M1145 1439c-9,5 -15,12 -21,19 -5,5 -5,13 0,18 4,5 12,4 17,0 7,-7 14,-13 19,-21 6,-10 -6,-22 -15,-16z"/>
   <path class="fil4" d="M1163 1516c-9,10 -17,21 -29,29 -7,4 -2,18 6,14 16,-6 32,-18 36,-35 2,-8 -8,-15 -13,-8z"/>
   <path class="fil4" d="M1166 1643c-1,-1 -2,-1 -4,-1 -8,0 -8,13 0,13 3,0 5,-2 6,-4 6,-2 11,-7 16,-12 4,-4 -3,-10 -7,-6 -3,3 -6,8 -11,10z"/>
   <path class="fil4" d="M1541 1415c0,-1 0,-1 0,0l0 0zm0 0c0,0 0,0 0,1 0,0 0,0 0,1 0,-1 0,-1 0,-2zm-27 7c0,1 1,2 1,3 0,1 1,2 1,3 1,0 1,1 2,2 0,0 0,0 0,0l0 0c7,7 19,5 24,-3 2,-4 4,-8 5,-12 4,-8 4,-19 -5,-24 -5,-3 -12,-1 -16,2 -3,3 -6,8 -7,12 -1,1 -1,3 -2,5 0,0 -1,2 -1,2 -1,2 -2,4 -2,6 0,1 0,2 0,2 0,1 0,2 0,2z"/>
   <path class="fil0" d="M1539 1615c0,0 -1,0 0,0l0 0z"/>
   <path class="fil4" d="M1545 1593c-1,0 -1,0 -1,0 0,0 0,0 -1,0 2,-1 3,-1 2,0zm-5 5c1,0 1,0 1,0 0,0 0,0 -1,0 0,0 0,0 0,0 0,0 0,0 0,0zm-11 1c-1,1 -2,2 -2,4 -1,3 0,7 2,9 2,2 5,3 7,3 1,0 2,0 3,-1 0,1 0,1 0,1 0,0 1,-1 1,-1 1,0 3,0 4,0 3,-1 5,-1 8,-2 7,-3 12,-9 8,-17 -2,-2 -5,-4 -8,-5 -1,0 -2,-1 1,0 -2,0 -3,-1 -4,-1 -8,-5 -19,0 -20,10z"/>
   <path class="fil4" d="M1572 1763c2,-5 2,-11 -2,-15 -5,-5 -14,-6 -19,0 -1,1 -2,1 -3,2 0,1 -3,3 -4,3 -2,2 -5,4 -7,6 -4,2 -7,6 -8,10 0,0 0,1 -1,1 0,0 0,1 0,1 0,2 0,4 0,6 1,2 2,4 3,5 1,3 2,6 3,9 6,15 29,13 29,-4 0,0 0,-1 0,-1 0,0 0,0 0,0 1,-3 2,-5 2,-7 2,-6 5,-11 7,-16z"/>
   <path class="fil4" d="M1548 1957c-21,0 -21,34 0,34 22,0 22,-34 0,-34z"/>
   <path class="fil4" d="M1542 2173c23,0 23,-36 0,-36 -23,0 -23,36 0,36z"/>
   <path class="fil4" d="M1545 2738c-7,3 -13,8 -19,12 -8,6 -4,20 7,17 7,-2 15,-4 21,-8 7,-3 13,-8 18,-13 5,-5 2,-15 -5,-14 -8,1 -15,2 -22,6z"/>
   <path class="fil4" d="M1498 2332c-1,6 -1,11 2,17 1,1 3,6 1,0 1,4 2,7 5,10 4,3 7,5 12,5 6,0 12,-4 15,-9 4,-8 3,-17 -4,-24 -1,-1 -2,-1 -4,-2 -2,-5 -7,-8 -13,-8 -6,0 -13,4 -14,11z"/>
  </g>
 </g>
</svg>
