<?xml version="1.0" encoding="UTF-8"?>
<!DOCTYPE svg PUBLIC "-//W3C//DTD SVG 1.1//EN" "http://www.w3.org/Graphics/SVG/1.1/DTD/svg11.dtd">
<!-- Creator: CorelDRAW X8 -->
<svg xmlns="http://www.w3.org/2000/svg" xml:space="preserve" width="4843px" height="6318px" version="1.1" style="shape-rendering:geometricPrecision; text-rendering:geometricPrecision; image-rendering:optimizeQuality; fill-rule:evenodd; clip-rule:evenodd"
viewBox="0 0 4843 6318"
 xmlns:xlink="http://www.w3.org/1999/xlink">
 <defs>
  <style type="text/css">
   <![CDATA[
    .fil6 {fill:#FEFEFE;fill-rule:nonzero}
    .fil1 {fill:#373435;fill-rule:nonzero}
    .fil5 {fill:#82B89F;fill-rule:nonzero}
    .fil0 {fill:#00A859;fill-rule:nonzero}
    .fil2 {fill:#7B6957;fill-rule:nonzero}
    .fil4 {fill:#FBD8D6;fill-rule:nonzero}
    .fil3 {fill:white;fill-rule:nonzero}
   ]]>
  </style>
 </defs>
 <g id="Layer_x0020_1">
  <metadata id="CorelCorpID_0Corel-Layer"/>
  <g id="_584759024">
   <path class="fil0" d="M5858 2447l0 0c0,-17 -1,-35 -1,-53 2,11 5,22 7,33 -2,7 -4,13 -6,20z"/>
   <path class="fil0" d="M5496 3682c-2,3 -3,6 -5,9 -3,6 -5,12 -5,18 5,-8 10,-16 15,-24 -2,-1 -3,-2 -5,-3z"/>
   <path class="fil0" d="M5426 3598c-17,43 18,78 52,73 -24,-18 -43,-42 -52,-73z"/>
   <g>
    <path class="fil1" d="M1227 455c-70,39 -170,116 -118,207 9,15 32,8 33,-9 3,-48 6,-83 41,-120 35,-35 79,-60 121,-86 67,-42 155,-93 147,-184 -1,-6 -9,-6 -9,0 -3,105 -138,150 -215,192z"/>
    <path class="fil1" d="M1454 263c-2,93 -11,281 117,294 10,1 11,-14 2,-16 -112,-30 -111,-185 -114,-278 0,-3 -4,-3 -5,0z"/>
    <path class="fil1" d="M1195 245c35,-36 42,-81 93,-103 39,-16 83,-22 123,-37 3,-1 3,-7 -1,-7 -53,2 -106,-6 -158,13 -46,17 -91,71 -89,121 0,16 20,25 32,13z"/>
    <path class="fil1" d="M1118 283c1,3 4,7 7,8 17,2 13,-18 14,-28 1,-2 -1,-4 -3,-5 -9,-3 -14,4 -15,11 -2,2 -2,3 -2,5 -2,1 -3,4 -2,6 -1,-4 1,2 1,3zm12 -8l0 0c0,0 0,0 0,0 0,0 0,0 0,0 0,0 0,0 0,0zm0 0l0 0c0,0 0,0 0,0 0,0 0,0 0,0 -1,-2 -1,-3 0,0zm0 0l0 0c0,0 0,0 1,0 0,0 0,0 0,0 0,1 0,1 0,2 0,-1 -1,-1 -1,-2z"/>
    <path class="fil1" d="M1212 311c7,-14 15,-26 19,-41 4,-12 5,-25 5,-38 0,-7 -9,-11 -13,-6 -5,6 -9,13 -12,20 -16,17 -25,38 -20,62 2,9 17,12 21,3z"/>
    <path class="fil1" d="M1267 281c2,9 14,7 16,0 5,-13 10,-33 10,-49 0,-7 -11,-11 -14,-4 -4,7 -9,18 -6,26 -1,2 -2,4 -2,6 -3,7 -6,13 -4,21z"/>
    <path class="fil1" d="M1350 266c9,6 15,-4 17,-11 2,-3 1,-6 -1,-8 0,-3 1,-5 1,-8 2,-8 6,-18 8,-24 4,-8 -6,-17 -12,-10 -4,5 -8,10 -11,15 -1,2 -2,6 -2,9 -1,4 -3,8 -4,12 -1,2 0,3 2,3 -1,2 -1,3 -1,4 -2,5 -5,14 3,18z"/>
    <path class="fil1" d="M1449 237c0,5 0,10 0,16 0,7 9,9 13,5 1,0 3,1 4,1 10,0 13,-9 12,-17 0,-5 -3,-7 -6,-9 -1,-2 -1,-4 -2,-6 -1,-4 -2,-7 -3,-11 -1,-1 -2,-8 -2,-5 -1,-11 -17,-11 -17,-1 0,-2 -4,-2 -4,1 0,6 1,12 3,18 1,3 1,5 2,8z"/>
    <path class="fil1" d="M1526 248c0,1 0,1 0,2 2,4 2,8 2,13 -1,13 22,16 24,3 1,-8 2,-16 5,-24 2,-7 6,-20 -4,-23 -8,-2 -14,4 -18,12 0,0 0,0 0,0 -4,-3 -10,-3 -13,2 -2,4 0,8 2,13 0,1 1,2 2,2z"/>
    <path class="fil1" d="M1461 138c54,14 106,53 144,99 -2,1 -3,2 -3,5 -1,6 1,12 5,17 3,5 12,8 18,4 5,8 10,15 14,23 -1,1 -2,2 -3,3 -4,8 -5,16 -2,24 3,10 12,18 23,16 4,-1 8,-7 6,-11 -2,-6 -6,-9 -10,-13 -2,-2 -1,-5 0,-8 8,1 16,-4 16,-13 -4,-48 -44,-83 -81,-111 -36,-27 -80,-52 -127,-45 -6,0 -5,9 0,10z"/>
    <path class="fil1" d="M1083 724c-74,-113 19,-246 56,-356 2,-5 -6,-8 -8,-3 -57,105 -160,261 -68,375 9,11 28,-4 20,-16z"/>
    <path class="fil1" d="M1624 698c-9,9 -7,25 5,31 1,1 2,2 3,3 7,3 17,5 24,0 37,-29 55,-88 60,-133 10,-84 -23,-147 -65,-218 -1,-2 -4,0 -4,2 12,61 38,121 39,184 0,31 -9,64 -22,92 -9,19 -25,25 -40,39z"/>
    <path class="fil1" d="M1114 1896c15,0 15,-23 0,-23 -15,0 -15,23 0,23z"/>
    <path class="fil1" d="M1473 1892c9,0 9,-14 0,-14 -10,0 -10,14 0,14z"/>
    <path class="fil1" d="M1483 1806c-8,0 -8,12 0,12 7,0 7,-12 0,-12z"/>
    <path class="fil1" d="M1527 1857c-3,-3 -6,-5 -9,-6 -7,-1 -14,2 -16,10 -2,7 3,15 11,16 1,0 1,1 2,1 4,3 8,3 12,2 5,-1 8,-6 8,-11 0,-4 -2,-8 -6,-10 0,0 0,0 0,0 0,0 0,0 0,0 -1,-1 -1,-2 -2,-2zm2 3l0 0c0,0 0,0 1,0 0,0 -1,0 -1,0 0,0 0,0 0,0z"/>
    <path class="fil1" d="M1530 1962c-1,0 -1,1 0,1 0,0 0,-1 0,-1z"/>
    <path class="fil1" d="M1471 1938c-2,-1 -4,-3 -6,-4 -4,-4 -10,1 -6,6 1,2 3,4 5,6 4,5 13,-4 7,-8z"/>
    <path class="fil1" d="M1473 1840c0,2 0,4 0,6 1,4 5,6 8,7 1,1 3,1 4,2 7,2 15,-4 15,-12 0,-8 -8,-13 -15,-11 -1,0 -3,0 -4,1 -3,1 -7,4 -8,7z"/>
    <path class="fil1" d="M1648 1231c12,29 26,59 54,74 8,5 16,-4 12,-12 -10,-22 -26,-40 -37,-62 -4,-8 8,-45 11,-55 2,-9 -6,-18 -16,-16 -7,2 -15,4 -22,6 9,-19 18,-39 25,-58 3,-7 -4,-14 -10,-14 -5,0 -8,1 -12,1 6,-12 10,-27 4,-38 -13,-21 -33,2 -29,-29 1,-6 -8,-9 -10,-2 -1,8 -3,17 -5,26 -1,3 1,7 5,7 28,-4 27,30 9,45 -7,6 1,16 9,15 4,-1 8,-1 11,-2 -8,19 -17,37 -27,56 -3,-18 -6,-36 -10,-53 -1,-3 -5,-2 -5,1 9,43 6,88 14,131 1,4 9,3 9,-1 -1,-19 -3,-38 -5,-58 2,2 5,2 9,2 9,-2 18,-4 27,-6 -2,10 -5,19 -11,29 -3,4 -2,9 0,13z"/>
    <path class="fil1" d="M793 4853c100,-429 65,-883 50,-1319 -8,-220 -10,-440 1,-661 6,-114 21,-227 43,-339 21,-106 51,-212 62,-319 0,-2 -2,-2 -3,-1 -27,105 -45,212 -67,317 -22,102 -40,203 -51,306 -24,219 -22,440 -18,661 5,220 15,440 15,660 -1,231 -18,461 -51,690 -2,12 16,18 19,5z"/>
    <path class="fil1" d="M2445 6106c-145,-50 -296,-42 -448,-45 -138,-3 -276,-12 -414,-12 -125,1 -239,49 -362,59 -68,5 -130,-15 -189,-46 -39,-21 -71,-46 -117,-46 -105,-1 -176,112 -270,141 -38,11 -108,22 -146,4 -12,-6 11,-53 14,-62 26,-64 54,-130 28,-200 -20,-53 -64,-89 -116,-111 -67,-28 -141,-31 -213,-44 -13,-3 -26,-6 -38,-10 -8,-2 -17,-9 -17,-9 -2,-3 -1,-3 2,-13 5,-17 18,-33 29,-47 44,-56 100,-104 151,-153 60,-57 119,-114 174,-175 102,-112 183,-242 232,-385 0,0 0,0 0,-1 1,-4 3,-8 4,-12 4,-13 -17,-22 -23,-9 -51,112 -114,215 -195,308 -79,91 -167,172 -256,253 -53,48 -268,210 -148,293 35,24 86,26 127,32 53,7 109,14 158,38 51,24 83,72 72,130 -11,62 -64,122 -54,186 8,48 57,61 99,65 79,7 157,-10 221,-57 56,-42 138,-125 213,-90 82,39 150,79 244,80 85,1 168,-28 251,-44 95,-18 198,-9 295,-5 112,5 225,12 338,15 56,2 112,4 168,7 61,3 117,26 178,28 38,1 41,-52 8,-63z"/>
    <path class="fil1" d="M3403 5733c-48,37 -277,278 -335,197 -54,-77 38,-188 78,-249 38,-58 81,-126 51,-196 -44,-102 -171,-29 -232,12 -119,81 -222,184 -332,277 -37,31 -79,71 -127,86 -38,13 -34,-43 -31,-66 19,-133 85,-260 123,-389 23,-82 64,-232 -37,-281 -60,-28 -138,-6 -199,9 -88,21 -178,53 -270,47 -44,-4 -83,-25 -106,-62 -1,-1 -1,-1 -1,-2 -39,-259 -83,-516 -103,-778 -21,-271 -10,-543 -7,-815 3,-267 -13,-527 -63,-789 -47,-246 -109,-494 -184,-733 35,17 70,33 106,46 77,28 187,43 252,-19 4,0 8,-1 9,-6 38,-151 -21,-315 -59,-460 -43,-161 -29,-343 -101,-496 -1,-2 -3,-2 -5,-2 -28,-65 -107,-78 -174,-80 -44,-1 -87,1 -129,-8 -49,-10 -68,-49 -71,-95 35,-23 63,-61 85,-94 9,-14 18,-30 27,-46 13,45 36,87 85,98 6,1 8,-7 3,-8 -49,-17 -71,-55 -83,-100 4,-7 8,-16 12,-24 9,27 30,47 72,54 102,19 13,75 -1,118 -11,37 27,44 56,44 5,0 7,-9 1,-10 -126,-19 59,-105 -16,-149 -15,-9 -31,-13 -47,-17 -32,-8 -50,-33 -56,-62 16,-40 26,-82 20,-120 0,-3 -2,-6 -4,-8 7,-26 12,-53 11,-81 0,-3 -6,-4 -6,0 0,21 -7,48 -14,77 -1,0 -1,0 -2,0 5,-20 10,-40 13,-61 8,-46 -2,-92 -17,-136 -1,-4 -7,-2 -6,1 23,71 14,132 2,197 -5,2 -9,6 -11,11 -18,58 -33,115 -62,169 -25,49 -77,138 -144,127 -68,-11 -96,-92 -115,-148 -22,-61 -34,-130 -37,-195 0,-6 -8,-5 -8,0 -10,78 -6,162 19,237 9,26 21,54 38,79 -40,26 -91,-16 -84,-64 4,-34 24,-61 23,-96 0,-8 -8,-11 -14,-6 -1,1 -2,2 -3,3 -1,-1 -2,-2 -3,-3 -70,-30 -103,50 -101,107 2,83 72,147 155,125 3,-1 3,-5 0,-5 -73,-3 -121,-39 -129,-114 -4,-45 14,-106 69,-101 -32,37 -47,98 -39,144 9,58 52,72 101,45 0,0 1,-1 1,-2 8,0 15,-1 22,-5 -14,51 -35,97 -89,119 -29,12 -62,15 -94,15 2,-1 3,-3 1,-4 -23,-19 -40,-10 -68,-4 -2,0 -2,3 -1,5 1,1 2,1 2,2 -46,0 -93,1 -136,19 -37,15 -84,54 -89,96 -1,1 0,1 0,1 -3,8 -5,16 -8,24 0,0 0,0 0,0 -2,-1 -3,2 -2,3 1,0 1,0 1,0 -8,29 -14,59 -18,90 -5,-1 -10,-3 -14,-5 -7,-3 -17,6 -10,12 7,6 14,10 21,13 -13,106 -8,218 -9,321 0,100 2,200 7,300 4,87 6,175 20,260 3,19 30,18 37,3 70,23 146,25 218,18 38,-4 160,-22 157,-78 0,-6 -5,-10 -11,-9 -20,7 -34,27 -54,37 -34,18 -76,24 -114,29 -63,8 -132,9 -194,-3 0,-1 0,-1 0,-2 -17,-181 -36,-360 -41,-542 -2,-106 -6,-219 3,-328 26,5 53,0 78,-9 13,-4 8,-23 -6,-20 -23,4 -46,8 -69,6 2,-29 6,-57 11,-85 58,39 101,102 136,167 -2,2 -3,4 -4,6 -1,2 -2,3 -1,5 -2,0 -3,0 -5,0 -26,11 -49,27 -74,39 -9,4 -3,18 6,15 27,-8 59,-16 78,-37 2,-3 2,-6 2,-9 2,0 5,0 7,-2 11,22 22,45 31,66 8,17 16,34 23,51 2,19 5,37 9,54 -17,-19 -39,-32 -65,-21 -4,2 -5,8 0,9 27,6 37,30 51,50 -20,-3 -42,1 -62,7 -7,2 -6,13 2,13 27,-2 53,3 80,8 5,1 8,-1 11,-4 7,24 16,48 25,72 -25,-4 -49,-12 -67,-33 -8,-10 -22,2 -17,13 9,16 21,29 35,37 -40,-8 -76,-5 -93,22 -25,42 18,85 56,91 14,3 29,3 43,1 -32,17 -57,39 -77,69 -9,13 5,27 19,24 41,-9 87,-17 127,-33 -3,30 -4,61 0,89 -86,-7 -177,6 -257,31 -2,0 -1,3 1,3 54,-8 108,-16 162,-20 61,-3 119,5 179,13 7,1 10,-7 5,-10 0,-5 -3,-10 -9,-10 -3,0 -6,3 -7,5 -19,-4 -37,-8 -57,-10 5,-32 6,-67 5,-102 13,-9 43,-37 13,-36 -2,0 -3,1 -3,2 1,2 -3,5 -11,8 0,-8 -1,-16 -1,-24 2,-1 4,-1 5,-1 1,1 1,2 2,3 4,10 18,6 15,-4 0,-1 0,-2 0,-3 6,-2 13,-5 19,-10 1,0 1,1 2,1 0,0 0,0 0,0 3,3 7,4 11,4 -3,7 -5,16 -6,25 0,10 1,20 4,30 -2,-1 -4,-2 -6,-2 -19,0 -19,29 0,29 7,0 11,-5 13,-10 16,32 50,57 86,60 6,0 9,-11 3,-14 -38,-17 -71,-37 -79,-81 -3,-11 -2,-20 1,-28 0,0 1,0 2,0 23,-2 43,-13 60,-29 24,15 67,14 91,16 63,6 115,14 167,52 7,5 15,-4 11,-11 -22,-40 -79,-51 -121,-55 -30,-4 -60,-5 -90,-7 -15,-1 -31,-5 -46,-8 11,-12 21,-27 29,-42 22,21 56,36 81,36 3,0 3,-4 0,-5 -24,-8 -46,-17 -66,-35 -3,-3 -6,-7 -8,-10 10,-22 17,-44 22,-64 13,-4 28,1 40,4 4,1 7,2 11,3 -1,8 0,16 4,24 18,43 65,42 101,22 9,-5 6,-17 -3,-20 -22,-9 -49,-27 -78,-39 11,-27 56,-31 77,-12 -1,1 -2,2 -2,3 -9,11 5,21 16,18 10,26 9,58 1,84 -2,5 -4,11 -6,16 -3,11 14,19 19,8 0,-1 1,-1 1,-2 0,0 0,0 0,0 0,0 0,-1 0,-1 1,-2 2,-5 3,-8 3,1 6,1 8,0 38,-17 91,-28 125,0 -8,16 -17,32 -26,47 -3,4 -5,8 -8,12 -27,8 -55,12 -63,14 0,0 -1,0 -1,0 -8,-1 -15,8 -11,17 6,11 15,20 26,26 -4,5 -8,11 -12,16 -4,7 4,13 10,10 9,-4 17,-10 24,-17 27,8 60,8 83,8 67,-1 135,-17 201,-12 1,0 1,-1 1,-1 -28,-7 -57,-8 -85,-9 -16,-85 -43,-169 -61,-254 16,-54 24,-110 16,-165 2,-1 3,-3 4,-6 11,-84 -52,-117 -120,-108 2,-3 4,-7 5,-11 1,-4 1,-6 -1,-8 8,-21 14,-42 14,-68 0,-5 -6,-8 -10,-5 -3,1 -6,2 -9,4 6,-6 12,-13 18,-19 4,-5 1,-13 -6,-13 -2,0 -21,-4 -33,-5 10,-5 20,-11 31,-15 7,-3 9,-15 0,-18 -20,-5 -37,-13 -56,-16 6,-5 13,-10 24,-13 7,-2 9,-10 4,-15 0,0 -36,-46 -33,-46 18,-1 36,-11 52,-19 1,0 2,-1 3,-2 0,0 1,0 1,-1 86,4 187,-7 230,83 2,3 4,4 6,3 25,147 35,297 67,442 17,75 36,150 54,224 22,86 25,168 27,256 -49,22 -87,40 -144,37 -59,-4 -116,-29 -169,-53 -15,-7 -29,-13 -44,-20 -3,-9 -6,-18 -8,-28 -3,-6 -8,-9 -15,-8 -12,2 -23,6 -34,9 -11,-4 -22,-9 -33,-14 -2,-1 -4,-2 -6,-2 4,-3 8,-5 12,-7 8,-4 1,-15 -6,-11 -7,3 -14,6 -20,9 -2,0 -3,1 -4,2 0,0 0,0 0,0 2,-1 0,-1 -1,-1 -12,-4 -23,-8 -35,-12 -17,-6 -35,2 -18,-11 2,-2 0,-6 -3,-5 -4,1 -9,2 -13,3 -2,-1 -4,1 -5,2 -1,2 -1,3 -2,5 -2,3 -1,8 4,9 20,5 40,11 60,18 -1,7 6,13 13,10 2,-1 4,-1 5,-3 11,5 23,10 34,15 -5,3 -11,5 -17,8 0,0 0,0 -1,0 1,-5 -3,-12 -10,-12 -7,-1 -12,3 -18,4 -5,1 -9,7 -9,11 0,6 6,12 12,11 3,0 8,0 11,-2 2,-2 5,-4 7,-4 3,-1 5,-2 6,-5 1,2 3,4 5,4 11,-3 22,-5 34,-6 11,5 21,10 32,16 4,10 5,22 6,26 10,35 20,70 30,105 17,65 35,129 52,194 33,131 64,262 89,394 27,136 47,273 58,411 12,141 9,284 7,425 -4,272 -12,543 9,814 21,264 61,527 116,786 2,8 9,9 15,7 90,120 303,33 421,7 55,-12 142,-32 178,27 28,47 10,116 -1,165 -32,137 -96,264 -131,399 -15,61 -19,185 80,145 47,-19 87,-54 126,-86 56,-46 110,-95 165,-143 55,-49 111,-96 172,-138 36,-24 89,-62 136,-54 75,12 32,116 10,153 -42,73 -111,145 -121,232 -7,57 14,123 78,131 62,7 129,-51 173,-86 55,-44 103,-96 156,-143 13,-12 -5,-36 -20,-25zm-2237 -4966l0 0c5,-24 14,-47 25,-65 -6,22 -18,43 -25,65zm-2 18l0 0c0,21 10,38 23,54 12,14 29,23 45,27 -58,17 -74,-29 -68,-81zm20 208l0 0c-1,33 -20,51 -44,71 -4,4 0,11 5,11 8,0 15,-1 21,-2 -5,16 -12,27 -29,37 -1,1 -2,1 -2,2 -2,-29 -3,-57 -4,-85 0,-9 -13,-9 -14,0 -2,79 -11,159 -13,237 -26,1 -52,9 -78,27 0,-2 -1,-3 -2,-4 -52,-28 9,-52 15,-91 1,-5 -2,-10 -6,-11 7,-8 14,-15 20,-24 4,-5 -1,-12 -7,-12 -5,0 -11,0 -17,0 12,-11 22,-24 36,-34 3,-3 3,-10 -3,-10 -9,0 -19,-1 -28,2 20,-6 35,-14 55,-17 5,-1 6,-9 2,-11 -5,-2 -9,-4 -13,-6 -10,-3 -27,1 -16,-6 4,-3 14,-7 14,-12 1,-9 -13,-19 -17,-25 -6,-6 -11,-13 -17,-19 20,0 39,1 58,0 32,-1 60,-8 84,-18zm-34 278l0 0c-6,-2 -13,-3 -19,-4 1,-9 2,-18 3,-26 10,2 20,5 30,7 -3,7 -7,14 -13,19 -1,2 -1,3 -1,4zm-14 -75l0 0c7,6 14,11 21,16 -7,3 -14,6 -22,8 1,-8 1,-16 1,-24zm-1 -77l0 0c0,1 1,1 2,2 12,8 21,20 30,32 -11,4 -20,11 -31,18 0,-17 0,-35 -1,-52zm-51 -123l0 0c0,0 0,0 0,0 -18,0 -35,0 -53,-1 1,-1 2,-3 2,-5 17,-6 34,-4 51,6zm-189 227l0 0c1,0 1,-1 2,-2 9,-25 14,-51 27,-75 4,-9 -7,-18 -14,-11 -18,20 -24,48 -26,75 -24,-29 -53,-53 -85,-69 3,-12 5,-23 8,-35 0,-1 0,-2 -1,-3 17,-18 28,-40 50,-56 22,-17 50,-25 77,-30 33,-7 67,-7 102,-6 16,18 33,43 14,54 -2,2 -2,6 0,7 8,4 15,7 22,11 -20,6 -36,15 -54,30 -3,2 1,7 4,6 10,4 17,5 22,3 -9,11 -13,20 -35,29 -7,2 -6,12 2,13 6,0 13,1 19,1 -11,12 -24,23 -39,32 -8,4 -3,17 7,15 7,-2 14,-4 21,-6 -7,17 -23,36 -31,52 -1,-3 -4,-6 -8,-6 1,-3 2,-6 3,-9 4,-10 -11,-16 -16,-7 -6,10 -7,22 -12,33 0,2 0,4 0,5 -4,7 -7,14 -11,21 -14,-25 -30,-49 -48,-72zm265 367l0 0c1,8 3,16 3,24 -2,-7 -5,-13 -8,-19 1,-1 2,-2 3,-3 1,-1 2,-2 2,-2zm10 84l0 0c1,1 2,1 3,1 -1,2 -2,4 -3,6 0,-2 0,-5 0,-7zm-18 -11l0 0c0,20 -6,40 -12,60 -10,-10 -25,-20 -42,-30 -3,-11 -3,-23 1,-35 1,-1 1,-3 2,-5 4,-14 12,-27 23,-39 27,-32 29,31 28,49zm-101 5l0 0c0,0 0,1 0,1 -2,0 -3,-1 -4,-1 1,0 2,0 4,0zm-123 21l0 0c7,-37 94,-3 152,27 2,5 4,9 5,13 -69,14 -172,35 -157,-40zm150 106l0 0c-24,7 -58,15 -87,21 20,-16 42,-29 66,-41 8,-5 16,-7 24,-8 -1,9 -2,18 -3,28zm122 -73l0 0c-14,-2 -26,1 -36,10 15,-29 32,-57 52,-82 10,-13 22,-24 34,-34 -9,17 -6,34 4,49 -4,7 -8,13 -13,19 -12,15 -26,27 -41,38zm85 -114l0 0c-5,12 -11,24 -18,36 0,-14 6,-27 18,-36zm85 11l0 0c16,8 32,17 49,26 -22,5 -45,0 -49,-26zm256 97l0 0c7,15 -3,26 -20,35 7,-12 13,-23 20,-35zm116 97l0 0c-19,0 -39,1 -58,1 -41,0 -76,-4 -110,-14 2,-4 4,-7 6,-10 45,-12 87,-38 66,-83 -2,-5 -5,-10 -8,-14 9,-18 17,-36 25,-55 8,-20 16,-40 23,-61 13,80 30,161 56,236zm-119 -505l0 0c47,1 57,44 69,80 1,3 3,5 5,6 -1,41 -8,83 -18,124 -1,0 -2,2 -2,4 0,1 0,2 1,3 -9,32 -19,64 -30,95 -7,21 -15,40 -24,59 -29,-22 -74,-20 -112,-9 4,-7 7,-15 11,-24 4,-11 -7,-20 -16,-13 -7,6 -13,12 -19,18 0,-21 -3,-42 -11,-59 36,-44 5,-113 -32,-148 -4,-4 -10,-5 -15,-2 -26,15 -42,36 -59,59 -16,-29 -44,-52 -79,-52 -13,0 -21,4 -27,10 -18,-7 -41,-3 -63,15 -15,14 -31,36 -19,57 16,30 58,28 87,27 6,-1 8,-10 1,-11 -27,-4 -89,-15 -52,-50 15,-14 29,-16 37,-9 0,14 5,29 11,41 8,14 27,6 28,-8 2,-17 -1,-30 -7,-41 3,-3 8,-4 16,-2 26,4 43,29 52,52 4,11 17,12 24,3 17,-23 32,-47 54,-63 25,26 36,62 24,94 -14,-13 -35,-18 -61,-11 -18,5 -35,19 -44,36 -22,-9 -45,-12 -65,-5 0,-1 1,-1 2,-2 5,-5 -2,-12 -8,-9 -38,17 -67,45 -92,78 11,-59 -25,-120 -57,-177 19,2 39,1 56,-5 12,-4 10,-22 -2,-21 -21,0 -42,2 -63,1 11,-6 21,-12 23,-25 1,-6 -5,-12 -11,-9 -8,5 -14,12 -20,17 -2,1 -3,2 -4,3 -6,-12 -12,-23 -16,-35 -1,-4 -7,-2 -6,2 4,14 8,27 14,40 -2,2 -4,4 -6,6 -2,1 -2,2 -2,4 -5,6 -5,15 4,17 6,1 11,2 17,3 5,12 11,24 16,36 11,23 19,45 24,66 -4,-3 -10,-3 -15,1 -7,6 -17,7 -26,4 -10,-4 -16,12 -7,18 2,1 3,1 5,2 -11,12 -20,25 -26,39 -5,0 -9,-1 -14,-1 -3,-24 -10,-49 -15,-68 -12,-51 -31,-101 -53,-149 -5,-34 -6,-68 -5,-102 0,-2 -3,-2 -3,0 -4,24 -6,49 -5,73 -1,-2 -2,-3 -2,-5 -11,-22 -23,-47 -37,-72 4,-5 8,-11 11,-17 6,-8 12,-16 17,-24 -1,12 7,21 35,25 -6,5 -12,9 -18,15 0,0 0,0 1,0 34,-23 69,-36 103,-37 0,9 0,18 0,27 0,12 18,14 21,2 2,-9 4,-18 5,-27 23,3 46,12 70,27 56,36 94,96 129,150 1,2 3,2 4,2 0,0 0,0 0,0 1,0 1,0 1,0 0,0 1,0 1,0 0,0 1,-1 2,-1 50,-47 113,-84 174,-115 35,-18 74,-33 113,-33zm-73 -230l0 0c5,7 -19,24 -23,27 -4,3 -4,10 1,11 18,3 34,11 50,17 -11,9 -21,19 -35,26 -4,1 -2,7 2,7 15,1 28,4 42,6 -12,13 -24,26 -40,36 -7,4 -3,16 5,13 16,-4 30,-9 44,-16 0,23 -9,43 -22,62 0,1 -1,2 -2,3 -2,2 -3,5 -5,7 -3,4 -6,8 -10,11 0,0 0,0 0,1 -84,27 -168,89 -224,157 -40,-68 -102,-144 -172,-171 15,-9 21,-13 24,-32 1,-7 -2,-11 -9,-12 -10,-1 -19,-3 -29,-5 9,-2 18,-4 29,-3 7,0 11,-10 6,-15 -11,-10 -23,-19 -36,-25 12,-7 24,-15 38,-18 6,-2 7,-9 3,-14 -6,-7 -35,-35 -32,-38 17,-13 20,-28 27,-48 2,-5 -5,-9 -9,-7 -3,2 -6,2 -10,3 20,-19 30,-40 26,-70 52,-25 87,-72 98,-136 24,27 53,46 90,49 25,2 48,-5 69,-16 -4,62 28,98 85,114 -3,6 0,14 7,15 -16,3 -28,6 -14,5 -3,0 -7,4 -4,8 12,15 20,32 30,48z"/>
    <path class="fil1" d="M4409 6147c-309,-9 -614,-72 -923,-86 100,-73 208,-149 266,-260 6,-10 -2,-21 -13,-22 -72,-7 -141,10 -208,36 -61,24 -128,55 -176,101 -13,12 3,29 17,23 113,-54 212,-134 342,-132 -66,107 -181,181 -279,254 -12,9 -9,28 8,29 322,8 644,89 966,68 7,-1 7,-11 0,-11z"/>
    <path class="fil1" d="M1225 1913c17,-4 34,-7 51,-8 29,-3 63,4 90,-7 8,-3 8,-13 0,-16 -27,-11 -65,-5 -93,0 -24,3 -62,8 -79,27 -2,1 -3,4 -1,6 2,3 3,3 8,4 4,1 6,-4 3,-6 6,5 11,3 21,0z"/>
    <path class="fil1" d="M1195 2117c29,16 69,9 99,5 8,-1 16,-2 24,-3 -1,3 -1,7 -1,10 0,1 1,2 1,3 -24,82 3,175 18,256 7,39 15,77 22,115 -23,31 -33,68 -6,102 7,9 17,14 27,17 6,34 11,69 15,104 14,118 13,236 4,353 -66,-122 -111,-250 -136,-389 -16,-92 -20,-185 -21,-278 0,-45 3,-90 7,-135 5,-48 22,-96 15,-144 -1,-2 -4,-3 -6,-1 -59,60 -56,187 -61,267 -6,96 2,194 15,290 23,162 74,340 179,471 -10,80 -22,160 -36,241 -34,204 -82,411 -83,619 -1,139 50,280 188,336 14,6 21,-16 10,-24 -66,-47 -116,-95 -141,-174 -22,-69 -18,-145 -12,-217 16,-208 62,-413 94,-619 6,-40 12,-80 17,-120 0,0 1,0 1,1 15,15 42,-5 30,-23 -9,-13 -17,-26 -25,-38 14,-139 16,-277 -2,-416 -4,-36 -10,-70 -16,-105 52,-13 115,-65 156,-94 -2,53 -40,99 -37,153 0,16 23,25 31,9 28,-57 49,-132 41,-196 -1,-12 -11,-23 -24,-19 -64,21 -111,77 -177,96 -2,-14 -5,-28 -8,-42 12,-19 28,-38 32,-42 18,-19 39,-36 59,-53 13,-10 31,-19 39,-34 1,-2 1,-3 1,-5 12,-4 22,-17 15,-31 -27,-62 -63,-121 -107,-173 50,-21 98,-69 109,-114 2,-7 -2,-18 -11,-19 -27,-4 -51,-2 -78,3 -13,3 -28,5 -42,8 7,-25 6,-56 4,-76 -4,-35 -18,-73 -54,-83 -2,-1 -3,2 -2,3 31,19 38,62 39,96 1,27 -7,47 -15,70 -2,0 -5,0 -7,1 -21,11 -51,15 -74,20 -31,8 -75,22 -107,11 -4,-2 -7,5 -3,7zm311 267l0 0c1,1 1,2 2,3 -17,6 -33,18 -48,28 -26,16 -51,36 -74,58 -2,-9 -4,-17 -5,-25 -11,-51 -24,-101 -33,-152 -9,-45 -20,-89 -20,-134 13,28 36,39 62,38 49,54 88,118 116,184zm1 -298l0 0c-19,33 -61,69 -96,76 -18,-18 -36,-35 -56,-50 11,-4 21,-8 30,-13 2,2 5,2 8,0 1,0 1,0 2,-1 8,2 17,0 28,-2 28,-4 55,-11 84,-10z"/>
    <path class="fil1" d="M1077 1407c-9,-1 -17,-2 -26,-2 -3,0 -6,-1 -8,-1 -1,0 -2,-1 -3,-1 0,-1 -3,-3 -2,-1 -4,-6 -16,-7 -17,2 -2,12 5,20 16,25 16,6 30,4 45,-4 10,-4 4,-17 -5,-18z"/>
    <path class="fil1" d="M1070 1466c-3,-4 -9,1 -7,5 4,9 8,18 16,23 8,6 18,7 26,3 6,-2 9,-11 2,-14 -6,-3 -12,-5 -19,-7 -7,-2 -12,-5 -18,-10z"/>
    <path class="fil1" d="M1135 1313c-15,0 -25,15 -33,25 -5,7 -9,14 -13,22 -1,-1 -1,-2 -2,-2 -16,-12 -32,-21 -50,-28 -4,-1 -6,4 -4,7 13,14 29,25 45,35 2,1 3,2 5,2 -1,1 -2,3 -2,5 -3,8 9,12 13,5 7,-10 15,-20 24,-29 8,-9 24,-16 26,-29 2,-7 -3,-12 -9,-13z"/>
    <path class="fil1" d="M820 1301c32,9 62,3 87,-18 8,-6 0,-19 -9,-16 -24,10 -49,18 -75,16 -10,0 -12,15 -3,18z"/>
    <path class="fil1" d="M936 1351c-7,11 -16,20 -25,30 -6,6 4,16 10,10 11,-10 22,-19 28,-33 3,-8 -8,-15 -13,-7z"/>
    <path class="fil1" d="M918 1460c19,-3 38,-2 57,-5 8,-1 8,-13 0,-14 -20,-3 -40,-1 -61,6 -8,2 -5,15 4,13z"/>
   </g>
   <path class="fil2" d="M1062 1536c17,1 35,1 50,-10 6,-4 1,-14 -6,-10 -15,7 -28,10 -44,10 -7,1 -7,10 0,10z"/>
   <path class="fil3" d="M1688 1448c2,-41 -2,-83 -10,-126 -5,-25 -37,-35 -58,-23 -7,4 -14,8 -20,13 0,-2 -1,-5 -1,-8 -4,-22 -34,-33 -53,-22 -11,-14 -34,-18 -49,-4 -45,43 -79,97 -123,140 -13,11 -26,21 -39,32 -10,-12 -21,-23 -32,-34 -62,-63 -81,-161 -191,-139 -14,3 -10,23 3,24 63,3 89,45 117,95 21,38 50,80 81,110 28,25 65,-21 86,-35 28,-18 51,-43 74,-69 -17,42 -28,88 -33,133 -2,23 18,35 37,34 -3,14 -5,26 -7,39 -5,38 34,58 59,40 -1,2 -2,3 -3,5 -21,35 11,65 43,62 18,21 55,22 71,-6 22,-39 52,-162 48,-261z"/>
   <path class="fil3" d="M1543 2307c-59,-75 -119,-168 -215,-196 -22,-7 -41,15 -36,37 1,6 3,13 6,19 -1,1 -2,1 -2,2 -3,-16 -8,-28 -18,-30 -6,-1 -11,2 -14,6l0 0c6,-9 -2,1 -3,3 -4,7 -6,14 -8,23 -7,25 -7,56 -7,82 0,82 5,164 30,241 11,34 60,28 62,-8 1,-34 0,-68 -3,-102 10,22 20,45 33,66 19,31 72,11 60,-25 -14,-41 -35,-80 -52,-120 21,24 41,48 65,70 20,19 61,2 53,-27 28,33 77,-5 49,-41z"/>
   <path class="fil3" d="M922 1597c-15,0 -15,22 0,22 14,0 14,-22 0,-22z"/>
   <path class="fil3" d="M1012 1566c-7,-7 -21,-9 -28,0 -2,1 -3,3 -5,5 -6,8 -8,19 0,27 8,8 20,7 28,0 1,-1 3,-3 5,-4 8,-7 7,-21 0,-28z"/>
   <path class="fil3" d="M917 1726c-19,0 -19,30 0,30 19,0 19,-30 0,-30z"/>
   <path class="fil3" d="M927 1468c0,0 0,-1 0,-2 1,-19 -30,-19 -29,0 0,1 0,2 0,2 -1,4 0,6 2,9 2,5 7,7 12,7 5,0 10,-2 13,-7 1,-3 2,-5 2,-9z"/>
   <path class="fil3" d="M990 1300c-1,0 -2,0 -3,1 -12,4 -21,14 -21,27 0,1 0,2 0,3 -2,-3 -6,-5 -11,-5 -21,0 -21,32 0,32 10,0 15,-7 15,-15 4,6 10,10 17,13 1,0 2,0 3,1 18,6 37,-11 37,-29 0,-18 -19,-35 -37,-28z"/>
   <path class="fil3" d="M1040 1437c-25,0 -25,39 0,39 26,0 26,-39 0,-39z"/>
   <path class="fil3" d="M1017 1476c-24,0 -24,36 0,36 23,0 23,-36 0,-36z"/>
   <path class="fil3" d="M1102 1502c-33,0 -33,51 0,51 33,0 33,-51 0,-51z"/>
   <path class="fil3" d="M704 944c-1,0 -3,0 -4,1 -14,3 -14,23 0,27 1,0 3,0 4,1 10,2 19,-5 19,-15 0,-10 -9,-17 -19,-14z"/>
   <path class="fil3" d="M723 1057c-20,0 -20,30 0,30 19,0 19,-30 0,-30z"/>
   <path class="fil3" d="M803 1094c-33,0 -33,51 0,51 33,0 33,-51 0,-51z"/>
   <path class="fil3" d="M849 1151c-1,1 -2,1 -3,2 -7,7 -7,21 0,28 1,1 2,1 3,2 14,14 39,4 39,-16 0,-20 -25,-30 -39,-16z"/>
   <path class="fil3" d="M929 1203c-1,-3 -3,-5 -5,-7 0,0 0,0 0,0 0,0 0,0 0,0 0,0 -1,0 -1,0 -1,-2 -3,-3 -5,-4 -1,-1 -2,-2 -4,-2 0,0 -1,-1 -1,-1 -1,0 -2,-1 -4,-1 -3,-1 -7,-2 -10,-1 0,0 0,0 -1,0 0,0 -1,0 -2,0 -1,0 -2,0 -3,1 0,0 0,0 -1,0 0,0 0,0 0,0 0,0 0,0 0,0 -14,4 -23,17 -23,31 0,14 9,27 23,31 13,4 31,-2 37,-15 0,0 0,0 0,0 5,-11 6,-22 0,-32z"/>
   <path class="fil3" d="M912 1275c-31,0 -31,49 0,49 32,0 32,-49 0,-49z"/>
   <path class="fil3" d="M1140 314c-16,0 -16,26 0,26 17,0 17,-26 0,-26z"/>
   <path class="fil3" d="M1259 293c-32,0 -32,49 0,49 31,0 31,-49 0,-49z"/>
   <path class="fil3" d="M1268 188c-33,0 -33,51 0,51 33,0 33,-51 0,-51z"/>
   <path class="fil3" d="M1391 246c-7,-2 -16,2 -19,9 -2,3 -4,7 -4,10 0,9 6,14 14,15 9,1 18,-7 20,-15 2,-8 -3,-17 -11,-19z"/>
   <path class="fil3" d="M1486 233c-11,0 -21,11 -17,23l1 4c5,16 28,16 33,0l1 -4c4,-12 -6,-23 -18,-23z"/>
   <path class="fil3" d="M1599 309c-5,-4 -11,-6 -18,-4 -8,2 -12,9 -13,17 0,2 -1,3 -1,5 -1,7 7,15 14,14 2,0 4,0 5,0 7,-1 12,-3 16,-9 4,-8 3,-17 -3,-23z"/>
   <path class="fil3" d="M1553 204c-42,0 -42,65 0,65 42,0 42,-65 0,-65z"/>
   <path class="fil3" d="M1686 355c-26,0 -26,39 0,39 25,0 25,-39 0,-39z"/>
   <path class="fil4" d="M1349 249c-3,0 -5,1 -7,1 0,-1 0,-2 0,-4 0,-11 -9,-20 -20,-20 -12,0 -21,9 -21,20 0,11 9,21 21,21 0,0 0,0 0,0 -7,17 2,43 27,43 39,0 39,-61 0,-61z"/>
   <path class="fil4" d="M1387 180c-36,0 -36,56 0,56 36,0 36,-56 0,-56z"/>
   <path class="fil4" d="M1513 202c-12,-4 -25,2 -31,12 -4,7 -4,14 -2,22 0,13 17,24 29,18 4,0 7,-2 10,-4 8,-5 13,-13 13,-23 0,-12 -8,-22 -19,-25z"/>
   <path class="fil4" d="M1553 284c-30,0 -30,48 0,48 30,0 30,-48 0,-48z"/>
   <path class="fil4" d="M1619 263c-20,0 -20,33 0,33 21,0 21,-33 0,-33z"/>
   <path class="fil4" d="M1660 359c-3,-3 -7,-5 -12,-5 -7,0 -15,4 -18,10 -6,13 -5,27 6,37 11,11 31,9 39,-5 9,-15 1,-32 -15,-37z"/>
   <path class="fil4" d="M1197 298c-32,0 -32,49 0,49 32,0 32,-49 0,-49z"/>
   <path class="fil4" d="M1102 332c-30,0 -30,47 0,47 30,0 30,-47 0,-47z"/>
   <path class="fil4" d="M1169 361c-18,0 -18,27 0,27 17,0 17,-27 0,-27z"/>
   <path class="fil4" d="M1128 207c-5,-1 -9,1 -12,5 -2,4 -2,10 2,14 4,3 9,4 14,2 4,-3 5,-7 5,-12 3,-5 -4,-12 -9,-9z"/>
   <path class="fil4" d="M1695 267c-21,0 -21,34 0,34 22,0 22,-34 0,-34z"/>
   <path class="fil5" d="M1259 1612c-33,3 -62,15 -87,34 0,-11 -1,-22 -4,-33 -4,-17 -26,-18 -35,-5 -19,30 -25,71 -20,108 -3,-2 -5,-3 -9,-5 -6,-2 -12,-3 -19,-5 -28,-43 -80,-66 -132,-52 -21,5 -24,29 -12,44 17,21 40,33 64,41 -47,22 -84,57 -41,107 57,68 146,-28 178,-84 2,-1 3,-2 4,-3 27,-4 53,-20 74,-35 32,-23 54,-53 59,-92 1,-10 -10,-22 -20,-20zm-192 161l0 0c-9,9 -41,48 -57,41 -23,-10 14,-27 23,-32 12,-6 25,-11 38,-14 -2,1 -3,3 -4,5zm115 -82l0 0c12,-13 28,-24 45,-31 -11,14 -27,24 -45,31z"/>
   <path class="fil5" d="M1725 1638c-22,-32 -57,-39 -92,-33 13,-35 14,-73 -2,-106 -5,-10 -17,-11 -26,-7 -57,26 -83,96 -89,155 -9,0 -18,1 -26,4 -4,-11 -11,-22 -21,-30 46,-36 52,-132 7,-166 -43,-33 -85,16 -112,67 -4,-18 -13,-35 -28,-48 -6,-5 -16,-7 -22,0 -18,21 -26,45 -26,71 -20,-13 -41,-23 -64,-31 -7,-2 -14,3 -16,10 -13,39 4,69 46,70 4,0 7,-7 2,-9 -16,-7 -25,-22 -25,-39 24,10 44,23 65,39 11,9 28,1 24,-14 -5,-22 -4,-42 6,-61 16,26 12,59 11,89 0,18 29,23 33,4 7,-41 33,-93 68,-117 39,-26 32,49 27,63 -6,21 -22,35 -32,53 -34,-7 -57,17 -67,48 -17,-7 -35,-7 -51,0 -13,-3 -24,8 -26,21 -9,12 -11,25 -7,36 -4,1 -8,2 -11,3 -7,3 -7,12 0,14 72,30 151,29 223,61 0,1 1,2 2,3 63,60 115,-54 79,-107 -1,-1 -1,-1 -2,-2 4,0 7,-1 10,-4 26,-18 67,-38 97,-15 29,23 -57,40 -67,42 -33,7 -18,54 13,49 50,-6 144,-48 99,-113zm-122 -102l0 0c5,38 -19,81 -47,103 -6,5 -8,11 -7,18 -5,-3 -9,-5 -14,-6 13,-43 30,-90 68,-115z"/>
   <path class="fil5" d="M1555 3345c-77,-23 -140,-76 -169,-152 -24,-68 29,-145 39,-212 4,-25 -24,-41 -41,-24 8,-41 11,-81 -4,-121 -5,-12 -20,-22 -33,-13 -51,34 -81,98 -132,132 2,-83 93,-152 100,-236 2,-16 -16,-22 -28,-16 -47,22 -129,109 -176,47 -37,-48 -5,-140 9,-191 18,-64 35,-128 54,-192 23,-78 64,-149 90,-226 2,-6 -5,-9 -9,-6 -67,62 -95,171 -120,255 -24,83 -47,170 -60,255 -8,56 -5,120 49,151 46,26 100,-12 145,-40 -30,82 -116,139 -93,239 2,10 16,20 27,15 63,-26 94,-86 142,-130 8,64 -28,130 -40,192 -4,17 13,39 30,34 0,1 -1,2 -1,4 -13,44 -8,88 11,130 37,77 113,153 203,153 28,0 32,-40 7,-48z"/>
   <path class="fil3" d="M1513 2620c-16,-71 -38,-140 -64,-208 -25,-67 -51,-140 -107,-186 -27,-22 -65,-2 -58,34 12,63 48,118 72,177 28,68 49,138 66,208 36,141 50,286 49,430 0,150 -48,292 -92,433 -41,130 -80,263 -51,400 1,2 3,2 3,0 43,-292 215,-549 227,-847 6,-148 -13,-297 -45,-441z"/>
   <path class="fil6" d="M1043 2903c1,-44 2,-89 2,-133 0,-107 -12,-211 -32,-315 5,-59 0,-117 -24,-176 -4,-11 -24,-15 -26,0 -10,60 -39,113 -63,168 -28,63 -59,124 -82,190 -49,141 -70,292 -89,440 -34,266 -63,530 -51,798 11,242 39,489 7,730 -15,112 -44,222 -97,322 -36,69 -83,133 -122,201 -63,111 -125,238 -126,369 -1,103 53,173 129,212 -30,48 -61,94 -92,141 -50,73 68,165 123,95 4,-5 8,-11 12,-16 0,0 0,0 0,0 0,0 1,0 1,0l6 -8c-2,-13 -3,-26 -3,-40 1,-131 63,-258 126,-369 39,-68 86,-132 122,-201 53,-100 82,-210 97,-322 33,-241 4,-488 -7,-730 -12,-269 17,-532 51,-798 19,-148 41,-299 90,-440 14,-41 31,-79 48,-118z"/>
   <path class="fil3" d="M2747 5949c-117,5 -127,-143 -136,-229 -10,-98 -2,-231 -68,-311 -8,-9 -22,-11 -33,-9 -64,14 -124,65 -175,102 -29,21 -118,99 -154,79 -22,-13 -13,-87 -12,-106 5,-60 32,-117 60,-169 56,-103 124,-196 156,-310 5,-19 -18,-39 -36,-27 -90,61 -153,151 -220,236 -56,72 -120,155 -203,200 9,-110 48,-212 94,-313 49,-108 99,-215 147,-324 6,-15 -1,-38 -21,-36 -107,8 -188,100 -254,176 -68,79 -134,171 -229,217 24,-88 72,-168 113,-249 50,-99 75,-209 153,-293 14,-15 -7,-34 -21,-21 -171,141 -325,351 -542,425 49,-127 138,-241 225,-342 75,-88 181,-188 175,-313 0,-12 -11,-22 -23,-18 -126,37 -235,132 -350,193 -55,28 -119,59 -183,57 -94,-5 -75,-129 -78,-194 -1,-5 -8,-5 -9,0 -5,67 -36,167 32,213 51,35 125,16 178,-4 80,-30 154,-77 227,-122 54,-33 109,-74 169,-98 -9,119 -135,217 -204,305 -85,107 -178,218 -217,351 -5,17 11,33 28,29 117,-31 215,-104 305,-182 62,-54 121,-112 179,-171 -25,50 -45,102 -71,152 -53,103 -121,202 -147,317 -5,20 12,37 32,32 216,-49 286,-311 478,-398 -32,106 -96,204 -145,302 -56,111 -101,230 -105,356 0,19 20,35 39,29 191,-60 278,-259 405,-404 -43,91 -113,172 -157,259 -38,75 -91,224 -22,298 55,59 142,8 195,-26 39,-25 75,-54 112,-82 23,-17 48,-39 75,-52 19,33 21,85 26,119 8,69 12,139 23,207 16,102 66,238 195,191 22,-8 20,-43 -6,-42z"/>
  </g>
 </g>
</svg>
