<?xml version="1.0" encoding="UTF-8"?>
<!DOCTYPE svg PUBLIC "-//W3C//DTD SVG 1.1//EN" "http://www.w3.org/Graphics/SVG/1.1/DTD/svg11.dtd">
<!-- Creator: CorelDRAW X8 -->
<svg xmlns="http://www.w3.org/2000/svg" xml:space="preserve" width="328px" height="328px" version="1.1" style="shape-rendering:geometricPrecision; text-rendering:geometricPrecision; image-rendering:optimizeQuality; fill-rule:evenodd; clip-rule:evenodd"
viewBox="0 0 328 328"
 xmlns:xlink="http://www.w3.org/1999/xlink">
 <defs>
  <style type="text/css">
   <![CDATA[
    .fil0 {fill:#231F20}
    .fil1 {fill:#FDFDFD}
   ]]>
  </style>
 </defs>
 <g id="Layer_x0020_1">
  <metadata id="CorelCorpID_0Corel-Layer"/>
  <g id="_895135920">
   <path class="fil0" d="M178 114c-3,7 -2,14 -1,21l21 0 -2 23 -19 2 -1 71 -29 1 0 -72 -15 -1 0 -23 14 -1c3,-17 -2,-31 10,-41 8,-6 29,-7 42,-5l0 23 -20 2zm-26 -102c-78,8 -144,74 -135,162 8,77 75,144 163,134 78,-8 141,-75 134,-162 -7,-76 -76,-143 -162,-134z"/>
   <path class="fil1" d="M198 112l0 -23c-13,-2 -34,-1 -42,5 -12,10 -7,24 -10,41l-14 1 0 23 15 1 0 72 29 -1 1 -71 19 -2 2 -23 -21 0c-1,-7 -2,-14 1,-21l20 -2z"/>
  </g>
 </g>
</svg>
