<?xml version="1.0" encoding="UTF-8"?>
<!DOCTYPE svg PUBLIC "-//W3C//DTD SVG 1.1//EN" "http://www.w3.org/Graphics/SVG/1.1/DTD/svg11.dtd">
<!-- Creator: CorelDRAW X8 -->
<svg xmlns="http://www.w3.org/2000/svg" xml:space="preserve" width="328px" height="328px" version="1.1" style="shape-rendering:geometricPrecision; text-rendering:geometricPrecision; image-rendering:optimizeQuality; fill-rule:evenodd; clip-rule:evenodd"
viewBox="0 0 328 328"
 xmlns:xlink="http://www.w3.org/1999/xlink">
 <defs>
  <style type="text/css">
   <![CDATA[
    .fil1 {fill:#FEFEFE}
    .fil0 {fill:#231F20}
   ]]>
  </style>
 </defs>
 <g id="Layer_x0020_1">
  <metadata id="CorelCorpID_0Corel-Layer"/>
  <g id="_840065072">
   <path class="fil0" d="M152 18c-76,8 -141,73 -132,159 8,74 73,140 159,131 76,-9 138,-74 130,-159 -6,-73 -74,-139 -157,-131z"/>
   <path class="fil1" d="M166 124c0,0 0,0 0,0 0,0 0,-1 0,-1 1,-1 1,-3 2,-7 7,-17 26,-27 45,-22 19,5 32,23 32,46 0,27 -16,49 -29,65 -7,8 -16,18 -24,25 -3,2 -24,21 -26,21 -1,0 -6,-4 -7,-5 -2,-2 -4,-4 -7,-5 -5,-5 -20,-18 -24,-23 -21,-21 -41,-48 -41,-78 0,-40 40,-61 67,-38 3,2 5,6 7,9 1,2 2,4 3,6l1 6c1,1 1,0 1,1z"/>
  </g>
 </g>
</svg>
