<?xml version="1.0" encoding="UTF-8"?>
<!DOCTYPE svg PUBLIC "-//W3C//DTD SVG 1.1//EN" "http://www.w3.org/Graphics/SVG/1.1/DTD/svg11.dtd">
<!-- Creator: CorelDRAW X8 -->
<svg xmlns="http://www.w3.org/2000/svg" xml:space="preserve" width="328px" height="328px" version="1.1" style="shape-rendering:geometricPrecision; text-rendering:geometricPrecision; image-rendering:optimizeQuality; fill-rule:evenodd; clip-rule:evenodd"
viewBox="0 0 328 328"
 xmlns:xlink="http://www.w3.org/1999/xlink">
 <defs>
  <style type="text/css">
   <![CDATA[
    .fil0 {fill:#231F20}
    .fil2 {fill:#FAF9FA}
    .fil1 {fill:#FBFBFB}
   ]]>
  </style>
 </defs>
 <g id="Layer_x0020_1">
  <metadata id="CorelCorpID_0Corel-Layer"/>
  <g id="_895165456">
   <path class="fil0" d="M129 97c13,-4 48,-3 63,-2 46,3 42,43 39,91 -2,46 -44,41 -89,39 -22,-1 -34,-10 -39,-27 -3,-12 -2,-51 -1,-64 1,-21 9,-33 27,-37zm21 -85c-135,16 -176,181 -80,261 26,22 66,41 114,35 76,-10 140,-76 130,-166 -8,-76 -78,-141 -164,-130z"/>
   <path class="fil0" d="M155 129c41,-15 62,46 24,61 -43,18 -64,-46 -24,-61zm41 -9c8,-9 16,4 11,10 -6,7 -19,-1 -11,-10zm-82 71c3,17 14,21 32,22 52,2 72,5 73,-33 1,-14 2,-39 0,-52 -3,-18 -14,-21 -33,-21 -14,-1 -38,-1 -51,0 -17,3 -21,15 -22,32 0,14 -1,39 1,52z"/>
   <path class="fil1" d="M114 191c-2,-13 -1,-38 -1,-52 1,-17 5,-29 22,-32 13,-1 37,-1 51,0 19,0 30,3 33,21 2,13 1,38 0,52 -1,38 -21,35 -73,33 -18,-1 -29,-5 -32,-22zm15 -94c-18,4 -26,16 -27,37 -1,13 -2,52 1,64 5,17 17,26 39,27 45,2 87,7 89,-39 3,-48 7,-88 -39,-91 -15,-1 -50,-2 -63,2z"/>
   <path class="fil2" d="M186 170c-12,23 -53,6 -38,-21 13,-24 50,-4 38,21zm-31 -41c-40,15 -19,79 24,61 38,-15 17,-76 -24,-61z"/>
   <path class="fil0" d="M186 170c12,-25 -25,-45 -38,-21 -15,27 26,44 38,21z"/>
   <path class="fil2" d="M196 120c-8,9 5,17 11,10 5,-6 -3,-19 -11,-10z"/>
  </g>
 </g>
</svg>
