<?xml version="1.0" encoding="UTF-8"?>
<!DOCTYPE svg PUBLIC "-//W3C//DTD SVG 1.1//EN" "http://www.w3.org/Graphics/SVG/1.1/DTD/svg11.dtd">
<!-- Creator: CorelDRAW X8 -->
<svg xmlns="http://www.w3.org/2000/svg" xml:space="preserve" width="1839px" height="1031px" version="1.1" style="shape-rendering:geometricPrecision; text-rendering:geometricPrecision; image-rendering:optimizeQuality; fill-rule:evenodd; clip-rule:evenodd"
viewBox="0 0 1839 1031"
 xmlns:xlink="http://www.w3.org/1999/xlink">
 <defs>
  <style type="text/css">
   <![CDATA[
    .fil1 {fill:#373435}
    .fil0 {fill:#373435;fill-rule:nonzero}
   ]]>
  </style>
 </defs>
 <g id="Layer_x0020_1">
  <metadata id="CorelCorpID_0Corel-Layer"/>
  <g id="_832700384">
   <path class="fil0" d="M997 266c-30,-15 -111,-15 -138,-6 -64,11 -68,170 -63,214 -12,-8 -10,-7 -10,-7 -1,-40 -8,-109 7,-160 12,-43 33,-61 77,-67 50,-7 140,-1 147,50 5,43 5,94 2,144 -10,-38 3,-157 -22,-168z"/>
   <path class="fil0" d="M577 684c-26,0 -50,-1 -72,-5 8,23 24,73 48,152 8,23 20,46 36,70 21,29 41,44 59,44 22,-1 39,-23 53,-67 2,-10 4,-15 7,-15 3,0 5,3 7,8 1,6 2,10 2,12 0,13 -7,30 -21,50 -18,29 -39,43 -61,44 -23,0 -44,-11 -63,-33 -19,-22 -39,-63 -58,-122 -20,-60 -30,-97 -30,-114 0,-2 0,-4 1,-6 -110,151 -328,230 -419,26 -35,-79 -51,-185 -50,-291 2,-109 22,-219 59,-301 24,-54 49,-88 87,-105 37,-16 87,-13 163,7 58,15 125,42 190,72 72,34 141,74 193,109 33,22 57,42 81,62 6,5 12,9 18,14l3 3 -18 6c1,-1 1,-2 1,-2 -4,-4 -9,-8 -14,-11 -24,-20 -48,-40 -81,-62 -50,-35 -119,-74 -190,-107 -64,-31 -130,-57 -187,-72 -72,-19 -127,-19 -157,0 -117,94 -161,519 -84,673 86,193 283,104 382,-34 7,-9 12,-15 17,-18l-13 -5c-6,3 -12,4 -16,4 -11,1 -16,-4 -16,-12 0,-12 7,-20 23,-24 2,0 4,-1 6,-1 9,0 20,4 32,13 44,-51 67,-77 68,-78 36,-39 61,-59 74,-59 13,0 20,5 20,16 0,6 -1,10 -3,15 -2,5 -5,7 -8,7 -3,1 -5,0 -5,-4 0,-2 2,-5 5,-10 0,-7 -2,-10 -7,-10 -17,0 -56,44 -117,133 16,1 28,1 39,1 119,-3 192,-35 221,-97 6,-14 8,-26 8,-37 0,-23 -11,-42 -32,-58 -33,-26 -87,-38 -161,-37 -73,2 -148,22 -224,61 -93,47 -138,102 -137,163 0,20 13,30 38,30 25,-1 52,-11 80,-30 28,-19 46,-37 55,-55 4,-7 7,-11 11,-11 3,0 4,2 2,7 -9,28 -30,53 -63,74 -33,21 -68,32 -104,33 -37,1 -55,-11 -56,-34 0,-1 0,-3 0,-5 7,-67 47,-125 120,-174 74,-48 163,-73 268,-75 98,-3 168,13 209,46 26,20 38,44 39,71 0,12 -2,25 -8,39 -15,38 -47,66 -96,85 -49,20 -100,30 -154,31z"/>
   <path class="fil1" d="M707 841c-2,0 -5,1 -11,1 -5,0 -10,-2 -15,-6 -6,-4 -8,-9 -8,-16 -1,-6 0,-13 3,-21 2,-8 3,-14 4,-18 -35,43 -63,64 -84,65 -13,0 -20,-8 -21,-24 0,-1 0,-2 0,-3 -1,-14 7,-32 23,-56 -9,9 -18,18 -27,29 -2,2 -3,2 -5,2 -1,0 -2,-1 -2,-2 0,-2 1,-4 4,-8l64 -78c8,-10 16,-15 25,-15 8,0 12,3 13,8 0,3 -1,5 -3,7 -13,11 -28,31 -47,59 -18,27 -27,47 -27,60 0,6 2,9 6,9 13,-1 32,-14 57,-41 9,-9 25,-29 48,-59 23,-31 39,-46 46,-46 12,-1 17,4 18,13 0,3 -7,12 -20,27 -17,23 -31,41 -40,55 -9,13 -13,25 -13,33 0,9 2,13 7,13 2,0 5,-1 8,-2 21,-10 47,-33 76,-68 2,-2 4,-3 6,-4 2,0 3,1 3,4 0,2 -1,4 -3,6 -14,16 -29,33 -47,49 -18,16 -31,25 -38,27z"/>
   <path class="fil1" d="M881 717c-1,-22 5,-33 19,-33 1,0 2,0 4,1 5,0 8,4 8,12 0,7 -1,16 -3,27 -2,8 -4,15 -5,19 1,5 4,12 8,20 5,8 11,13 18,12 8,0 16,-5 25,-15 2,-3 3,-4 5,-4 2,0 3,1 3,3 0,2 -1,5 -3,9 -10,12 -20,18 -31,18 -15,0 -28,-11 -38,-33 -9,22 -23,42 -40,58 -18,17 -36,25 -53,26 -17,0 -26,-12 -26,-38 0,-19 17,-56 53,-110 36,-55 64,-82 84,-82 4,0 7,1 11,3 3,3 5,6 5,9 0,0 -2,2 -7,8 -4,5 -16,18 -36,41 -20,22 -40,47 -59,74 -19,27 -28,48 -28,62 0,4 1,8 4,12 2,5 5,7 10,7 14,0 30,-12 48,-33 15,-20 24,-36 27,-49 -2,-6 -3,-14 -3,-24z"/>
   <path class="fil1" d="M1102 689l7 -2c3,0 7,1 10,4 3,3 5,5 5,7 0,1 -10,17 -29,46 -18,29 -28,49 -28,61 0,1 1,2 1,3 2,7 5,10 11,10 16,0 45,-28 88,-83 1,-1 2,-2 3,-2 1,0 2,1 2,4 0,2 -1,5 -4,9 -39,55 -70,82 -91,83 -2,0 -5,-1 -8,-2 -14,-5 -21,-15 -21,-30 0,-6 0,-11 1,-16l-28 28c-19,17 -32,26 -40,26 -9,0 -17,-2 -24,-8 -9,-6 -13,-14 -14,-24 0,-23 15,-51 47,-84 31,-33 61,-49 87,-50 11,0 18,3 21,11 1,2 2,4 3,6 1,2 1,3 1,3zm-139 119c1,11 5,17 13,17 18,-1 42,-21 73,-62l49 -70c-3,-4 -7,-7 -13,-6 -19,0 -44,15 -75,46 -32,30 -47,55 -47,75z"/>
   <path class="fil0" d="M1211 637c-17,59 -26,102 -27,129 0,26 8,39 24,40 7,0 17,-5 30,-16 13,-10 22,-20 29,-29 18,-24 32,-36 53,-84 4,-9 8,-14 9,-14 1,0 1,2 1,6 0,4 -2,13 -7,25 -18,45 -31,57 -52,84 -25,33 -49,50 -71,50 -10,-1 -18,-5 -24,-15 -6,-9 -8,-29 -8,-57 1,-29 7,-68 19,-118 15,-58 25,-104 48,-159 6,-16 12,-35 20,-56 9,-25 16,-37 19,-37 3,0 7,3 11,8 5,6 7,13 7,20 0,8 -8,31 -24,69 -25,55 -39,94 -57,154z"/>
   <path class="fil1" d="M1513 776c-24,31 -45,46 -63,47l-8 0c-8,0 -14,-4 -19,-13 -4,-5 -6,-12 -6,-19 -1,-19 12,-46 39,-81 27,-35 49,-52 66,-53 16,0 25,8 25,26 0,26 -5,47 -17,68 -5,8 -11,16 -17,25zm1 -84c-11,0 -28,17 -47,42 -19,26 -28,45 -28,57 0,12 4,18 12,18 13,-1 30,-13 50,-38 11,-14 60,-79 13,-79z"/>
   <path class="fil0" d="M1516 691c-3,8 1,26 13,38 3,3 5,6 8,9 61,62 157,36 204,-52 37,-67 54,-165 54,-263 -5,-460 -199,-443 -553,-275 -22,11 -42,22 -61,32 -19,11 -37,22 -55,33 -17,10 -33,22 -48,32 -20,14 -39,28 -57,38l-10 4c-1,-2 -1,-4 -1,-7l-1 -3 0 -2c19,-10 39,-24 59,-39 16,-11 32,-22 49,-33 18,-11 36,-22 55,-33 20,-10 40,-21 62,-32 38,-20 87,-42 139,-62 44,-16 89,-31 131,-41 261,-62 307,156 306,388 0,100 -18,199 -55,268 -29,53 -59,79 -102,88 -60,13 -97,-3 -120,-25 -4,-4 -7,-8 -10,-12 -1,0 -1,-1 -2,-2 -20,-25 -17,-46 -17,-51l12 2z"/>
   <path class="fil0" d="M1355 643c-17,59 -26,103 -27,130 0,26 8,39 24,39 7,0 17,-5 30,-15 12,-11 22,-20 29,-29 66,-88 42,-33 4,16 -25,34 -49,50 -71,50 -10,0 -18,-5 -24,-14 -6,-10 -9,-29 -8,-58 0,-29 7,-68 19,-118 15,-58 25,-103 47,-159 6,-16 13,-34 21,-55 9,-25 15,-38 19,-38 3,0 7,3 11,9 5,6 7,12 7,20 0,8 -8,30 -24,68 -25,55 -40,95 -57,154z"/>
   <path class="fil0" d="M1288 504c-69,6 -117,3 -148,3l-52 0c-13,0 28,12 59,16 31,5 75,5 133,2 67,-4 119,-6 185,-17 19,-3 41,-6 66,-10 30,-4 45,-8 46,-11 1,-3 -1,-7 -5,-12 -5,-5 -12,-8 -20,-9 -8,-1 -35,2 -80,11 -67,13 -115,20 -184,27z"/>
   <path class="fil0" d="M1201 346c-43,14 -71,28 -89,36l-32 13c-7,3 14,-14 31,-24 18,-10 44,-22 79,-35 41,-15 73,-27 116,-37 12,-4 26,-8 42,-12 19,-5 29,-7 30,-6 1,2 1,4 0,8 -1,4 -4,8 -9,10 -5,3 -22,8 -51,15 -44,9 -74,18 -117,32z"/>
   <path class="fil1" d="M770 961c1,0 6,1 14,0 9,0 14,1 13,2 0,1 -7,1 -23,1 -6,0 -10,0 -10,0 0,-1 0,-3 0,-7 0,-1 0,-4 0,-9 0,-6 0,-9 0,-11 0,-28 0,-45 -1,-52 0,-5 1,-7 5,-7 8,-1 13,-1 15,0 1,0 2,0 4,0 2,0 3,0 4,0 4,0 5,0 4,1 0,1 -5,1 -14,1 -8,0 -12,0 -12,2l-1 17c1,10 2,15 2,15 0,1 4,1 13,0 1,0 2,1 3,2 1,1 1,1 -1,1 -5,0 -9,0 -10,0 -3,1 -5,1 -5,2 -1,21 -2,33 -2,34 0,5 1,7 2,8zm61 3c-1,0 -2,0 -3,-1 0,0 -3,-11 -8,-32 -2,-6 -3,-13 -6,-22 -1,-7 -3,-12 -3,-15 -1,-3 -2,-6 -3,-10 -1,-3 -2,-4 -2,-5 0,0 0,-1 1,-1 1,0 2,-1 3,0 2,0 3,1 4,3 0,1 1,3 2,8 0,1 1,4 1,8 1,5 2,11 4,17 5,23 9,35 10,37 1,1 2,-1 3,-7 0,0 1,-3 2,-8 2,-6 3,-11 4,-17 2,-9 4,-19 5,-28 1,-5 2,-8 2,-11 0,-2 2,-3 4,-3 2,1 3,1 3,2 0,1 0,3 -1,7 -3,10 -6,23 -9,39 -3,16 -6,29 -9,37 0,1 -2,2 -4,2zm44 -3c1,0 5,1 13,0 9,0 14,1 14,2 0,1 -8,1 -23,1 -7,0 -10,0 -10,0 -1,-1 -1,-3 -1,-7 0,-1 0,-4 0,-9 0,-6 0,-9 0,-11 0,-28 0,-45 0,-52 -1,-5 1,-7 5,-7 7,-1 12,-1 15,0 0,0 1,0 3,0 2,0 3,0 4,0 4,0 5,0 5,1 -1,1 -5,1 -14,1 -9,0 -13,0 -13,2l0 17c0,10 1,15 1,15 1,1 5,1 13,0 1,0 2,1 3,2 1,1 1,1 0,1 -6,0 -9,0 -11,0 -3,1 -5,1 -5,2 -1,21 -1,33 -1,34 0,5 0,7 2,8zm88 -79c0,2 0,16 -1,43 0,2 1,6 1,12 0,1 0,3 0,5 0,3 0,4 0,5 0,5 0,8 0,9 0,3 0,5 -1,5 0,2 -2,3 -3,3 -2,0 -4,-2 -6,-7 -13,-26 -19,-41 -20,-44 -5,-13 -7,-20 -8,-21 0,-1 -1,-3 -2,-4 -1,-1 -1,-2 -1,-1 0,1 0,3 0,6 0,3 0,5 0,6l0 31c0,6 0,12 1,17 0,11 0,16 0,16 -1,1 -2,1 -3,1 -1,0 -2,0 -3,-1 0,0 0,-2 0,-4l0 -41 0 -15c0,-12 0,-19 0,-21 0,-3 1,-5 3,-5 2,0 4,2 6,7 0,0 2,4 6,13 3,9 5,14 6,15 0,1 2,4 3,7 2,4 4,8 5,10 1,3 3,6 4,10 2,3 3,5 3,6 3,6 5,9 5,9 0,-1 0,-3 0,-8l0 -36 -1 -18c0,-7 0,-11 0,-12 0,-2 1,-2 2,-2 3,0 4,1 4,4zm37 82c0,0 -1,0 -3,0 -1,0 -2,-1 -2,-3 1,-3 1,-4 1,-3 0,-4 0,-7 0,-8 0,-1 0,-3 0,-5 0,-2 0,-3 0,-5 0,0 0,-2 0,-7 0,-5 0,-9 0,-12 0,-4 0,-8 -1,-12 0,-6 0,-8 0,-9l0 -12c0,-4 0,-7 0,-7 -1,-1 -5,-1 -14,-1 -2,1 -3,0 -2,-2 1,-1 7,-1 18,0 8,-1 14,-1 17,-1 2,0 3,1 3,2 0,1 -1,1 -2,1 -1,0 -4,0 -9,0 -2,0 -4,0 -4,1 -2,0 -2,4 -2,11 0,15 0,24 0,27 1,6 1,17 1,34 0,1 0,3 0,4 0,2 1,3 1,4 0,1 -1,3 -2,3zm52 -84c-10,0 -15,10 -16,31 -1,10 -1,17 0,21 1,6 2,11 3,15 2,5 3,9 3,9 2,3 6,5 10,5 5,0 9,-2 12,-7 3,-5 5,-10 5,-15 1,-8 2,-14 2,-17 0,-1 0,-3 0,-5 0,-2 0,-7 -1,-12 0,-4 -1,-8 -2,-11 -3,-5 -4,-8 -5,-9 -3,-3 -7,-5 -11,-5zm24 48c-1,8 -2,13 -2,15 -1,5 -3,9 -5,13 -2,2 -4,4 -6,5 -4,2 -7,3 -11,3 -5,0 -9,-1 -12,-4 -2,-2 -4,-5 -6,-10 -1,-3 -2,-9 -3,-18 -1,-7 -1,-12 -1,-15 0,-10 1,-16 1,-17 1,-6 2,-10 4,-13 1,-3 3,-6 6,-7 3,-2 6,-3 11,-3 4,0 7,1 10,3 3,1 5,4 7,7 3,7 5,11 5,13 2,9 3,18 2,28zm46 5c2,5 3,8 3,11 0,4 -2,8 -5,13 -4,4 -9,7 -16,7 -2,0 -5,0 -7,0 -5,0 -8,-1 -8,-3 0,-1 1,-1 3,-1 1,0 3,0 5,1 5,1 9,0 12,-2 3,-2 5,-3 6,-4 2,-5 4,-9 4,-12 0,-3 -1,-6 -3,-11 -2,-3 -4,-7 -7,-10 -3,-3 -6,-6 -8,-9 -6,-7 -10,-14 -10,-20 0,-6 3,-10 8,-13 4,-2 8,-3 13,-2 4,0 7,1 9,2 0,1 0,2 -1,2 -1,0 -2,0 -4,-1 -2,0 -3,-1 -4,-1 -3,0 -7,1 -10,3 -3,1 -4,4 -4,9 0,6 3,13 9,20 5,5 8,9 8,9 2,3 5,7 7,12zm59 28c1,0 5,1 13,0 9,0 14,1 14,2 0,1 -8,1 -23,1 -7,0 -10,0 -10,0 -1,-1 -1,-3 -1,-7 0,-1 0,-4 0,-9 0,-6 0,-9 0,-11 0,-28 0,-45 0,-52 -1,-5 1,-7 4,-7 8,-1 13,-1 16,0 0,0 1,0 3,0 2,0 3,0 4,0 4,0 5,0 5,1 -1,1 -6,1 -14,1 -9,0 -13,0 -13,2l0 17c0,10 1,15 1,15 0,1 5,1 13,0 1,0 2,1 3,2 1,1 1,1 0,1 -6,0 -9,0 -11,0 -3,1 -5,1 -5,2 -1,21 -1,33 -1,34 0,5 0,7 2,8zm79 -42c0,1 0,4 0,9 1,5 1,9 2,12 0,7 2,13 6,16 5,5 11,6 19,3 7,-2 10,-5 11,-8 0,-2 1,-2 5,-1 2,1 1,4 -4,8 -5,4 -12,6 -20,6 -8,0 -13,-2 -17,-7 -4,-5 -7,-20 -7,-45 0,-12 3,-21 8,-28 1,-2 4,-4 9,-5 5,-2 10,-2 16,-1 6,2 10,4 11,7 2,3 2,4 0,5 0,0 -1,0 -2,0 -1,0 -2,-1 -2,-1 1,-5 -4,-8 -15,-8 -7,0 -12,2 -14,7 -3,4 -5,9 -5,12 -1,4 -1,10 -1,19zm65 42c1,0 5,1 13,0 10,0 14,1 14,2 0,1 -8,1 -23,1 -7,0 -10,0 -10,0 -1,-1 -1,-3 -1,-7 0,-1 0,-4 0,-9 1,-6 1,-9 1,-11 -1,-28 -1,-45 -1,-52 -1,-5 1,-7 5,-7 7,-1 12,-1 15,0 0,0 1,0 3,0 2,0 4,0 5,0 3,0 5,0 4,1 -1,1 -5,1 -14,1 -9,0 -13,0 -13,2l0 17c1,10 1,15 2,15 0,1 4,1 12,0 2,0 3,1 4,2 1,1 0,1 -1,1 -6,0 -9,0 -10,0 -4,1 -6,1 -6,2 -1,21 -1,33 -1,34 0,5 1,7 2,8zm48 -80c1,-1 4,-1 7,0 5,1 9,3 11,6 3,4 4,8 3,12 0,5 -3,9 -9,12 -6,2 -10,3 -12,3 0,-1 -1,-6 -1,-16 0,-11 0,-16 1,-17zm14 56c-7,-13 -9,-20 -9,-20 0,-1 2,-2 5,-2 6,-2 11,-6 13,-10 2,-4 3,-7 3,-11 0,-3 -2,-6 -6,-10 -2,-2 -5,-4 -8,-5 -4,-1 -8,-2 -12,-2 -4,0 -6,1 -6,2 0,3 0,5 0,7 0,1 0,3 0,5 0,0 0,1 0,4 0,2 0,4 0,6 1,7 1,12 1,15l1 24 -2 20c0,3 1,4 3,4 1,0 2,0 3,-1 0,0 1,-3 1,-8 -2,-25 -2,-37 -1,-36 0,0 2,3 5,10 2,5 4,8 5,10 1,4 3,8 5,11 0,1 1,4 3,7 1,2 2,4 2,4 2,2 3,3 4,3 3,0 4,-1 2,-4 -8,-15 -12,-22 -12,-23zm34 27c-1,0 -2,0 -3,0 -1,0 -2,-1 -2,-1 0,-1 0,-2 0,-3 0,-1 0,-1 1,-2 0,-4 0,-7 0,-8 0,-1 0,-3 0,-5 0,-2 0,-3 0,-5 0,1 0,-2 0,-7 0,-5 0,-9 0,-12 0,-4 -1,-8 -1,-12 0,-6 0,-8 0,-9l0 -12c0,-5 0,-7 0,-8 0,-2 1,-2 2,-2 1,0 2,0 2,0 1,1 1,1 1,2 0,0 0,4 0,12 0,15 0,24 0,27 0,3 1,15 1,36 0,1 0,3 0,4 0,1 0,3 0,4 0,1 0,1 -1,1zm77 -86c0,1 0,3 0,7 -1,4 -1,7 -1,8 0,2 0,5 0,10 0,6 1,11 1,14 0,13 0,20 0,21 0,6 0,10 0,10l0 8c0,5 0,7 -1,7 0,1 -1,1 -3,1 -1,0 -2,0 -2,-1 0,-1 0,-3 0,-8l1 -38c0,-9 0,-14 0,-15 -1,-7 -1,-10 -2,-9 -1,0 -4,4 -9,12 -4,7 -7,10 -6,10 -3,3 -5,5 -7,5 -1,0 -5,-5 -12,-15 -6,-10 -9,-14 -10,-12 -1,1 -1,9 -1,22l1 36 1 10c0,2 -1,3 -4,3 -2,0 -3,-2 -3,-7l1 -17 -1 -23 0 -29c0,-6 0,-9 0,-9 0,-1 1,-2 3,-2 1,0 2,1 3,1 0,0 1,2 3,6 2,3 4,6 5,8 5,8 9,13 10,16 3,4 5,6 6,5 2,-3 5,-6 7,-10 5,-7 7,-11 8,-12 0,-1 2,-4 3,-7 1,-3 2,-5 3,-5 0,-1 1,-2 3,-2 2,0 3,1 3,1zm39 2c-10,0 -15,10 -16,31 0,10 0,17 0,21 1,6 2,11 3,15 2,5 4,9 4,9 2,3 5,5 9,5 5,0 9,-2 13,-7 2,-5 4,-10 5,-15 1,-8 1,-14 1,-17 0,-1 0,-3 0,-5 0,-2 0,-7 0,-12 -1,-4 -2,-8 -3,-11 -2,-5 -4,-8 -5,-9 -3,-3 -7,-5 -11,-5zm25 48c-1,8 -2,13 -3,15 -1,5 -3,9 -5,13 -2,2 -4,4 -6,5 -3,2 -7,3 -11,3 -5,0 -9,-1 -12,-4 -2,-2 -4,-5 -6,-10 -1,-3 -2,-9 -3,-18 -1,-7 -1,-12 -1,-15 1,-10 1,-16 1,-17 1,-6 2,-10 4,-13 2,-3 4,-6 6,-7 3,-2 7,-3 11,-3 4,0 8,1 10,3 3,1 6,4 7,7 4,7 5,11 6,13 1,9 2,18 2,28zm63 -46c0,2 0,16 0,43 0,2 0,6 0,12 0,1 0,3 0,5 0,3 0,4 0,5 1,5 1,8 0,9 0,3 0,5 0,5 -1,2 -2,3 -4,3 -1,0 -3,-2 -6,-7 -12,-26 -19,-41 -20,-44 -5,-13 -7,-20 -7,-21 -1,-1 -2,-3 -2,-4 -1,-1 -2,-2 -2,-1 0,1 0,3 0,6 1,3 1,5 1,6l0 31c0,6 0,12 0,17 0,11 0,16 0,16 -1,1 -2,1 -3,1 -1,0 -2,0 -2,-1 -1,0 -1,-2 -1,-4l0 -41 0 -15c0,-12 0,-19 0,-21 0,-3 1,-5 4,-5 2,0 3,2 5,7 1,0 2,4 6,13 4,9 6,14 6,15 1,1 2,4 4,7 2,4 3,8 4,10 2,3 3,6 5,10 1,3 2,5 2,6 3,6 5,9 5,9 1,-1 1,-3 1,-8l-1 -36 -1 -18c0,-7 0,-11 0,-12 0,-2 1,-2 3,-2 2,0 3,1 3,4zm24 82c-1,0 -2,0 -3,0 -1,0 -1,-1 -1,-1 0,-1 0,-2 0,-3 0,-1 0,-1 0,-2 0,-4 0,-7 0,-8 0,-1 0,-3 1,-5 0,-2 0,-3 0,-5 0,1 0,-2 0,-7 0,-5 0,-9 -1,-12 0,-4 0,-8 0,-12 0,-6 0,-8 0,-9l0 -12c0,-5 0,-7 0,-8 0,-2 0,-2 2,-2 1,0 1,0 2,0 1,1 1,1 1,2 0,0 -1,4 -1,12 0,15 0,24 1,27 0,3 0,15 0,36 0,1 0,3 0,4 1,1 1,3 1,4 0,1 -1,1 -2,1zm55 -27c0,-8 -2,-19 -5,-32 -3,-14 -6,-21 -9,-21 0,0 -2,4 -4,11 0,0 -1,3 -2,7 -2,4 -3,7 -4,10 -1,3 -2,7 -3,12 -1,5 -1,8 -1,9 -2,3 -1,5 0,5 19,0 28,0 28,-1zm10 24c0,1 -1,2 -1,2 -1,1 -2,1 -3,1 -3,0 -4,0 -4,-1 2,-7 2,-14 -1,-20 -1,-1 -4,-2 -11,-2 -7,-1 -13,0 -17,1 -2,0 -3,2 -4,4 -1,5 -2,9 -3,12 1,4 0,6 -1,6 -2,0 -3,0 -5,-1 0,-1 1,-6 4,-16 0,-2 1,-6 3,-14 1,-8 3,-13 4,-17 0,-2 2,-8 5,-21 1,-3 2,-5 2,-6 1,-2 1,-3 2,-5 2,-4 4,-7 6,-7 2,0 4,2 5,4 3,5 4,8 5,11 4,11 5,17 5,17 1,2 1,4 1,6 1,5 2,9 3,12 2,11 3,22 5,33l0 1zm17 3c-1,0 -2,0 -3,0 -1,0 -2,-1 -2,-1 0,-1 1,-2 1,-3 0,-1 0,-1 0,-2 0,-4 0,-7 0,-8 0,-1 0,-3 0,-5 0,-2 0,-3 0,-5 0,1 0,-2 0,-7 0,-5 0,-9 0,-12 0,-4 0,-8 -1,-12 0,-6 0,-8 0,-9l0 -12c0,-5 0,-7 0,-8 0,-2 1,-2 2,-2 1,0 2,0 3,0 0,1 0,1 0,2 0,0 0,4 0,12 0,15 0,24 0,27 1,3 1,15 1,36 0,1 0,3 0,4 0,1 0,3 0,4 0,1 0,1 -1,1zm49 -31c2,5 3,8 3,11 0,4 -2,8 -6,13 -3,4 -9,7 -16,7 -2,0 -4,0 -7,0 -5,0 -7,-1 -7,-3 0,-1 1,-1 3,-1 1,0 2,0 5,1 4,1 8,0 12,-2 3,-2 5,-3 5,-4 3,-5 4,-9 4,-12 0,-3 -1,-6 -3,-11 -2,-3 -4,-7 -6,-10 -3,-3 -6,-6 -8,-9 -7,-7 -10,-14 -10,-20 0,-6 3,-10 8,-13 3,-2 8,-3 13,-2 4,0 7,1 8,2 1,1 0,2 -1,2 0,0 -1,0 -3,-1 -2,0 -4,-1 -5,-1 -3,0 -6,1 -10,3 -2,1 -4,4 -4,9 0,6 3,13 9,20 5,5 8,9 9,9 2,3 4,7 7,12z"/>
  </g>
 </g>
</svg>
