<?xml version="1.0" encoding="UTF-8"?>
<!DOCTYPE svg PUBLIC "-//W3C//DTD SVG 1.1//EN" "http://www.w3.org/Graphics/SVG/1.1/DTD/svg11.dtd">
<!-- Creator: CorelDRAW X8 -->
<svg xmlns="http://www.w3.org/2000/svg" xml:space="preserve" width="328px" height="328px" version="1.1" style="shape-rendering:geometricPrecision; text-rendering:geometricPrecision; image-rendering:optimizeQuality; fill-rule:evenodd; clip-rule:evenodd"
viewBox="0 0 328 328"
 xmlns:xlink="http://www.w3.org/1999/xlink">
 <defs>
  <style type="text/css">
   <![CDATA[
    .fil0 {fill:#231F20}
    .fil1 {fill:#FAF9FA}
    .fil2 {fill:#FBFBFB}
   ]]>
  </style>
 </defs>
 <g id="Layer_x0020_1">
  <metadata id="CorelCorpID_0Corel-Layer"/>
  <g id="_833267328">
   <path class="fil0" d="M93 230c2,-11 6,-19 10,-30 3,-10 -4,-15 -7,-27 -15,-70 71,-111 118,-66 31,30 27,79 -4,104 -42,34 -69,4 -88,11 -9,3 -19,6 -29,8zm52 -218c-75,9 -142,77 -129,166 11,76 77,140 167,129 75,-9 140,-78 128,-167 -9,-75 -78,-139 -166,-128z"/>
   <path class="fil0" d="M201 173c-2,37 -58,7 -69,-23 -4,-14 1,-25 15,-24l8 17 -6 10c4,10 12,17 25,22l10 -9 17 7zm-90 40c6,-2 16,-7 24,-5 9,2 39,22 70,-7 24,-24 27,-62 0,-86 -27,-25 -63,-19 -85,5 -10,11 -16,28 -13,48 0,4 1,7 3,12 1,2 5,9 5,10 3,8 -3,15 -4,23z"/>
   <path class="fil1" d="M111 213c1,-8 7,-15 4,-23 0,-1 -4,-8 -5,-10 -2,-5 -3,-8 -3,-12 -3,-20 3,-37 13,-48 22,-24 58,-30 85,-5 27,24 24,62 0,86 -31,29 -61,9 -70,7 -8,-2 -18,3 -24,5zm-18 17c10,-2 20,-5 29,-8 19,-7 46,23 88,-11 31,-25 35,-74 4,-104 -47,-45 -133,-4 -118,66 3,12 10,17 7,27 -4,11 -8,19 -10,30z"/>
   <path class="fil2" d="M201 173l-17 -7 -10 9c-13,-5 -21,-12 -25,-22l6 -10 -8 -17c-14,-1 -19,10 -15,24 11,30 67,60 69,23z"/>
  </g>
 </g>
</svg>
