<?xml version="1.0" encoding="UTF-8"?>
<!DOCTYPE svg PUBLIC "-//W3C//DTD SVG 1.1//EN" "http://www.w3.org/Graphics/SVG/1.1/DTD/svg11.dtd">
<!-- Creator: CorelDRAW X8 -->
<svg xmlns="http://www.w3.org/2000/svg" xml:space="preserve" width="328px" height="328px" version="1.1" style="shape-rendering:geometricPrecision; text-rendering:geometricPrecision; image-rendering:optimizeQuality; fill-rule:evenodd; clip-rule:evenodd"
viewBox="0 0 328 328"
 xmlns:xlink="http://www.w3.org/1999/xlink">
 <defs>
  <style type="text/css">
   <![CDATA[
    .fil0 {fill:#231F20}
    .fil1 {fill:#FDFEFE}
   ]]>
  </style>
 </defs>
 <g id="Layer_x0020_1">
  <metadata id="CorelCorpID_0Corel-Layer"/>
  <g id="_895158896">
   <path class="fil0" d="M92 185c-8,-78 11,-71 50,-72 20,0 41,0 61,0 24,1 30,6 32,30 5,76 -9,69 -49,70 -21,1 -41,1 -62,0 -24,-1 -30,-5 -32,-28zm218 4c9,-46 -8,-90 -29,-117 -74,-98 -241,-67 -265,65 -24,133 130,227 239,144 25,-19 46,-49 55,-92z"/>
   <path class="fil1" d="M149 143c8,2 31,13 36,19 -5,5 -27,16 -37,18l1 -37zm-57 42c2,23 8,27 32,28 21,1 41,1 62,0 40,-1 54,6 49,-70 -2,-24 -8,-29 -32,-30 -20,0 -41,0 -61,0 -39,1 -58,-6 -50,72z"/>
   <path class="fil0" d="M148 180c10,-2 32,-13 37,-18 -5,-6 -28,-17 -36,-19l-1 37z"/>
  </g>
 </g>
</svg>
